SplineFontDB: 1.0
FontName: ArundinaSansMono-Bold
FullName: Arundina Sans Mono Bold
FamilyName: Arundina Sans Mono
Weight: Bold
Copyright: Copyright (c) 2003 by Bitstream, Inc. All Rights Reserved.\nCopyright (c) 2007 by Software Industry Promotion Agency (Public Organization). All Rights Reserved.
Version: 1.20
ItalicAngle: 0
UnderlinePosition: -213
UnderlineWidth: 141
Ascent: 800
Descent: 200
Order2: 1
XUID: [1021 375 425136265 6984372]
FSType: 4
OS2Version: 2
OS2_WeightWidthSlopeOnly: 0
OS2_UseTypoMetrics: 1
CreationTime: 1050374940
ModificationTime: 1171885163
PfmFamily: 49
TTFWeight: 700
TTFWidth: 5
LineGap: 12
VLineGap: 0
Panose: 2 11 3 0 2 2 2 2 2 4
OS2TypoAscent: 0
OS2TypoAOffset: 1
OS2TypoDescent: -200
OS2TypoDOffset: 1
OS2TypoLinegap: 0
OS2WinAscent: -201
OS2WinAOffset: 1
OS2WinDescent: 47
OS2WinDOffset: 1
HheadAscent: -201
HheadAOffset: 1
HheadDescent: -47
HheadDOffset: 1
OS2SubXSize: 700
OS2SubYSize: 650
OS2SubXOff: 0
OS2SubYOff: 140
OS2SupXSize: 700
OS2SupYSize: 650
OS2SupXOff: 0
OS2SupYOff: 477
OS2StrikeYSize: 50
OS2StrikeYPos: 250
OS2FamilyClass: 1285
OS2Vendor: 'Bits'
ScriptLang: 2
 1 latn 1 dflt 
 0 
ChainSub: coverage 0 0 'liga' 0 0 0 1
 1 1 0
  Coverage: 7 uni0E47
  BCoverage: 12 uni0E2C.alt1
 1
  SeqLookup: 0 'L019'
EndFPST
ChainSub: coverage 0 0 'liga' 0 0 0 1
 1 0 1
  Coverage: 7 uni0E2C
  FCoverage: 39 uni0E34 uni0E35 uni0E36 uni0E37 uni0E47
 1
  SeqLookup: 0 'L019'
EndFPST
ChainSub: coverage 0 0 'liga' 0 0 0 1
 1 0 1
  Coverage: 15 uni0E0E uni0E0F
  FCoverage: 38 uni0E38.alt1 uni0E39.alt1 uni0E3A.alt1
 1
  SeqLookup: 0 'L019'
EndFPST
ChainSub: coverage 0 0 'liga' 0 0 0 1
 1 1 0
  Coverage: 5 a b c
  BCoverage: 23 uni0E1B uni0E1D uni0E1F
 1
  SeqLookup: 0 'L019'
EndFPST
ChainSub: coverage 0 0 'liga' 0 0 0 1
 1 0 1
  Coverage: 5 a b c
  FCoverage: 64 uni0E48.alt1 uni0E49.alt1 uni0E4A.alt1 uni0E4B.alt1 uni0E4C.alt1
 1
  SeqLookup: 0 'L019'
EndFPST
ChainSub: coverage 0 0 'liga' 0 0 0 1
 1 1 0

StartChar: .notdef
Encoding: 65536 -1 0
Width: 364
Flags: W
Fore
31 426 m 1,0,-1
 333 426 l 1,1,-1
 333 -107 l 1,2,-1
 31 -107 l 1,3,-1
 31 426 l 1,0,-1
299 -73 m 1,4,-1
 299 392 l 1,5,-1
 65 392 l 1,6,-1
 65 -73 l 1,7,-1
 299 -73 l 1,4,-1
EndSplineSet
EndChar
StartChar: exclam
Encoding: 33 33 4
Width: 364
Flags: W
Fore
221 83 m 1,0,-1
 221 0 l 1,1,-1
 142 0 l 1,2,-1
 142 83 l 1,3,-1
 221 83 l 1,0,-1
221 440 m 1,4,-1
 221 247 l 1,5,-1
 212 142 l 1,6,-1
 153 142 l 1,7,-1
 142 247 l 1,8,-1
 142 440 l 1,9,-1
 221 440 l 1,4,-1
EndSplineSet
EndChar
StartChar: quotedbl
Encoding: 34 34 5
Width: 364
Flags: W
Fore
295 277 m 1,0,-1
 219 277 l 1,1,-1
 219 440 l 1,2,-1
 295 440 l 1,3,-1
 295 277 l 1,0,-1
144 277 m 1,4,-1
 68 277 l 1,5,-1
 68 440 l 1,6,-1
 144 440 l 1,7,-1
 144 277 l 1,4,-1
EndSplineSet
EndChar
StartChar: numbersign
Encoding: 35 35 6
Width: 364
Flags: W
Fore
181 323 m 1,0,-1
 240 323 l 1,1,-1
 268 434 l 1,2,-1
 334 434 l 1,3,-1
 306 323 l 1,4,-1
 363 323 l 1,5,-1
 363 260 l 1,6,-1
 290 260 l 1,7,-1
 268 173 l 1,8,-1
 329 173 l 1,9,-1
 329 110 l 1,10,-1
 253 110 l 1,11,-1
 225 0 l 1,12,-1
 160 0 l 1,13,-1
 187 110 l 1,14,-1
 127 110 l 1,15,-1
 99 0 l 1,16,-1
 34 0 l 1,17,-1
 62 110 l 1,18,-1
 1 110 l 1,19,-1
 1 173 l 1,20,-1
 77 173 l 1,21,-1
 99 260 l 1,22,-1
 35 260 l 1,23,-1
 35 323 l 1,24,-1
 115 323 l 1,25,-1
 143 434 l 1,26,-1
 209 434 l 1,27,-1
 181 323 l 1,0,-1
164 260 m 1,28,-1
 142 173 l 1,29,-1
 203 173 l 1,30,-1
 225 260 l 1,31,-1
 164 260 l 1,28,-1
EndSplineSet
EndChar
StartChar: dollar
Encoding: 36 36 7
Width: 364
Flags: W
Fore
205 67 m 1,0,1
 224 69 224 69 234 81 c 128,-1,2
 244 93 244 93 244 111 c 0,3,4
 244 148 244 148 205 156 c 1,5,-1
 205 67 l 1,0,1
163 325 m 1,6,7
 126 319 126 319 126 285 c 0,8,9
 126 252 126 252 163 241 c 1,10,-1
 163 325 l 1,6,7
163 -89 m 1,11,-1
 163 0 l 1,12,13
 111 2 111 2 51 27 c 1,14,-1
 51 104 l 1,15,16
 81 87 81 87 109.5 77 c 128,-1,17
 138 67 138 67 163 67 c 1,18,-1
 163 164 l 1,19,20
 48 186 48 186 48 278 c 0,21,22
 48 328 48 328 78 356 c 0,23,24
 110 386 110 386 163 389 c 1,25,-1
 163 459 l 1,26,-1
 205 459 l 1,27,-1
 205 389 l 1,28,29
 245 388 245 388 295 372 c 1,30,-1
 295 297 l 1,31,32
 256 321 256 321 205 325 c 1,33,-1
 205 234 l 1,34,35
 322 216 322 216 322 113 c 0,36,37
 322 63 322 63 290 34 c 0,38,39
 259 3 259 3 205 0 c 1,40,-1
 205 -89 l 1,41,-1
 163 -89 l 1,11,-1
EndSplineSet
EndChar
StartChar: percent
Encoding: 37 37 8
Width: 364
Flags: W
Fore
10 328 m 256,0,1
 10 368 10 368 37 395 c 256,2,3
 64 422 64 422 104 422 c 0,4,5
 143 422 143 422 171 395 c 0,6,7
 198 367 198 367 198 328 c 0,8,9
 198 290 198 290 171 261 c 0,10,11
 143 234 143 234 104 234 c 0,12,13
 64 234 64 234 37 261 c 256,14,15
 10 288 10 288 10 328 c 256,0,1
104 368 m 0,16,17
 86 368 86 368 75 357 c 0,18,19
 63 345 63 345 63 328 c 256,20,21
 63 311 63 311 75 299 c 0,22,23
 86 288 86 288 104 288 c 256,24,25
 122 288 122 288 132 299 c 0,26,27
 144 311 144 311 144 328 c 256,28,29
 144 345 144 345 132 357 c 0,30,31
 121 368 121 368 104 368 c 0,16,17
333 289 m 1,32,-1
 345 260 l 1,33,-1
 36 137 l 1,34,-1
 25 165 l 1,35,-1
 333 289 l 1,32,-1
171 94 m 256,36,37
 171 134 171 134 198 161 c 0,38,39
 228 189 228 189 265 189 c 256,40,41
 302 189 302 189 332 161 c 0,42,43
 360 131 360 131 360 94 c 256,44,45
 360 57 360 57 332 27 c 0,46,47
 304 0 304 0 265 0 c 0,48,49
 227 0 227 0 198 27 c 0,50,51
 171 54 171 54 171 94 c 256,36,37
265 135 m 256,52,53
 248 135 248 135 236 123 c 0,54,55
 225 110 225 110 225 94 c 256,56,57
 225 78 225 78 236 65 c 1,58,59
 249 54 249 54 265 54 c 256,60,61
 281 54 281 54 294 65 c 1,62,63
 306 79 306 79 306 94 c 256,64,65
 306 109 306 109 294 123 c 0,66,67
 282 135 282 135 265 135 c 256,52,53
EndSplineSet
EndChar
StartChar: ampersand
Encoding: 38 38 9
Width: 364
Flags: W
Fore
257 21 m 1,0,1
 212 -9 212 -9 159 -9 c 0,2,3
 93 -9 93 -9 52 30 c 0,4,5
 11 68 11 68 11 130 c 0,6,7
 11 218 11 218 94 269 c 1,8,9
 65 314 65 314 65 349 c 0,10,11
 65 397 65 397 97 422.5 c 128,-1,12
 129 448 129 448 190 448 c 0,13,14
 233 448 233 448 273 436 c 1,15,-1
 273 360 l 1,16,17
 234 382 234 382 196 382 c 0,18,19
 148 382 148 382 148 349 c 0,20,21
 148 338 148 338 157 320 c 128,-1,22
 166 302 166 302 186 271 c 2,23,-1
 278 130 l 1,24,25
 291 152 291 152 291 187 c 0,26,27
 291 196 291 196 290.5 204 c 128,-1,28
 290 212 290 212 289 220 c 1,29,-1
 358 220 l 1,30,-1
 358 205 l 2,31,32
 358 121 358 121 317 73 c 1,33,-1
 364 0 l 1,34,-1
 271 0 l 1,35,-1
 257 21 l 1,36,-1
 257 21 l 1,0,1
130 216 m 1,37,38
 91 191 91 191 91 146 c 0,39,40
 91 109 91 109 114 86 c 0,41,42
 136 61 136 61 171 61 c 0,43,44
 187 61 187 61 204 68 c 1,45,46
 205 69 205 69 205.5 69 c 128,-1,47
 206 69 206 69 207 70 c 1,48,49
 211 72 211 72 214.5 73.5 c 128,-1,50
 218 75 218 75 221 77 c 1,51,-1
 130 216 l 1,52,-1
 130 216 l 1,37,38
EndSplineSet
EndChar
StartChar: quotesingle
Encoding: 39 39 10
Width: 364
Flags: W
Fore
219 277 m 1,0,-1
 144 277 l 1,1,-1
 144 440 l 1,2,-1
 219 440 l 1,3,-1
 219 277 l 1,0,-1
EndSplineSet
EndChar
StartChar: parenleft
Encoding: 40 40 11
Width: 364
Flags: W
Fore
273 458 m 1,0,1
 234 387 234 387 215 321.5 c 128,-1,2
 196 256 196 256 196 190 c 256,3,4
 196 124 196 124 215 58 c 128,-1,5
 234 -8 234 -8 273 -80 c 1,6,-1
 205 -80 l 1,7,8
 158 -11 158 -11 135.5 55 c 128,-1,9
 113 121 113 121 113 190 c 0,10,11
 113 326 113 326 205 458 c 1,12,-1
 273 458 l 1,13,-1
 273 458 l 1,0,1
EndSplineSet
EndChar
StartChar: parenright
Encoding: 41 41 12
Width: 364
Flags: W
Fore
158 458 m 1,0,1
 206 391 206 391 228.5 325 c 128,-1,2
 251 259 251 259 251 190 c 256,3,4
 251 121 251 121 228.5 55 c 128,-1,5
 206 -11 206 -11 158 -80 c 1,6,-1
 91 -80 l 1,7,8
 130 -8 130 -8 149 58 c 128,-1,9
 168 124 168 124 168 190 c 256,10,11
 168 256 168 256 149 321.5 c 128,-1,12
 130 387 130 387 91 458 c 1,13,-1
 158 458 l 1,0,1
EndSplineSet
EndChar
StartChar: asterisk
Encoding: 42 42 13
Width: 364
Flags: W
Fore
230 308 m 1,0,-1
 327 257 l 1,1,-1
 304 215 l 1,2,-1
 207 269 l 1,3,-1
 207 168 l 1,4,-1
 156 168 l 1,5,-1
 156 269 l 1,6,-1
 58 215 l 1,7,-1
 36 257 l 1,8,-1
 134 308 l 1,9,-1
 36 359 l 1,10,-1
 58 401 l 1,11,-1
 156 347 l 1,12,-1
 156 448 l 1,13,-1
 207 448 l 1,14,-1
 207 347 l 1,15,-1
 304 401 l 1,16,-1
 327 359 l 1,17,-1
 230 308 l 1,0,-1
EndSplineSet
EndChar
StartChar: plus
Encoding: 43 43 14
Width: 364
Flags: W
Fore
217 225 m 1,0,-1
 344 225 l 1,1,-1
 344 155 l 1,2,-1
 217 155 l 1,3,-1
 217 27 l 1,4,-1
 147 27 l 1,5,-1
 147 155 l 1,6,-1
 19 155 l 1,7,-1
 19 225 l 1,8,-1
 147 225 l 1,9,-1
 147 352 l 1,10,-1
 217 352 l 1,11,-1
 217 225 l 1,0,-1
EndSplineSet
EndChar
StartChar: comma
Encoding: 44 44 15
Width: 364
Flags: W
Fore
228 108 m 1,0,-1
 228 28 l 1,1,-1
 171 -85 l 1,2,-1
 107 -85 l 1,3,-1
 136 28 l 1,4,-1
 136 108 l 1,5,-1
 228 108 l 1,0,-1
EndSplineSet
EndChar
StartChar: hyphen
Encoding: 45 45 16
Width: 364
Flags: W
Fore
275 217 m 1,0,-1
 275 131 l 1,1,-1
 89 131 l 1,2,-1
 89 217 l 1,3,-1
 275 217 l 1,0,-1
EndSplineSet
EndChar
StartChar: period
Encoding: 46 46 17
Width: 364
Flags: W
Fore
231 108 m 1,0,-1
 231 0 l 1,1,-1
 132 0 l 1,2,-1
 132 108 l 1,3,-1
 231 108 l 1,0,-1
EndSplineSet
EndChar
StartChar: slash
Encoding: 47 47 18
Width: 364
Flags: W
Fore
330 440 m 1,0,-1
 99 -56 l 1,1,-1
 33 -56 l 1,2,-1
 265 440 l 1,3,-1
 330 440 l 1,0,-1
EndSplineSet
EndChar
StartChar: zero
Encoding: 48 48 19
Width: 364
Flags: W
Fore
145 220 m 256,0,1
 145 235 145 235 156 246 c 256,2,3
 167 257 167 257 182 257 c 256,4,5
 197 257 197 257 208 246 c 256,6,7
 219 235 219 235 219 220 c 256,8,9
 219 205 219 205 208 194 c 256,10,11
 197 183 197 183 182 183 c 256,12,13
 167 183 167 183 156 194 c 256,14,15
 145 205 145 205 145 220 c 256,0,1
182 375 m 256,16,17
 152 375 152 375 138 338 c 128,-1,18
 124 301 124 301 124 220 c 256,19,20
 124 139 124 139 138 102 c 128,-1,21
 152 65 152 65 182 65 c 256,22,23
 212 65 212 65 226 102 c 128,-1,24
 240 139 240 139 240 220 c 0,25,26
 240 299 240 299 226 338 c 0,27,28
 212 375 212 375 182 375 c 256,16,17
36 220 m 0,29,30
 36 448 36 448 182 448 c 0,31,32
 327 448 327 448 327 220 c 0,33,34
 327 -9 327 -9 182 -9 c 0,35,36
 36 -9 36 -9 36 220 c 0,29,30
EndSplineSet
EndChar
StartChar: one
Encoding: 49 49 20
Width: 364
Flags: W
Fore
153 77 m 1,0,-1
 153 363 l 1,1,-1
 62 340 l 1,2,-1
 62 419 l 1,3,-1
 153 440 l 1,4,-1
 237 440 l 1,5,-1
 237 77 l 1,6,-1
 335 77 l 1,7,-1
 335 0 l 1,8,-1
 55 0 l 1,9,-1
 55 77 l 1,10,-1
 153 77 l 1,0,-1
EndSplineSet
EndChar
StartChar: two
Encoding: 50 50 21
Width: 364
Flags: W
Fore
314 77 m 1,0,-1
 314 0 l 1,1,-1
 34 0 l 1,2,-1
 34 74 l 1,3,-1
 81 124 l 2,4,5
 165 214 165 214 183 235 c 0,6,7
 206 260 206 260 215.5 279.5 c 128,-1,8
 225 299 225 299 225 318 c 0,9,10
 225 348 225 348 207 364 c 128,-1,11
 189 380 189 380 156 380 c 0,12,13
 133 380 133 380 104 370.5 c 128,-1,14
 75 361 75 361 43 344 c 1,15,-1
 43 425 l 1,16,17
 109 448 109 448 163 448 c 0,18,19
 232 448 232 448 273 416 c 0,20,21
 313 383 313 383 313 327 c 0,22,23
 313 301 313 301 304 278 c 0,24,25
 296 255 296 255 274 228 c 0,26,27
 266 217 266 217 245 194.5 c 128,-1,28
 224 172 224 172 189 137 c 0,29,30
 169 118 169 118 154 103 c 128,-1,31
 139 88 139 88 128 77 c 1,32,-1
 314 77 l 1,0,-1
EndSplineSet
EndChar
StartChar: three
Encoding: 51 51 22
Width: 364
Flags: W
Fore
115 197 m 1,0,-1
 115 274 l 1,1,-1
 162 274 l 2,2,3
 194 274 194 274 212 287 c 128,-1,4
 230 300 230 300 230 323 c 0,5,6
 230 347 230 347 212 361 c 128,-1,7
 194 375 194 375 162 375 c 0,8,9
 114 375 114 375 50 350 c 1,10,-1
 50 430 l 1,11,12
 112 448 112 448 167 448 c 0,13,14
 236 448 236 448 275 418 c 256,15,16
 314 388 314 388 314 334 c 0,17,18
 314 295 314 295 292 270 c 128,-1,19
 270 245 270 245 228 237 c 1,20,21
 276 229 276 229 300.5 200 c 128,-1,22
 325 171 325 171 325 123 c 0,23,24
 325 58 325 58 283.5 24.5 c 128,-1,25
 242 -9 242 -9 164 -9 c 0,26,27
 98 -9 98 -9 37 13 c 1,28,-1
 37 94 l 1,29,30
 95 66 95 66 164 66 c 0,31,32
 200 66 200 66 220.5 82 c 128,-1,33
 241 98 241 98 241 126 c 0,34,35
 241 160 241 160 220.5 178.5 c 128,-1,36
 200 197 200 197 162 197 c 2,37,-1
 115 197 l 1,0,-1
EndSplineSet
EndChar
StartChar: four
Encoding: 52 52 23
Width: 364
Flags: W
Fore
94 170 m 1,0,-1
 205 170 l 1,1,-1
 205 344 l 1,2,-1
 94 170 l 1,0,-1
288 440 m 1,3,-1
 288 170 l 1,4,-1
 337 170 l 1,5,-1
 337 95 l 1,6,-1
 288 95 l 1,7,-1
 288 0 l 1,8,-1
 205 0 l 1,9,-1
 205 95 l 1,10,-1
 30 95 l 1,11,-1
 30 179 l 1,12,-1
 197 440 l 1,13,-1
 288 440 l 1,3,-1
EndSplineSet
EndChar
StartChar: five
Encoding: 53 53 24
Width: 364
Flags: W
Fore
296 440 m 1,0,-1
 296 364 l 1,1,-1
 127 364 l 1,2,-1
 127 282 l 1,3,4
 147 290 147 290 176 290 c 0,5,6
 241 290 241 290 282 249 c 0,7,8
 323 206 323 206 323 141 c 0,9,10
 323 71 323 71 278 32 c 0,11,12
 234 -9 234 -9 158 -9 c 0,13,14
 130 -9 130 -9 101 -4 c 128,-1,15
 72 1 72 1 42 10 c 1,16,-1
 42 89 l 1,17,18
 92 65 92 65 144 65 c 0,19,20
 238 65 238 65 238 141 c 0,21,22
 238 177 238 177 214 196 c 0,23,24
 192 217 192 217 151 217 c 0,25,26
 103 217 103 217 57 194 c 1,27,-1
 57 440 l 1,28,-1
 296 440 l 1,0,-1
EndSplineSet
EndChar
StartChar: six
Encoding: 54 54 25
Width: 364
Flags: W
Fore
190 221 m 0,0,1
 132 221 132 221 132 141 c 256,2,3
 132 61 132 61 190 61 c 256,4,5
 248 61 248 61 248 141 c 0,6,7
 248 179 248 179 233 200 c 128,-1,8
 218 221 218 221 190 221 c 0,0,1
304 351 m 1,9,10
 258 378 258 378 218 378 c 0,11,12
 123 378 123 378 120 252 c 1,13,14
 149 291 149 291 207 291 c 0,15,16
 266 291 266 291 299 253 c 0,17,18
 331 215 331 215 331 146 c 0,19,20
 331 72 331 72 294 32 c 0,21,22
 259 -9 259 -9 192 -9 c 0,23,24
 111 -9 111 -9 75 45 c 256,25,26
 39 99 39 99 39 219 c 0,27,28
 39 448 39 448 217 448 c 0,29,30
 259 448 259 448 304 430 c 1,31,-1
 304 351 l 1,9,10
EndSplineSet
EndChar
StartChar: seven
Encoding: 55 55 26
Width: 364
Flags: W
Fore
318 440 m 1,0,-1
 318 379 l 1,1,-1
 169 0 l 1,2,-1
 80 0 l 1,3,-1
 224 364 l 1,4,-1
 40 364 l 1,5,-1
 40 440 l 1,6,-1
 318 440 l 1,0,-1
EndSplineSet
EndChar
StartChar: eight
Encoding: 56 56 27
Width: 364
Flags: W
Fore
182 196 m 256,0,1
 153 196 153 196 135 178 c 0,2,3
 117 161 117 161 117 129 c 0,4,5
 117 98 117 98 135 80 c 256,6,7
 153 62 153 62 182 62 c 256,8,9
 211 62 211 62 229 81 c 0,10,11
 247 99 247 99 247 129 c 0,12,13
 247 160 247 160 229 178 c 256,14,15
 211 196 211 196 182 196 c 256,0,1
117 233 m 1,16,17
 49 258 49 258 49 330 c 0,18,19
 49 384 49 384 85 417 c 0,20,21
 120 448 120 448 182 448 c 256,22,23
 244 448 244 448 279 417 c 0,24,25
 315 384 315 384 315 330 c 0,26,27
 315 258 315 258 248 233 c 1,28,29
 283 223 283 223 305 193 c 0,30,31
 326 165 326 165 326 124 c 0,32,33
 326 61 326 61 288 26 c 256,34,35
 250 -9 250 -9 182 -9 c 256,36,37
 114 -9 114 -9 76 26 c 0,38,39
 38 60 38 60 38 124 c 0,40,41
 38 165 38 165 59 193.5 c 128,-1,42
 80 222 80 222 117 233 c 1,16,17
126 323 m 256,43,44
 126 297 126 297 141 281.5 c 128,-1,45
 156 266 156 266 182 266 c 256,46,47
 208 266 208 266 222.5 281.5 c 128,-1,48
 237 297 237 297 237 323 c 256,49,50
 237 349 237 349 222.5 363.5 c 128,-1,51
 208 378 208 378 182 378 c 256,52,53
 156 378 156 378 141 363.5 c 128,-1,54
 126 349 126 349 126 323 c 256,43,44
EndSplineSet
EndChar
StartChar: nine
Encoding: 57 57 28
Width: 364
Flags: W
Fore
60 85 m 1,0,1
 105 59 105 59 146 59 c 0,2,3
 240 59 240 59 243 184 c 1,4,5
 217 146 217 146 157 146 c 0,6,7
 98 146 98 146 65 183 c 0,8,9
 33 221 33 221 33 290 c 0,10,11
 33 364 33 364 69 404 c 0,12,13
 105 445 105 445 172 445 c 0,14,15
 252 445 252 445 289 391 c 0,16,17
 325 337 325 337 325 217 c 0,18,19
 325 -12 325 -12 147 -12 c 0,20,21
 105 -12 105 -12 60 6 c 1,22,-1
 60 85 l 1,0,1
174 219 m 0,23,24
 232 219 232 219 232 299 c 0,25,26
 232 378 232 378 174 378 c 0,27,28
 115 378 115 378 115 299 c 0,29,30
 115 219 115 219 174 219 c 0,23,24
EndSplineSet
EndChar
StartChar: colon
Encoding: 58 58 29
Width: 364
Flags: W
Fore
231 314 m 1,0,-1
 231 206 l 1,1,-1
 132 206 l 1,2,-1
 132 314 l 1,3,-1
 231 314 l 1,0,-1
231 108 m 1,4,-1
 231 0 l 1,5,-1
 132 0 l 1,6,-1
 132 108 l 1,7,-1
 231 108 l 1,4,-1
EndSplineSet
EndChar
StartChar: semicolon
Encoding: 59 59 30
Width: 364
Flags: W
Fore
231 108 m 1,0,-1
 231 28 l 1,1,-1
 173 -85 l 1,2,-1
 109 -85 l 1,3,-1
 132 28 l 1,4,-1
 132 108 l 1,5,-1
 231 108 l 1,0,-1
231 314 m 1,6,-1
 231 206 l 1,7,-1
 132 206 l 1,8,-1
 132 314 l 1,9,-1
 231 314 l 1,6,-1
EndSplineSet
EndChar
StartChar: less
Encoding: 60 60 31
Width: 364
Flags: W
Fore
103 189 m 1,0,-1
 338 106 l 1,1,-1
 338 32 l 1,2,-1
 26 155 l 1,3,-1
 26 224 l 1,4,-1
 338 347 l 1,5,-1
 338 273 l 1,6,-1
 103 189 l 1,0,-1
EndSplineSet
EndChar
StartChar: equal
Encoding: 61 61 32
Width: 364
Flags: W
Fore
338 157 m 1,0,-1
 338 87 l 1,1,-1
 26 87 l 1,2,-1
 26 157 l 1,3,-1
 338 157 l 1,0,-1
338 291 m 1,4,-1
 338 222 l 1,5,-1
 26 222 l 1,6,-1
 26 291 l 1,7,-1
 338 291 l 1,4,-1
EndSplineSet
EndChar
StartChar: greater
Encoding: 62 62 33
Width: 364
Flags: W
Fore
26 347 m 1,0,-1
 338 224 l 1,1,-1
 338 155 l 1,2,-1
 26 32 l 1,3,-1
 26 106 l 1,4,-1
 260 189 l 1,5,-1
 26 273 l 1,6,-1
 26 347 l 1,0,-1
EndSplineSet
EndChar
StartChar: question
Encoding: 63 63 34
Width: 364
Flags: W
Fore
209 83 m 1,0,-1
 209 0 l 1,1,-1
 130 0 l 1,2,-1
 130 83 l 1,3,-1
 209 83 l 1,0,-1
130 118 m 1,4,-1
 130 164 l 2,5,6
 130 193 130 193 139 214 c 0,7,8
 149 235 149 235 172 257 c 2,9,-1
 198 283 l 2,10,11
 218 303 218 303 223 313 c 0,12,13
 230 324 230 324 230 338 c 0,14,15
 230 378 230 378 176 378 c 0,16,17
 151 378 151 378 124 367 c 128,-1,18
 97 356 97 356 69 336 c 1,19,-1
 69 415 l 1,20,21
 126 448 126 448 187 448 c 0,22,23
 247 448 247 448 280 421 c 0,24,25
 314 393 314 393 314 344 c 0,26,27
 314 321 314 321 304 302 c 0,28,29
 299 293 299 293 289.5 281.5 c 128,-1,30
 280 270 280 270 266 256 c 2,31,-1
 240 231 l 2,32,33
 222 213 222 213 215 199 c 0,34,35
 209 187 209 187 209 168 c 2,36,-1
 209 155 l 1,37,-1
 209 118 l 1,38,-1
 130 118 l 1,4,-1
EndSplineSet
EndChar
StartChar: at
Encoding: 64 64 35
Width: 364
Flags: W
Fore
287 161 m 0,0,1
 287 194 287 194 272 213 c 128,-1,2
 257 232 257 232 231 232 c 256,3,4
 205 232 205 232 190 213 c 128,-1,5
 175 194 175 194 175 161 c 0,6,7
 175 127 175 127 190 108 c 128,-1,8
 205 89 205 89 231 89 c 256,9,10
 257 89 257 89 272 108 c 128,-1,11
 287 127 287 127 287 161 c 0,0,1
284 40 m 1,12,-1
 284 64 l 1,13,14
 263 34 263 34 221 34 c 0,15,16
 172 34 172 34 143 69 c 0,17,18
 114 102 114 102 114 161 c 0,19,20
 114 219 114 219 143 252 c 0,21,22
 172 287 172 287 221 287 c 0,23,24
 264 287 264 287 284 259 c 1,25,-1
 284 271 l 2,26,27
 284 311 284 311 262.5 333 c 128,-1,28
 241 355 241 355 199 355 c 0,29,30
 138 355 138 355 99 301 c 256,31,32
 60 247 60 247 60 160 c 0,33,34
 60 72 60 72 105 16 c 0,35,36
 149 -37 149 -37 225 -37 c 0,37,38
 273 -37 273 -37 313 -10 c 1,39,-1
 340 -62 l 1,40,41
 291 -94 291 -94 228 -94 c 0,42,43
 125 -94 125 -94 63 -25 c 0,44,45
 2 42 2 42 2 160 c 0,46,47
 2 275 2 275 57 343 c 0,48,49
 113 412 113 412 203 412 c 0,50,51
 268 412 268 412 304 373 c 0,52,53
 342 335 342 335 342 267 c 2,54,-1
 342 40 l 1,55,-1
 284 40 l 1,12,-1
EndSplineSet
EndChar
StartChar: A
Encoding: 65 65 36
Width: 364
Flags: W
Fore
141 181 m 1,0,-1
 223 181 l 1,1,-1
 182 361 l 1,2,-1
 141 181 l 1,0,-1
235 440 m 1,3,-1
 354 0 l 1,4,-1
 267 0 l 1,5,-1
 240 109 l 1,6,-1
 123 109 l 1,7,-1
 97 0 l 1,8,-1
 10 0 l 1,9,-1
 129 440 l 1,10,-1
 235 440 l 1,3,-1
EndSplineSet
KernsSLIFO: 57 -50 0 0
EndChar
StartChar: B
Encoding: 66 66 37
Width: 364
Flags: W
Fore
121 70 m 1,0,-1
 179 70 l 2,1,2
 222 70 222 70 237 84 c 0,3,4
 254 98 254 98 254 133 c 0,5,6
 254 169 254 169 236.5 184.5 c 128,-1,7
 219 200 219 200 179 200 c 2,8,-1
 121 200 l 1,9,-1
 121 70 l 1,0,-1
121 269 m 1,10,-1
 179 269 l 2,11,12
 212 269 212 269 226 281 c 128,-1,13
 240 293 240 293 240 320 c 256,14,15
 240 347 240 347 225.5 359.5 c 128,-1,16
 211 372 211 372 179 372 c 2,17,-1
 121 372 l 1,18,-1
 121 269 l 1,10,-1
179 441 m 2,19,20
 326 441 326 441 326 330 c 0,21,22
 326 244 326 244 240 236 c 1,23,24
 342 226 342 226 342 121 c 0,25,26
 342 58 342 58 304 29 c 256,27,28
 266 0 266 0 179 0 c 2,29,-1
 37 0 l 1,30,-1
 37 441 l 1,31,-1
 179 441 l 2,19,20
EndSplineSet
EndChar
StartChar: C
Encoding: 67 67 38
Width: 364
Flags: W
Fore
319 13 m 1,0,1
 275 -9 275 -9 228 -9 c 0,2,3
 139 -9 139 -9 92 50 c 0,4,5
 45 107 45 107 45 220 c 0,6,7
 45 332 45 332 91.5 390 c 128,-1,8
 138 448 138 448 228 448 c 0,9,10
 279 448 279 448 319 427 c 1,11,-1
 319 330 l 1,12,13
 296 351 296 351 275.5 360.5 c 128,-1,14
 255 370 255 370 232 370 c 0,15,16
 135 370 135 370 135 220 c 256,17,18
 135 70 135 70 232 70 c 0,19,20
 276 70 276 70 319 109 c 1,21,-1
 319 13 l 1,22,-1
 319 13 l 1,0,1
EndSplineSet
EndChar
StartChar: D
Encoding: 68 68 39
Width: 364
Flags: W
Fore
127 78 m 1,0,-1
 151 78 l 2,1,2
 203 78 203 78 224 111 c 0,3,4
 246 142 246 142 246 221 c 0,5,6
 246 298 246 298 224 330 c 0,7,8
 203 362 203 362 151 362 c 2,9,-1
 127 362 l 1,10,-1
 127 78 l 1,0,-1
134 440 m 2,11,12
 243 440 243 440 289 389 c 0,13,14
 337 338 337 338 337 221 c 0,15,16
 337 103 337 103 289 52 c 0,17,18
 243 0 243 0 134 0 c 2,19,-1
 40 0 l 1,20,-1
 40 440 l 1,21,-1
 134 440 l 2,11,12
EndSplineSet
EndChar
StartChar: E
Encoding: 69 69 40
Width: 364
Flags: W
Fore
50 0 m 1,0,-1
 50 440 l 1,1,-1
 324 440 l 1,2,-1
 324 364 l 1,3,-1
 137 364 l 1,4,-1
 137 269 l 1,5,-1
 306 269 l 1,6,-1
 306 192 l 1,7,-1
 137 192 l 1,8,-1
 137 77 l 1,9,-1
 324 77 l 1,10,-1
 324 0 l 1,11,-1
 50 0 l 1,0,-1
EndSplineSet
EndChar
StartChar: F
Encoding: 70 70 41
Width: 364
Flags: W
Fore
141 364 m 1,0,-1
 141 269 l 1,1,-1
 311 269 l 1,2,-1
 311 192 l 1,3,-1
 141 192 l 1,4,-1
 141 0 l 1,5,-1
 54 0 l 1,6,-1
 54 440 l 1,7,-1
 328 440 l 1,8,-1
 328 364 l 1,9,-1
 141 364 l 1,0,-1
EndSplineSet
EndChar
StartChar: G
Encoding: 71 71 42
Width: 364
Flags: W
Fore
257 164 m 1,0,-1
 198 164 l 1,1,-1
 198 237 l 1,2,-1
 333 237 l 1,3,-1
 333 35 l 1,4,5
 283 -9 283 -9 213 -9 c 0,6,7
 128 -9 128 -9 81 51 c 0,8,9
 35 110 35 110 35 220 c 0,10,11
 35 331 35 331 81 390 c 0,12,13
 129 448 129 448 217 448 c 0,14,15
 272 448 272 448 318 419 c 1,16,-1
 318 323 l 1,17,18
 280 370 280 370 224 370 c 0,19,20
 125 370 125 370 125 220 c 0,21,22
 125 146 125 146 148.5 108 c 128,-1,23
 172 70 172 70 217 70 c 0,24,25
 246 70 246 70 257 80 c 1,26,-1
 257 164 l 1,0,-1
EndSplineSet
EndChar
StartChar: H
Encoding: 72 72 43
Width: 364
Flags: W
Fore
127 440 m 1,0,-1
 127 273 l 1,1,-1
 236 273 l 1,2,-1
 236 440 l 1,3,-1
 323 440 l 1,4,-1
 323 0 l 1,5,-1
 236 0 l 1,6,-1
 236 196 l 1,7,-1
 127 196 l 1,8,-1
 127 0 l 1,9,-1
 40 0 l 1,10,-1
 40 440 l 1,11,-1
 127 440 l 1,0,-1
EndSplineSet
EndChar
StartChar: I
Encoding: 73 73 44
Width: 364
Flags: W
Fore
51 440 m 1,0,-1
 313 440 l 1,1,-1
 313 364 l 1,2,-1
 225 364 l 1,3,-1
 225 77 l 1,4,-1
 313 77 l 1,5,-1
 313 0 l 1,6,-1
 51 0 l 1,7,-1
 51 77 l 1,8,-1
 138 77 l 1,9,-1
 138 364 l 1,10,-1
 51 364 l 1,11,-1
 51 440 l 1,0,-1
EndSplineSet
EndChar
StartChar: J
Encoding: 74 74 45
Width: 364
Flags: W
Fore
32 123 m 1,0,1
 83 70 83 70 144 70 c 0,2,3
 179 70 179 70 194.5 86.5 c 128,-1,4
 210 103 210 103 210 141 c 2,5,-1
 210 364 l 1,6,-1
 104 364 l 1,7,-1
 104 440 l 1,8,-1
 297 440 l 1,9,-1
 297 141 l 2,10,11
 297 60 297 60 263 26 c 0,12,13
 230 -9 230 -9 152 -9 c 0,14,15
 96 -9 96 -9 32 22 c 1,16,-1
 32 123 l 1,0,1
EndSplineSet
EndChar
StartChar: K
Encoding: 75 75 46
Width: 364
Flags: W
Fore
122 440 m 1,0,-1
 122 266 l 1,1,-1
 258 440 l 1,2,-1
 356 440 l 1,3,-1
 217 267 l 1,4,-1
 361 0 l 1,5,-1
 265 0 l 1,6,-1
 160 198 l 1,7,-1
 122 149 l 1,8,-1
 122 0 l 1,9,-1
 35 0 l 1,10,-1
 35 440 l 1,11,-1
 122 440 l 1,0,-1
EndSplineSet
EndChar
StartChar: L
Encoding: 76 76 47
Width: 364
Flags: W
Fore
66 440 m 1,0,-1
 153 440 l 1,1,-1
 153 77 l 1,2,-1
 340 77 l 1,3,-1
 340 0 l 1,4,-1
 66 0 l 1,5,-1
 66 440 l 1,0,-1
EndSplineSet
EndChar
StartChar: M
Encoding: 77 77 48
Width: 364
Flags: W
Fore
129 440 m 1,0,-1
 182 247 l 1,1,-1
 234 440 l 1,2,-1
 338 440 l 1,3,-1
 338 0 l 1,4,-1
 263 0 l 1,5,-1
 263 353 l 1,6,-1
 217 160 l 1,7,-1
 148 160 l 1,8,-1
 100 353 l 1,9,-1
 100 0 l 1,10,-1
 25 0 l 1,11,-1
 25 440 l 1,12,-1
 129 440 l 1,0,-1
EndSplineSet
EndChar
StartChar: N
Encoding: 78 78 49
Width: 364
Flags: W
Fore
129 440 m 1,0,-1
 251 120 l 1,1,-1
 251 440 l 1,2,-1
 328 440 l 1,3,-1
 328 0 l 1,4,-1
 235 0 l 1,5,-1
 112 320 l 1,6,-1
 112 0 l 1,7,-1
 35 0 l 1,8,-1
 35 440 l 1,9,-1
 129 440 l 1,0,-1
EndSplineSet
EndChar
StartChar: O
Encoding: 79 79 50
Width: 364
Flags: W
Fore
182 370 m 0,0,1
 148 370 148 370 133 335 c 0,2,3
 118 299 118 299 118 220 c 256,4,5
 118 141 118 141 133 105 c 0,6,7
 148 70 148 70 182 70 c 0,8,9
 215 70 215 70 231 105 c 0,10,11
 246 141 246 141 246 220 c 256,12,13
 246 299 246 299 231 335 c 0,14,15
 214 370 214 370 182 370 c 0,0,1
27 220 m 0,16,17
 27 448 27 448 182 448 c 256,18,19
 337 448 337 448 337 220 c 0,20,21
 337 107 337 107 298 49 c 128,-1,22
 259 -9 259 -9 182 -9 c 256,23,24
 105 -9 105 -9 66 49 c 128,-1,25
 27 107 27 107 27 220 c 0,16,17
EndSplineSet
EndChar
StartChar: P
Encoding: 80 80 51
Width: 364
Flags: W
Fore
135 238 m 1,0,-1
 171 238 l 2,1,2
 214 238 214 238 230 253 c 0,3,4
 248 267 248 267 248 303 c 0,5,6
 248 338 248 338 230 353 c 0,7,8
 215 367 215 367 171 367 c 2,9,-1
 135 367 l 1,10,-1
 135 238 l 1,0,-1
167 440 m 2,11,12
 260 440 260 440 298 408 c 0,13,14
 338 375 338 375 338 303 c 0,15,16
 338 230 338 230 298 197 c 0,17,18
 258 165 258 165 167 165 c 2,19,-1
 135 165 l 1,20,-1
 135 0 l 1,21,-1
 48 0 l 1,22,-1
 48 440 l 1,23,-1
 167 440 l 2,11,12
EndSplineSet
EndChar
StartChar: Q
Encoding: 81 81 52
Width: 364
Flags: W
Fore
194 -7 m 1,0,1
 189 -8 189 -8 186.5 -8.5 c 128,-1,2
 184 -9 184 -9 181 -9 c 0,3,4
 105 -9 105 -9 66 49 c 128,-1,5
 27 107 27 107 27 220 c 0,6,7
 27 448 27 448 182 448 c 256,8,9
 337 448 337 448 337 220 c 0,10,11
 337 142 337 142 318 90 c 128,-1,12
 299 38 299 38 264 15 c 1,13,-1
 319 -39 l 1,14,-1
 259 -83 l 1,15,-1
 194 -7 l 1,16,-1
 194 -7 l 1,0,1
182 370 m 0,17,18
 148 370 148 370 133 335 c 0,19,20
 118 299 118 299 118 220 c 256,21,22
 118 141 118 141 133 105 c 0,23,24
 148 70 148 70 182 70 c 0,25,26
 215 70 215 70 231 105 c 0,27,28
 246 141 246 141 246 220 c 256,29,30
 246 299 246 299 231 335 c 0,31,32
 214 370 214 370 182 370 c 0,17,18
EndSplineSet
EndChar
StartChar: R
Encoding: 82 82 53
Width: 364
Flags: W
Fore
238 208 m 1,0,1
 251 205 251 205 260 196 c 0,2,3
 271 185 271 185 284 158 c 2,4,-1
 364 0 l 1,5,-1
 268 0 l 1,6,-1
 215 111 l 1,7,8
 213 118 213 118 209 124 c 0,9,10
 185 174 185 174 154 174 c 2,11,-1
 126 174 l 1,12,-1
 126 0 l 1,13,-1
 39 0 l 1,14,-1
 39 440 l 1,15,-1
 165 440 l 2,16,17
 250 440 250 440 287 410 c 256,18,19
 324 380 324 380 324 312 c 0,20,21
 324 267 324 267 302 240 c 128,-1,22
 280 213 280 213 238 208 c 1,0,1
126 247 m 1,23,-1
 167 247 l 2,24,25
 203 247 203 247 218.5 261 c 128,-1,26
 234 275 234 275 234 307 c 256,27,28
 234 339 234 339 218.5 353 c 128,-1,29
 203 367 203 367 167 367 c 2,30,-1
 126 367 l 1,31,-1
 126 247 l 1,23,-1
EndSplineSet
EndChar
StartChar: S
Encoding: 83 83 54
Width: 364
Flags: W
Fore
150 193 m 1,0,1
 84 218 84 218 61 246 c 256,2,3
 38 274 38 274 38 320 c 0,4,5
 38 379 38 379 76 414 c 0,6,7
 114 448 114 448 182 448 c 0,8,9
 243 448 243 448 303 421 c 1,10,-1
 303 336 l 1,11,12
 245 376 245 376 189 376 c 0,13,14
 123 376 123 376 123 327 c 0,15,16
 123 309 123 309 135 297 c 0,17,18
 147 286 147 286 187 271 c 2,19,-1
 224 257 l 2,20,21
 278 237 278 237 302.5 205 c 128,-1,22
 327 173 327 173 327 124 c 0,23,24
 327 -9 327 -9 169 -9 c 0,25,26
 104 -9 104 -9 40 22 c 1,27,-1
 40 112 l 1,28,29
 108 63 108 63 172 63 c 0,30,31
 204 63 204 63 221.5 78 c 128,-1,32
 239 93 239 93 239 119 c 0,33,34
 239 159 239 159 193 177 c 2,35,-1
 150 193 l 1,36,-1
 150 193 l 1,0,1
EndSplineSet
EndChar
StartChar: T
Encoding: 84 84 55
Width: 364
Flags: W
Fore
138 0 m 1,0,-1
 138 364 l 1,1,-1
 27 364 l 1,2,-1
 27 440 l 1,3,-1
 337 440 l 1,4,-1
 337 364 l 1,5,-1
 225 364 l 1,6,-1
 225 0 l 1,7,-1
 138 0 l 1,0,-1
EndSplineSet
EndChar
StartChar: U
Encoding: 85 85 56
Width: 364
Flags: W
Fore
31 440 m 1,0,-1
 118 440 l 1,1,-1
 118 141 l 2,2,3
 118 108 118 108 135 89 c 128,-1,4
 152 70 152 70 182 70 c 256,5,6
 212 70 212 70 228.5 89 c 128,-1,7
 245 108 245 108 245 141 c 2,8,-1
 245 440 l 1,9,-1
 332 440 l 1,10,-1
 332 163 l 2,11,12
 332 73 332 73 296 32 c 0,13,14
 261 -9 261 -9 182 -9 c 256,15,16
 103 -9 103 -9 67 32 c 256,17,18
 31 73 31 73 31 163 c 2,19,-1
 31 440 l 1,0,-1
EndSplineSet
EndChar
StartChar: V
Encoding: 86 86 57
Width: 364
Flags: W
Fore
259 440 m 1,0,-1
 347 440 l 1,1,-1
 242 0 l 1,2,-1
 122 0 l 1,3,-1
 17 440 l 1,4,-1
 104 440 l 1,5,-1
 182 73 l 1,6,-1
 259 440 l 1,0,-1
EndSplineSet
KernsSLIFO: 36 -50 0 0
EndChar
StartChar: W
Encoding: 87 87 58
Width: 364
Flags: W
Fore
76 440 m 1,0,-1
 108 117 l 1,1,-1
 146 326 l 1,2,-1
 218 326 l 1,3,-1
 262 117 l 1,4,-1
 287 440 l 1,5,-1
 364 440 l 1,6,-1
 313 0 l 1,7,-1
 232 0 l 1,8,-1
 182 231 l 1,9,-1
 135 0 l 1,10,-1
 54 0 l 1,11,-1
 0 440 l 1,12,-1
 76 440 l 1,0,-1
EndSplineSet
EndChar
StartChar: X
Encoding: 88 88 59
Width: 364
Flags: W
Fore
266 0 m 1,0,-1
 182 146 l 1,1,-1
 98 0 l 1,2,-1
 8 0 l 1,3,-1
 137 224 l 1,4,-1
 12 440 l 1,5,-1
 101 440 l 1,6,-1
 182 300 l 1,7,-1
 262 440 l 1,8,-1
 352 440 l 1,9,-1
 227 224 l 1,10,-1
 356 0 l 1,11,-1
 266 0 l 1,0,-1
EndSplineSet
EndChar
StartChar: Y
Encoding: 89 89 60
Width: 364
Flags: W
Fore
96 440 m 1,0,-1
 182 263 l 1,1,-1
 268 440 l 1,2,-1
 361 440 l 1,3,-1
 225 173 l 1,4,-1
 225 0 l 1,5,-1
 138 0 l 1,6,-1
 138 173 l 1,7,-1
 2 440 l 1,8,-1
 96 440 l 1,0,-1
EndSplineSet
EndChar
StartChar: Z
Encoding: 90 90 61
Width: 364
Flags: W
Fore
338 440 m 1,0,-1
 338 368 l 1,1,-1
 134 77 l 1,2,-1
 342 77 l 1,3,-1
 342 0 l 1,4,-1
 34 0 l 1,5,-1
 34 72 l 1,6,-1
 232 364 l 1,7,-1
 40 364 l 1,8,-1
 40 440 l 1,9,-1
 338 440 l 1,0,-1
EndSplineSet
EndChar
StartChar: bracketleft
Encoding: 91 91 62
Width: 364
Flags: W
Fore
274 459 m 1,0,-1
 274 403 l 1,1,-1
 203 403 l 1,2,-1
 203 -24 l 1,3,-1
 274 -24 l 1,4,-1
 274 -80 l 1,5,-1
 124 -80 l 1,6,-1
 124 459 l 1,7,-1
 274 459 l 1,0,-1
EndSplineSet
EndChar
StartChar: backslash
Encoding: 92 92 63
Width: 364
Flags: W
Fore
330 -56 m 1,0,-1
 265 -56 l 1,1,-1
 33 440 l 1,2,-1
 99 440 l 1,3,-1
 330 -56 l 1,0,-1
EndSplineSet
EndChar
StartChar: bracketright
Encoding: 93 93 64
Width: 364
Flags: W
Fore
239 -80 m 1,0,-1
 89 -80 l 1,1,-1
 89 -24 l 1,2,-1
 161 -24 l 1,3,-1
 161 403 l 1,4,-1
 89 403 l 1,5,-1
 89 459 l 1,6,-1
 239 459 l 1,7,-1
 239 -80 l 1,0,-1
EndSplineSet
EndChar
StartChar: asciicircum
Encoding: 94 94 65
Width: 364
Flags: W
Fore
347 276 m 1,0,-1
 276 276 l 1,1,-1
 182 365 l 1,2,-1
 88 276 l 1,3,-1
 17 276 l 1,4,-1
 146 440 l 1,5,-1
 218 440 l 1,6,-1
 347 276 l 1,0,-1
EndSplineSet
EndChar
StartChar: underscore
Encoding: 95 95 66
Width: 364
Flags: W
Fore
364 -142 m 1,0,-1
 0 -142 l 1,1,-1
 0 -86 l 1,2,-1
 364 -86 l 1,3,-1
 364 -142 l 1,0,-1
EndSplineSet
EndChar
StartChar: grave
Encoding: 96 96 67
Width: 364
Flags: W
Fore
225 372 m 1,0,-1
 167 372 l 1,1,-1
 59 483 l 1,2,-1
 142 483 l 1,3,-1
 225 372 l 1,0,-1
EndSplineSet
EndChar
StartChar: a
Encoding: 97 97 68
Width: 364
Flags: W
Fore
207 155 m 1,0,1
 159 155 159 155 139 143 c 0,2,3
 120 131 120 131 120 100 c 0,4,5
 120 78 120 78 133 64.5 c 128,-1,6
 146 51 146 51 169 51 c 0,7,8
 204 51 204 51 222.5 77 c 128,-1,9
 241 103 241 103 241 149 c 2,10,-1
 241 155 l 1,11,-1
 207 155 l 1,12,-1
 207 155 l 1,0,1
327 0 m 1,13,-1
 241 0 l 1,14,-1
 241 37 l 1,15,16
 225 15 225 15 200.5 3 c 128,-1,17
 176 -9 176 -9 147 -9 c 0,18,19
 91 -9 91 -9 59 21 c 0,20,21
 28 51 28 51 28 104 c 0,22,23
 28 162 28 162 65 189.5 c 128,-1,24
 102 217 102 217 181 217 c 2,25,-1
 241 217 l 1,26,-1
 241 232 l 2,27,28
 241 274 241 274 181 274 c 0,29,30
 150 274 150 274 121 266.5 c 128,-1,31
 92 259 92 259 60 242 c 1,32,-1
 60 315 l 1,33,34
 116 338 116 338 181 338 c 0,35,36
 262 338 262 338 294 306 c 0,37,38
 327 273 327 273 327 189 c 2,39,-1
 327 0 l 1,13,-1
EndSplineSet
Substitution: 0 65534 'L019' uni0E38
Substitution: 0 65534 'L019' uni0E38
EndChar
StartChar: b
Encoding: 98 98 69
Width: 364
Flags: W
Fore
251 164 m 256,0,1
 251 212 251 212 235 239 c 128,-1,2
 219 266 219 266 191 266 c 0,3,4
 164 266 164 266 147 239 c 0,5,6
 130 211 130 211 130 164 c 256,7,8
 130 117 130 117 147 89 c 0,9,10
 164 62 164 62 191 62 c 0,11,12
 219 62 219 62 235 89 c 128,-1,13
 251 116 251 116 251 164 c 256,0,1
130 283 m 1,14,15
 163 338 163 338 215 338 c 0,16,17
 273 338 273 338 305 294 c 256,18,19
 337 250 337 250 337 165 c 0,20,21
 337 81 337 81 306 37 c 0,22,23
 275 -9 275 -9 218 -9 c 0,24,25
 157 -9 157 -9 130 49 c 1,26,-1
 130 0 l 1,27,-1
 44 0 l 1,28,-1
 44 459 l 1,29,-1
 130 459 l 1,30,-1
 130 283 l 1,31,-1
 130 283 l 1,14,15
EndSplineSet
Substitution: 0 65534 'L019' uni0E39
Substitution: 0 65534 'L019' uni0E39
EndChar
StartChar: c
Encoding: 99 99 70
Width: 364
Flags: W
Fore
313 17 m 1,0,1
 269 -9 269 -9 212 -9 c 0,2,3
 136 -9 136 -9 93 37 c 256,4,5
 50 83 50 83 50 165 c 256,6,7
 50 247 50 247 93 293 c 256,8,9
 136 339 136 339 213 339 c 0,10,11
 264 339 264 339 313 314 c 1,12,-1
 313 235 l 1,13,14
 274 268 274 268 225 268 c 0,15,16
 182 268 182 268 159.5 241.5 c 128,-1,17
 137 215 137 215 137 165 c 256,18,19
 137 115 137 115 159.5 88.5 c 128,-1,20
 182 62 182 62 225 62 c 0,21,22
 275 62 275 62 313 96 c 1,23,-1
 313 17 l 1,24,-1
 313 17 l 1,0,1
EndSplineSet
Substitution: 0 65534 'L019' uni0E3A
Substitution: 0 65534 'L019' uni0E3A
EndChar
StartChar: d
Encoding: 100 100 71
Width: 364
Flags: W
Fore
233 459 m 1,0,-1
 319 459 l 1,1,-1
 319 0 l 1,2,-1
 233 0 l 1,3,-1
 233 49 l 1,4,5
 206 -9 206 -9 146 -9 c 0,6,7
 89 -9 89 -9 58 37 c 0,8,9
 27 81 27 81 27 165 c 0,10,11
 27 250 27 250 58 294 c 0,12,13
 90 338 90 338 149 338 c 0,14,15
 202 338 202 338 233 283 c 1,16,-1
 233 459 l 1,0,-1
113 164 m 256,17,18
 113 116 113 116 128.5 89 c 128,-1,19
 144 62 144 62 173 62 c 0,20,21
 201 62 201 62 217 89 c 0,22,23
 233 115 233 115 233 164 c 256,24,25
 233 213 233 213 217 239 c 0,26,27
 201 266 201 266 173 266 c 0,28,29
 144 266 144 266 128.5 239 c 128,-1,30
 113 212 113 212 113 164 c 256,17,18
EndSplineSet
EndChar
StartChar: e
Encoding: 101 101 72
Width: 364
Flags: W
Fore
325 16 m 1,0,1
 295 4 295 4 264 -2.5 c 128,-1,2
 233 -9 233 -9 198 -9 c 0,3,4
 114 -9 114 -9 70.5 35.5 c 128,-1,5
 27 80 27 80 27 164 c 0,6,7
 27 245 27 245 69 291 c 0,8,9
 110 338 110 338 184 338 c 256,10,11
 258 338 258 338 298 295 c 0,12,13
 339 251 339 251 339 172 c 2,14,-1
 339 137 l 1,15,-1
 115 137 l 1,16,17
 115 60 115 60 206 60 c 0,18,19
 236 60 236 60 264.5 68.5 c 128,-1,20
 293 77 293 77 325 96 c 1,21,-1
 325 16 l 1,22,-1
 325 16 l 1,0,1
252 202 m 1,23,24
 251 271 251 271 184 271 c 0,25,26
 155 271 155 271 137 253 c 128,-1,27
 119 235 119 235 116 202 c 1,28,-1
 252 202 l 1,29,-1
 252 202 l 1,23,24
EndSplineSet
EndChar
StartChar: f
Encoding: 102 102 73
Width: 364
Flags: W
Fore
218 330 m 1,0,-1
 319 330 l 1,1,-1
 319 264 l 1,2,-1
 218 264 l 1,3,-1
 218 0 l 1,4,-1
 132 0 l 1,5,-1
 132 264 l 1,6,-1
 51 264 l 1,7,-1
 51 330 l 1,8,-1
 132 330 l 1,9,-1
 132 353 l 2,10,11
 132 414 132 414 156 436 c 0,12,13
 182 459 182 459 248 459 c 2,14,-1
 319 459 l 1,15,-1
 319 393 l 1,16,-1
 252 393 l 2,17,18
 234 393 234 393 225 386 c 1,19,20
 218 377 218 377 218 359 c 2,21,-1
 218 330 l 1,0,-1
EndSplineSet
EndChar
StartChar: g
Encoding: 103 103 74
Width: 364
Flags: W
Fore
237 171 m 256,0,1
 237 215 237 215 220 241 c 0,2,3
 204 268 204 268 176 268 c 0,4,5
 149 268 149 268 132 242 c 0,6,7
 115 214 115 214 115 171 c 0,8,9
 115 127 115 127 132 99 c 0,10,11
 148 73 148 73 176 73 c 256,12,13
 204 73 204 73 220 99 c 0,14,15
 237 127 237 127 237 171 c 256,0,1
323 25 m 1,16,17
 323 -54 323 -54 287 -90 c 0,18,19
 250 -125 250 -125 171 -125 c 0,20,21
 117 -125 117 -125 63 -109 c 1,22,-1
 63 -30 l 1,23,24
 113 -56 113 -56 165 -56 c 0,25,26
 237 -56 237 -56 237 15 c 2,27,-1
 237 51 l 1,28,29
 212 4 212 4 152 4 c 0,30,31
 95 4 95 4 62 48 c 0,32,33
 29 93 29 93 29 168 c 0,34,35
 29 247 29 247 62 293 c 256,36,37
 95 339 95 339 152 339 c 0,38,39
 180 339 180 339 202 325.5 c 128,-1,40
 224 312 224 312 237 288 c 1,41,-1
 237 330 l 1,42,-1
 323 330 l 1,43,-1
 323 25 l 1,44,-1
 323 25 l 1,16,17
EndSplineSet
EndChar
StartChar: h
Encoding: 104 104 75
Width: 364
Flags: W
Fore
316 0 m 1,0,-1
 230 0 l 1,1,-1
 230 201 l 2,2,3
 230 237 230 237 220 252.5 c 128,-1,4
 210 268 210 268 187 268 c 0,5,6
 163 268 163 268 150 247 c 128,-1,7
 137 226 137 226 137 189 c 2,8,-1
 137 0 l 1,9,-1
 51 0 l 1,10,-1
 51 459 l 1,11,-1
 137 459 l 1,12,-1
 137 281 l 1,13,14
 146 308 146 308 168 323 c 128,-1,15
 190 338 190 338 221 338 c 0,16,17
 316 338 316 338 316 214 c 2,18,-1
 316 0 l 1,0,-1
EndSplineSet
EndChar
StartChar: i
Encoding: 105 105 76
Width: 364
Flags: W
Fore
236 330 m 1,0,-1
 236 66 l 1,1,-1
 344 66 l 1,2,-1
 344 0 l 1,3,-1
 42 0 l 1,4,-1
 42 66 l 1,5,-1
 150 66 l 1,6,-1
 150 264 l 1,7,-1
 65 264 l 1,8,-1
 65 330 l 1,9,-1
 236 330 l 1,0,-1
236 491 m 1,10,-1
 236 390 l 1,11,-1
 150 390 l 1,12,-1
 150 491 l 1,13,-1
 236 491 l 1,10,-1
EndSplineSet
EndChar
StartChar: j
Encoding: 106 106 77
Width: 364
Flags: W
Fore
251 13 m 1,0,1
 251 -62 251 -62 224 -93 c 0,2,3
 197 -125 197 -125 135 -125 c 2,4,-1
 42 -125 l 1,5,-1
 42 -59 l 1,6,-1
 111 -59 l 2,7,8
 140 -59 140 -59 152 -42 c 0,9,10
 164 -27 164 -27 164 13 c 2,11,-1
 164 264 l 1,12,-1
 77 264 l 1,13,-1
 77 330 l 1,14,-1
 251 330 l 1,15,-1
 251 13 l 1,16,-1
 251 13 l 1,0,1
164 390 m 1,17,-1
 164 491 l 1,18,-1
 251 491 l 1,19,-1
 251 390 l 1,20,-1
 164 390 l 1,17,-1
EndSplineSet
EndChar
StartChar: k
Encoding: 107 107 78
Width: 364
Flags: W
Fore
138 459 m 1,0,-1
 138 218 l 1,1,-1
 242 330 l 1,2,-1
 346 330 l 1,3,-1
 221 207 l 1,4,-1
 353 0 l 1,5,-1
 258 0 l 1,6,-1
 167 155 l 1,7,-1
 138 126 l 1,8,-1
 138 0 l 1,9,-1
 51 0 l 1,10,-1
 51 459 l 1,11,-1
 138 459 l 1,0,-1
EndSplineSet
EndChar
StartChar: l
Encoding: 108 108 79
Width: 364
Flags: W
Fore
114 393 m 1,0,-1
 27 393 l 1,1,-1
 27 459 l 1,2,-1
 201 459 l 1,3,-1
 201 138 l 2,4,5
 201 100 201 100 213 83 c 256,6,7
 225 66 225 66 254 66 c 2,8,-1
 323 66 l 1,9,-1
 323 0 l 1,10,-1
 230 0 l 2,11,12
 168 0 168 0 141 32 c 256,13,14
 114 64 114 64 114 138 c 2,15,-1
 114 393 l 1,0,-1
EndSplineSet
EndChar
StartChar: m
Encoding: 109 109 80
Width: 364
Flags: W
Fore
204 297 m 1,0,1
 223 338 223 338 265 338 c 0,2,3
 308 338 308 338 324 309 c 0,4,5
 341 278 341 278 341 186 c 2,6,-1
 341 0 l 1,7,-1
 270 0 l 1,8,-1
 270 212 l 2,9,10
 270 249 270 249 264 261 c 0,11,12
 258 274 258 274 244 274 c 0,13,14
 229 274 229 274 223 261 c 0,15,16
 217 249 217 249 217 212 c 2,17,-1
 217 0 l 1,18,-1
 148 0 l 1,19,-1
 148 212 l 2,20,21
 148 230 148 230 146 242.5 c 128,-1,22
 144 255 144 255 142 261 c 0,23,24
 136 274 136 274 121 274 c 0,25,26
 105 274 105 274 101 261 c 1,27,28
 95 249 95 249 95 212 c 2,29,-1
 95 0 l 1,30,-1
 24 0 l 1,31,-1
 24 330 l 1,32,-1
 87 330 l 1,33,-1
 87 296 l 1,34,35
 95 316 95 316 111 327 c 128,-1,36
 127 338 127 338 147 338 c 0,37,38
 168 338 168 338 183 326 c 0,39,40
 200 314 200 314 204 297 c 1,0,1
EndSplineSet
EndChar
StartChar: n
Encoding: 110 110 81
Width: 364
Flags: W
Fore
316 0 m 1,0,-1
 230 0 l 1,1,-1
 230 201 l 2,2,3
 230 237 230 237 220 252.5 c 128,-1,4
 210 268 210 268 187 268 c 256,5,6
 164 268 164 268 150.5 247.5 c 128,-1,7
 137 227 137 227 137 189 c 2,8,-1
 137 0 l 1,9,-1
 51 0 l 1,10,-1
 51 330 l 1,11,-1
 137 330 l 1,12,-1
 137 281 l 1,13,14
 146 308 146 308 168 323 c 128,-1,15
 190 338 190 338 221 338 c 0,16,17
 316 338 316 338 316 214 c 2,18,-1
 316 0 l 1,0,-1
EndSplineSet
EndChar
StartChar: o
Encoding: 111 111 82
Width: 364
Flags: W
Fore
182 268 m 0,0,1
 150 268 150 268 132.5 241 c 128,-1,2
 115 214 115 214 115 165 c 256,3,4
 115 116 115 116 132.5 89 c 128,-1,5
 150 62 150 62 182 62 c 0,6,7
 213 62 213 62 230.5 89 c 128,-1,8
 248 116 248 116 248 165 c 256,9,10
 248 214 248 214 230.5 241 c 128,-1,11
 213 268 213 268 182 268 c 0,0,1
29 165 m 0,12,13
 29 244 29 244 70 291 c 256,14,15
 111 338 111 338 182 338 c 256,16,17
 253 338 253 338 293 291 c 0,18,19
 335 245 335 245 335 165 c 256,20,21
 335 85 335 85 293 38 c 0,22,23
 252 -9 252 -9 182 -9 c 256,24,25
 112 -9 112 -9 70 38 c 0,26,27
 29 85 29 85 29 165 c 0,12,13
EndSplineSet
EndChar
StartChar: p
Encoding: 112 112 83
Width: 364
Flags: W
Fore
130 -126 m 1,0,-1
 44 -126 l 1,1,-1
 44 330 l 1,2,-1
 130 330 l 1,3,-1
 130 281 l 1,4,5
 157 338 157 338 218 338 c 0,6,7
 275 338 275 338 306 293 c 0,8,9
 337 249 337 249 337 165 c 0,10,11
 337 80 337 80 305 36 c 0,12,13
 274 -9 274 -9 215 -9 c 0,14,15
 163 -9 163 -9 130 47 c 1,16,-1
 130 -126 l 1,0,-1
251 165 m 256,17,18
 251 213 251 213 235 240.5 c 128,-1,19
 219 268 219 268 191 268 c 0,20,21
 164 268 164 268 147 240 c 256,22,23
 130 212 130 212 130 165 c 0,24,25
 130 119 130 119 147 91 c 256,26,27
 164 63 164 63 191 63 c 0,28,29
 219 63 219 63 235 90 c 128,-1,30
 251 117 251 117 251 165 c 256,17,18
EndSplineSet
EndChar
StartChar: q
Encoding: 113 113 84
Width: 364
Flags: W
Fore
113 165 m 256,0,1
 113 117 113 117 128.5 90 c 128,-1,2
 144 63 144 63 173 63 c 0,3,4
 200 63 200 63 217 91 c 0,5,6
 233 117 233 117 233 165 c 0,7,8
 233 214 233 214 217 240 c 0,9,10
 200 268 200 268 173 268 c 0,11,12
 144 268 144 268 128.5 240.5 c 128,-1,13
 113 213 113 213 113 165 c 256,0,1
233 47 m 1,14,15
 201 -9 201 -9 149 -9 c 0,16,17
 90 -9 90 -9 58 36 c 0,18,19
 27 80 27 80 27 165 c 0,20,21
 27 249 27 249 58 293 c 0,22,23
 90 338 90 338 146 338 c 0,24,25
 206 338 206 338 233 281 c 1,26,-1
 233 330 l 1,27,-1
 319 330 l 1,28,-1
 319 -126 l 1,29,-1
 233 -126 l 1,30,-1
 233 47 l 1,31,-1
 233 47 l 1,14,15
EndSplineSet
EndChar
StartChar: r
Encoding: 114 114 85
Width: 364
Flags: W
Fore
340 239 m 1,0,1
 326 253 326 253 307 259 c 128,-1,2
 288 265 288 265 265 265 c 0,3,4
 208 265 208 265 185 228 c 0,5,6
 178 217 178 217 175 201 c 256,7,8
 172 185 172 185 172 152 c 2,9,-1
 172 0 l 1,10,-1
 86 0 l 1,11,-1
 86 330 l 1,12,-1
 172 330 l 1,13,-1
 172 279 l 1,14,15
 185 308 185 308 211.5 323 c 128,-1,16
 238 338 238 338 273 338 c 0,17,18
 306 338 306 338 340 322 c 1,19,-1
 340 239 l 1,20,-1
 340 239 l 1,0,1
EndSplineSet
EndChar
StartChar: s
Encoding: 115 115 86
Width: 364
Flags: W
Fore
292 245 m 1,0,1
 242 276 242 276 191 276 c 0,2,3
 132 276 132 276 132 242 c 0,4,5
 132 219 132 219 196 204 c 2,6,-1
 199 203 l 1,7,-1
 224 197 l 2,8,9
 271 186 271 186 293 161 c 128,-1,10
 315 136 315 136 315 94 c 0,11,12
 315 -9 315 -9 181 -9 c 0,13,14
 121 -9 121 -9 56 12 c 1,15,-1
 56 88 l 1,16,17
 115 54 115 54 172 54 c 0,18,19
 233 54 233 54 233 89 c 0,20,21
 233 106 233 106 222 114 c 0,22,23
 213 122 213 122 170 133 c 2,24,-1
 146 138 l 2,25,26
 96 149 96 149 73.5 173 c 128,-1,27
 51 197 51 197 51 237 c 0,28,29
 51 285 51 285 85 312 c 0,30,31
 118 338 118 338 182 338 c 0,32,33
 240 338 240 338 292 320 c 1,34,-1
 292 245 l 1,0,1
EndSplineSet
EndChar
StartChar: t
Encoding: 116 116 87
Width: 364
Flags: W
Fore
204 330 m 1,0,-1
 317 330 l 1,1,-1
 317 264 l 1,2,-1
 204 264 l 1,3,-1
 204 108 l 2,4,5
 204 85 204 85 214.5 75.5 c 128,-1,6
 225 66 225 66 250 66 c 2,7,-1
 317 66 l 1,8,-1
 317 0 l 1,9,-1
 244 0 l 2,10,11
 170 0 170 0 143 24 c 0,12,13
 117 48 117 48 117 112 c 2,14,-1
 117 264 l 1,15,-1
 33 264 l 1,16,-1
 33 330 l 1,17,-1
 117 330 l 1,18,-1
 117 424 l 1,19,-1
 204 424 l 1,20,-1
 204 330 l 1,0,-1
EndSplineSet
EndChar
StartChar: u
Encoding: 117 117 88
Width: 364
Flags: W
Fore
47 330 m 1,0,-1
 134 330 l 1,1,-1
 134 129 l 2,2,3
 134 93 134 93 144 77.5 c 128,-1,4
 154 62 154 62 177 62 c 256,5,6
 200 62 200 62 213.5 82.5 c 128,-1,7
 227 103 227 103 227 141 c 2,8,-1
 227 330 l 1,9,-1
 313 330 l 1,10,-1
 313 0 l 1,11,-1
 227 0 l 1,12,-1
 227 49 l 1,13,14
 207 -9 207 -9 142 -9 c 0,15,16
 47 -9 47 -9 47 115 c 2,17,-1
 47 330 l 1,0,-1
EndSplineSet
EndChar
StartChar: v
Encoding: 118 118 89
Width: 364
Flags: W
Fore
235 0 m 1,0,-1
 129 0 l 1,1,-1
 24 330 l 1,2,-1
 111 330 l 1,3,-1
 182 73 l 1,4,-1
 253 330 l 1,5,-1
 340 330 l 1,6,-1
 235 0 l 1,0,-1
EndSplineSet
EndChar
StartChar: w
Encoding: 119 119 90
Width: 364
Flags: W
Fore
72 330 m 1,0,-1
 111 77 l 1,1,-1
 147 244 l 1,2,-1
 217 244 l 1,3,-1
 252 77 l 1,4,-1
 292 330 l 1,5,-1
 364 330 l 1,6,-1
 304 0 l 1,7,-1
 222 0 l 1,8,-1
 182 172 l 1,9,-1
 142 0 l 1,10,-1
 60 0 l 1,11,-1
 0 330 l 1,12,-1
 72 330 l 1,0,-1
EndSplineSet
EndChar
StartChar: x
Encoding: 120 120 91
Width: 364
Flags: W
Fore
227 172 m 1,0,-1
 348 0 l 1,1,-1
 247 0 l 1,2,-1
 182 111 l 1,3,-1
 117 0 l 1,4,-1
 16 0 l 1,5,-1
 138 172 l 1,6,-1
 26 330 l 1,7,-1
 127 330 l 1,8,-1
 182 232 l 1,9,-1
 237 330 l 1,10,-1
 338 330 l 1,11,-1
 227 172 l 1,0,-1
EndSplineSet
EndChar
StartChar: y
Encoding: 121 121 92
Width: 364
Flags: W
Fore
210 -36 m 1,0,1
 192 -83 192 -83 168 -104 c 128,-1,2
 144 -125 144 -125 109 -125 c 2,3,-1
 37 -125 l 1,4,-1
 37 -59 l 1,5,-1
 73 -59 l 2,6,7
 99 -59 99 -59 112 -50 c 0,8,9
 123 -42 123 -42 137 -9 c 2,10,-1
 143 9 l 1,11,-1
 17 330 l 1,12,-1
 108 330 l 1,13,-1
 184 116 l 1,14,-1
 256 330 l 1,15,-1
 347 330 l 1,16,-1
 210 -36 l 1,17,-1
 210 -36 l 1,0,1
EndSplineSet
EndChar
StartChar: z
Encoding: 122 122 93
Width: 364
Flags: W
Fore
319 330 m 1,0,-1
 319 263 l 1,1,-1
 145 65 l 1,2,-1
 319 65 l 1,3,-1
 319 0 l 1,4,-1
 48 0 l 1,5,-1
 48 68 l 1,6,-1
 222 266 l 1,7,-1
 55 266 l 1,8,-1
 55 330 l 1,9,-1
 319 330 l 1,0,-1
EndSplineSet
EndChar
StartChar: braceleft
Encoding: 123 123 94
Width: 364
Flags: W
Fore
311 -99 m 1,0,-1
 266 -99 l 2,1,2
 195 -99 195 -99 168 -77 c 0,3,4
 143 -55 143 -55 143 10 c 2,5,-1
 143 74 l 2,6,7
 143 119 143 119 127 135 c 0,8,9
 113 152 113 152 70 152 c 2,10,-1
 52 152 l 1,11,-1
 52 209 l 1,12,-1
 70 209 l 2,13,14
 112 209 112 209 127 225 c 0,15,16
 143 242 143 242 143 287 c 2,17,-1
 143 350 l 2,18,19
 143 416 143 416 168 437 c 0,20,21
 193 459 193 459 266 459 c 2,22,-1
 311 459 l 1,23,-1
 311 403 l 1,24,-1
 274 403 l 2,25,26
 244 403 244 403 233 391 c 1,27,28
 223 376 223 376 223 336 c 2,29,-1
 223 274 l 2,30,31
 223 226 223 226 209 206 c 0,32,33
 193 185 193 185 157 181 c 1,34,35
 195 173 195 173 209 154 c 0,36,37
 223 134 223 134 223 86 c 2,38,-1
 223 25 l 2,39,40
 223 -15 223 -15 233 -30 c 1,41,42
 244 -42 244 -42 274 -42 c 2,43,-1
 311 -42 l 1,44,-1
 311 -99 l 1,0,-1
EndSplineSet
EndChar
StartChar: bar
Encoding: 124 124 95
Width: 364
Flags: W
Fore
215 -142 m 1,0,-1
 148 -142 l 1,1,-1
 148 462 l 1,2,-1
 215 462 l 1,3,-1
 215 -142 l 1,0,-1
EndSplineSet
EndChar
StartChar: braceright
Encoding: 125 125 96
Width: 364
Flags: W
Fore
89 -42 m 2,0,1
 120 -42 120 -42 130 -30 c 0,2,3
 141 -16 141 -16 141 25 c 2,4,-1
 141 86 l 2,5,6
 141 136 141 136 155 154 c 0,7,8
 169 173 169 173 207 181 c 1,9,10
 171 185 171 185 155 206 c 0,11,12
 141 224 141 224 141 274 c 2,13,-1
 141 336 l 2,14,15
 141 377 141 377 130 390 c 0,16,17
 120 403 120 403 89 403 c 2,18,-1
 53 403 l 1,19,-1
 53 459 l 1,20,-1
 97 459 l 2,21,22
 172 459 172 459 195 437 c 0,23,24
 220 416 220 416 220 350 c 2,25,-1
 220 287 l 2,26,27
 220 242 220 242 236 225 c 0,28,29
 252 209 252 209 294 209 c 2,30,-1
 312 209 l 1,31,-1
 312 152 l 1,32,-1
 294 152 l 2,33,34
 252 152 252 152 236 135 c 0,35,36
 220 119 220 119 220 74 c 2,37,-1
 220 10 l 2,38,39
 220 -55 220 -55 195 -77 c 256,40,41
 170 -99 170 -99 97 -99 c 2,42,-1
 53 -99 l 1,43,-1
 53 -42 l 1,44,-1
 89 -42 l 2,0,1
EndSplineSet
EndChar
StartChar: asciitilde
Encoding: 126 126 97
Width: 364
Flags: W
Fore
338 171 m 1,0,1
 315 153 315 153 294 145 c 128,-1,2
 273 137 273 137 250 137 c 0,3,4
 223 137 223 137 190 152 c 0,5,6
 187 154 187 154 185 154.5 c 128,-1,7
 183 155 183 155 181 156 c 0,8,9
 158 166 158 166 142 169 c 0,10,11
 129 173 129 173 112 173 c 0,12,13
 68 173 68 173 26 137 c 1,14,-1
 26 205 l 1,15,16
 49 223 49 223 70.5 231 c 128,-1,17
 92 239 92 239 117 239 c 0,18,19
 125 239 125 239 132 238 c 128,-1,20
 139 237 139 237 147 235 c 0,21,22
 162 232 162 232 183 223 c 0,23,24
 189 221 189 221 193 219 c 0,25,26
 229 202 229 202 255 202 c 0,27,28
 295 202 295 202 338 239 c 1,29,-1
 338 171 l 1,0,1
EndSplineSet
EndChar
StartChar: Aring
Encoding: 197 197 99
Width: 364
Flags: W
Fore
354 0 m 1,0,-1
 267 0 l 1,1,-1
 240 109 l 1,2,-1
 123 109 l 1,3,-1
 97 0 l 1,4,-1
 10 0 l 1,5,-1
 123 419 l 1,6,7
 98 441 98 441 98 477 c 0,8,9
 98 511 98 511 122 536 c 0,10,11
 147 561 147 561 182 561 c 256,12,13
 217 561 217 561 241 536 c 0,14,15
 266 511 266 511 266 477 c 0,16,17
 266 441 266 441 240 419 c 1,18,-1
 354 0 l 1,0,-1
143 477 m 0,19,20
 143 461 143 461 155 449 c 0,21,22
 166 438 166 438 182 438 c 256,23,24
 198 438 198 438 209 449 c 0,25,26
 221 461 221 461 221 477 c 0,27,28
 221 492 221 492 209 504 c 0,29,30
 198 515 198 515 182 515 c 0,31,32
 165 515 165 515 155 504 c 0,33,34
 143 492 143 492 143 477 c 0,19,20
141 181 m 1,35,-1
 223 181 l 1,36,-1
 182 361 l 1,37,-1
 141 181 l 1,35,-1
EndSplineSet
EndChar
StartChar: oacute
Encoding: 243 243 121
Width: 364
Flags: W
Fore
305 460 m 1,0,-1
 196 372 l 1,1,-1
 138 372 l 1,2,-1
 222 460 l 1,3,-1
 305 460 l 1,0,-1
182 268 m 0,4,5
 150 268 150 268 132.5 241 c 128,-1,6
 115 214 115 214 115 165 c 256,7,8
 115 116 115 116 132.5 89 c 128,-1,9
 150 62 150 62 182 62 c 0,10,11
 213 62 213 62 230.5 89 c 128,-1,12
 248 116 248 116 248 165 c 256,13,14
 248 214 248 214 230.5 241 c 128,-1,15
 213 268 213 268 182 268 c 0,4,5
29 165 m 0,16,17
 29 244 29 244 70 291 c 256,18,19
 111 338 111 338 182 338 c 256,20,21
 253 338 253 338 293 291 c 0,22,23
 335 245 335 245 335 165 c 256,24,25
 335 85 335 85 293 38 c 0,26,27
 252 -9 252 -9 182 -9 c 256,28,29
 112 -9 112 -9 70 38 c 0,30,31
 29 85 29 85 29 165 c 0,16,17
EndSplineSet
EndChar
StartChar: ograve
Encoding: 242 242 122
Width: 364
Flags: W
Fore
225 372 m 1,0,-1
 167 372 l 1,1,-1
 59 460 l 1,2,-1
 142 460 l 1,3,-1
 225 372 l 1,0,-1
182 268 m 0,4,5
 150 268 150 268 132.5 241 c 128,-1,6
 115 214 115 214 115 165 c 256,7,8
 115 116 115 116 132.5 89 c 128,-1,9
 150 62 150 62 182 62 c 0,10,11
 213 62 213 62 230.5 89 c 128,-1,12
 248 116 248 116 248 165 c 256,13,14
 248 214 248 214 230.5 241 c 128,-1,15
 213 268 213 268 182 268 c 0,4,5
29 165 m 0,16,17
 29 244 29 244 70 291 c 256,18,19
 111 338 111 338 182 338 c 256,20,21
 253 338 253 338 293 291 c 0,22,23
 335 245 335 245 335 165 c 256,24,25
 335 85 335 85 293 38 c 0,26,27
 252 -9 252 -9 182 -9 c 256,28,29
 112 -9 112 -9 70 38 c 0,30,31
 29 85 29 85 29 165 c 0,16,17
EndSplineSet
EndChar
StartChar: ocircumflex
Encoding: 244 244 123
Width: 364
Flags: W
Fore
217 460 m 1,0,-1
 293 372 l 1,1,-1
 240 372 l 1,2,-1
 182 416 l 1,3,-1
 123 372 l 1,4,-1
 71 372 l 1,5,-1
 146 460 l 1,6,-1
 217 460 l 1,0,-1
182 268 m 0,7,8
 150 268 150 268 132.5 241 c 128,-1,9
 115 214 115 214 115 165 c 256,10,11
 115 116 115 116 132.5 89 c 128,-1,12
 150 62 150 62 182 62 c 0,13,14
 213 62 213 62 230.5 89 c 128,-1,15
 248 116 248 116 248 165 c 256,16,17
 248 214 248 214 230.5 241 c 128,-1,18
 213 268 213 268 182 268 c 0,7,8
29 165 m 0,19,20
 29 244 29 244 70 291 c 256,21,22
 111 338 111 338 182 338 c 256,23,24
 253 338 253 338 293 291 c 0,25,26
 335 245 335 245 335 165 c 256,27,28
 335 85 335 85 293 38 c 0,29,30
 252 -9 252 -9 182 -9 c 256,31,32
 112 -9 112 -9 70 38 c 0,33,34
 29 85 29 85 29 165 c 0,19,20
EndSplineSet
EndChar
StartChar: odieresis
Encoding: 246 246 124
Width: 364
Flags: W
Fore
158 460 m 1,0,-1
 158 388 l 1,1,-1
 89 388 l 1,2,-1
 89 460 l 1,3,-1
 158 460 l 1,0,-1
275 460 m 1,4,-1
 275 388 l 1,5,-1
 205 388 l 1,6,-1
 205 460 l 1,7,-1
 275 460 l 1,4,-1
182 268 m 0,8,9
 150 268 150 268 132.5 241 c 128,-1,10
 115 214 115 214 115 165 c 256,11,12
 115 116 115 116 132.5 89 c 128,-1,13
 150 62 150 62 182 62 c 0,14,15
 213 62 213 62 230.5 89 c 128,-1,16
 248 116 248 116 248 165 c 256,17,18
 248 214 248 214 230.5 241 c 128,-1,19
 213 268 213 268 182 268 c 0,8,9
29 165 m 0,20,21
 29 244 29 244 70 291 c 256,22,23
 111 338 111 338 182 338 c 256,24,25
 253 338 253 338 293 291 c 0,26,27
 335 245 335 245 335 165 c 256,28,29
 335 85 335 85 293 38 c 0,30,31
 252 -9 252 -9 182 -9 c 256,32,33
 112 -9 112 -9 70 38 c 0,34,35
 29 85 29 85 29 165 c 0,20,21
EndSplineSet
EndChar
StartChar: otilde
Encoding: 245 245 125
Width: 364
Flags: W
Fore
166 404 m 1,0,1
 165 404 165 404 163 406 c 0,2,3
 151 414 151 414 142 414 c 0,4,5
 120 414 120 414 120 379 c 2,6,-1
 120 376 l 1,7,-1
 79 376 l 1,8,-1
 79 386 l 2,9,10
 79 420 79 420 95 440 c 256,11,12
 111 460 111 460 137 460 c 0,13,14
 158 460 158 460 181 443 c 2,15,-1
 199 431 l 2,16,17
 213 422 213 422 221 422 c 0,18,19
 243 422 243 422 243 457 c 2,20,-1
 243 460 l 1,21,-1
 285 460 l 1,22,23
 285 458 285 458 284.5 455 c 128,-1,24
 284 452 284 452 284 450 c 0,25,26
 284 415 284 415 268 396 c 0,27,28
 253 376 253 376 227 376 c 0,29,30
 216 376 216 376 206.5 379 c 128,-1,31
 197 382 197 382 182 393 c 2,32,-1
 166 404 l 1,0,1
182 268 m 0,33,34
 150 268 150 268 132.5 241 c 128,-1,35
 115 214 115 214 115 165 c 256,36,37
 115 116 115 116 132.5 89 c 128,-1,38
 150 62 150 62 182 62 c 0,39,40
 213 62 213 62 230.5 89 c 128,-1,41
 248 116 248 116 248 165 c 256,42,43
 248 214 248 214 230.5 241 c 128,-1,44
 213 268 213 268 182 268 c 0,33,34
29 165 m 0,45,46
 29 244 29 244 70 291 c 256,47,48
 111 338 111 338 182 338 c 256,49,50
 253 338 253 338 293 291 c 0,51,52
 335 245 335 245 335 165 c 256,53,54
 335 85 335 85 293 38 c 0,55,56
 252 -9 252 -9 182 -9 c 256,57,58
 112 -9 112 -9 70 38 c 0,59,60
 29 85 29 85 29 165 c 0,45,46
EndSplineSet
EndChar
StartChar: dagger
Encoding: 8224 8224 130
Width: 364
Flags: W
Fore
219 440 m 1,0,-1
 219 326 l 1,1,-1
 317 326 l 1,2,-1
 317 260 l 1,3,-1
 219 260 l 1,4,-1
 219 -58 l 1,5,-1
 144 -58 l 1,6,-1
 144 260 l 1,7,-1
 46 260 l 1,8,-1
 46 326 l 1,9,-1
 144 326 l 1,10,-1
 144 440 l 1,11,-1
 219 440 l 1,0,-1
EndSplineSet
EndChar
StartChar: degree
Encoding: 176 176 131
Width: 364
Flags: W
Fore
182 448 m 0,0,1
 202 448 202 448 219.5 440.5 c 128,-1,2
 237 433 237 433 251 419 c 0,3,4
 280 392 280 392 280 350 c 0,5,6
 280 310 280 310 251 281 c 256,7,8
 222 252 222 252 181 252 c 0,9,10
 139 252 139 252 112 280 c 0,11,12
 83 309 83 309 83 350 c 256,13,14
 83 391 83 391 112 420 c 0,15,16
 140 448 140 448 182 448 c 0,0,1
182 401 m 0,17,18
 160 401 160 401 146 386 c 0,19,20
 131 371 131 371 131 350 c 0,21,22
 131 330 131 330 145 314 c 0,23,24
 159 300 159 300 181 300 c 256,25,26
 203 300 203 300 217 314 c 0,27,28
 232 329 232 329 232 350 c 256,29,30
 232 371 232 371 217 386 c 256,31,32
 202 401 202 401 182 401 c 0,17,18
EndSplineSet
EndChar
StartChar: cent
Encoding: 162 162 132
Width: 364
Flags: W
Fore
306 239 m 1,0,1
 270 264 270 264 235 268 c 1,2,-1
 235 63 l 1,3,4
 271 66 271 66 306 92 c 1,5,-1
 306 13 l 1,6,7
 290 4 290 4 272.5 -0.5 c 128,-1,8
 255 -5 255 -5 235 -7 c 1,9,-1
 235 -92 l 1,10,-1
 193 -92 l 1,11,-1
 193 -7 l 1,12,13
 123 -1 123 -1 83 45 c 0,14,15
 43 93 43 93 43 165 c 0,16,17
 43 239 43 239 83 287 c 0,18,19
 123 333 123 333 193 338 c 1,20,-1
 193 422 l 1,21,-1
 235 422 l 1,22,-1
 235 338 l 1,23,24
 272 335 272 335 306 318 c 1,25,-1
 306 239 l 1,0,1
193 268 m 1,26,27
 123 259 123 259 123 165 c 0,28,29
 123 122 123 122 142 92 c 0,30,31
 159 66 159 66 193 63 c 1,32,-1
 193 268 l 1,26,27
EndSplineSet
EndChar
StartChar: sterling
Encoding: 163 163 133
Width: 364
Flags: W
Fore
325 350 m 1,0,1
 293 375 293 375 250 375 c 0,2,3
 218 375 218 375 203.5 355.5 c 128,-1,4
 189 336 189 336 189 294 c 2,5,-1
 189 242 l 1,6,-1
 288 242 l 1,7,-1
 288 175 l 1,8,-1
 189 175 l 1,9,-1
 189 77 l 1,10,-1
 331 77 l 1,11,-1
 331 0 l 1,12,-1
 35 0 l 1,13,-1
 35 77 l 1,14,-1
 104 77 l 1,15,-1
 104 175 l 1,16,-1
 46 175 l 1,17,-1
 46 242 l 1,18,-1
 104 242 l 1,19,-1
 104 300 l 2,20,21
 104 448 104 448 239 448 c 0,22,23
 288 448 288 448 325 431 c 1,24,-1
 325 350 l 1,0,1
EndSplineSet
EndChar
StartChar: section
Encoding: 167 167 134
Width: 364
Flags: W
Fore
153 253 m 1,0,1
 122 232 122 232 122 210 c 0,2,3
 122 193 122 193 136 181 c 0,4,5
 152 167 152 167 210 140 c 1,6,7
 240 160 240 160 240 183 c 0,8,9
 240 208 240 208 162 248 c 2,10,-1
 153 253 l 1,11,-1
 153 253 l 1,0,1
274 364 m 1,12,13
 225 382 225 382 194 382 c 0,14,15
 172 382 172 382 159.5 373.5 c 128,-1,16
 147 365 147 365 147 349 c 0,17,18
 147 328 147 328 207 296 c 2,19,-1
 215 292 l 2,20,21
 278 259 278 259 296 238 c 0,22,23
 313 216 313 216 313 188 c 0,24,25
 313 138 313 138 255 110 c 1,26,27
 275 95 275 95 285 77 c 128,-1,28
 295 59 295 59 295 35 c 0,29,30
 295 -8 295 -8 264 -33 c 0,31,32
 231 -58 231 -58 178 -58 c 0,33,34
 126 -58 126 -58 76 -40 c 1,35,-1
 76 27 l 1,36,37
 126 9 126 9 171 9 c 0,38,39
 217 9 217 9 217 42 c 0,40,41
 217 62 217 62 154 96 c 2,42,-1
 151 98 l 1,43,-1
 143 102 l 2,44,45
 50 152 50 152 50 203 c 0,46,47
 50 261 50 261 109 281 c 1,48,49
 88 296 88 296 79 314 c 128,-1,50
 70 332 70 332 70 356 c 0,51,52
 70 398 70 398 100 423 c 0,53,54
 131 448 131 448 182 448 c 0,55,56
 204 448 204 448 227 444 c 128,-1,57
 250 440 250 440 274 431 c 1,58,-1
 274 364 l 1,12,13
EndSplineSet
EndChar
StartChar: bullet
Encoding: 8226 8226 135
Width: 364
Flags: W
Fore
76 225 m 0,0,1
 76 269 76 269 107 300 c 0,2,3
 139 330 139 330 182 330 c 256,4,5
 225 330 225 330 257 300 c 0,6,7
 288 269 288 269 288 225 c 0,8,9
 288 182 288 182 257 149 c 0,10,11
 226 118 226 118 181 118 c 0,12,13
 139 118 139 118 106 149 c 0,14,15
 76 179 76 179 76 225 c 0,0,1
EndSplineSet
EndChar
StartChar: paragraph
Encoding: 182 182 136
Width: 364
Flags: W
Fore
314 440 m 1,0,-1
 314 -58 l 1,1,-1
 258 -58 l 1,2,-1
 258 397 l 1,3,-1
 202 397 l 1,4,-1
 202 -58 l 1,5,-1
 146 -58 l 1,6,-1
 146 191 l 1,7,8
 86 199 86 199 53.5 231 c 128,-1,9
 21 263 21 263 21 316 c 0,10,11
 21 374 21 374 59 406 c 0,12,13
 97 440 97 440 161 440 c 2,14,-1
 314 440 l 1,0,-1
EndSplineSet
EndChar
StartChar: germandbls
Encoding: 223 223 137
Width: 364
Flags: W
Fore
305 312 m 1,0,1
 230 309 230 309 230 260 c 0,2,3
 230 241 230 241 264 215 c 0,4,5
 267 213 267 213 270 210 c 2,6,-1
 299 189 l 2,7,8
 346 152 346 152 346 97 c 0,9,10
 346 49 346 49 313 20 c 0,11,12
 279 -9 279 -9 223 -9 c 0,13,14
 188 -9 188 -9 149 6 c 1,15,-1
 149 80 l 1,16,17
 184 61 184 61 216 61 c 0,18,19
 237 61 237 61 249.5 71 c 128,-1,20
 262 81 262 81 262 98 c 0,21,22
 262 120 262 120 228 145 c 1,23,24
 224 149 224 149 220.5 151 c 128,-1,25
 217 153 217 153 215 155 c 2,26,-1
 190 175 l 2,27,28
 155 203 155 203 155 250 c 0,29,30
 155 287 155 287 176.5 312 c 128,-1,31
 198 337 198 337 239 346 c 1,32,33
 233 390 233 390 180 390 c 0,34,35
 124 390 124 390 124 331 c 2,36,-1
 124 0 l 1,37,-1
 37 0 l 1,38,-1
 37 332 l 2,39,40
 37 395 37 395 72.5 427 c 128,-1,41
 108 459 108 459 176 459 c 0,42,43
 242 459 242 459 273.5 424 c 128,-1,44
 305 389 305 389 305 317 c 2,45,-1
 305 312 l 1,46,-1
 305 312 l 1,0,1
EndSplineSet
EndChar
StartChar: registered
Encoding: 174 174 138
Width: 364
Flags: W
Fore
182 401 m 256,0,1
 257 401 257 401 310 348 c 0,2,3
 364 292 364 292 364 219 c 0,4,5
 364 144 364 144 310 91 c 0,6,7
 256 37 256 37 182 37 c 0,8,9
 107 37 107 37 54 91 c 0,10,11
 0 144 0 144 0 219 c 256,12,13
 0 294 0 294 54 348 c 0,14,15
 107 401 107 401 182 401 c 256,0,1
155 278 m 1,16,-1
 155 230 l 1,17,-1
 173 230 l 2,18,19
 207 230 207 230 207 254 c 256,20,21
 207 278 207 278 173 278 c 2,22,-1
 155 278 l 1,16,-1
179 311 m 1,23,24
 256 311 256 311 256 259 c 0,25,26
 256 219 256 219 212 211 c 1,27,28
 233 203 233 203 247 176 c 2,29,-1
 270 127 l 1,30,-1
 219 127 l 1,31,-1
 201 166 l 2,32,33
 193 183 193 183 184.5 190 c 128,-1,34
 176 197 176 197 164 198 c 2,35,-1
 155 198 l 1,36,-1
 155 127 l 1,37,-1
 106 127 l 1,38,-1
 106 311 l 1,39,-1
 179 311 l 1,40,-1
 179 311 l 1,23,24
182 363 m 0,41,42
 123 363 123 363 81 320 c 0,43,44
 39 278 39 278 39 219 c 0,45,46
 39 162 39 162 81 118 c 0,47,48
 123 76 123 76 182 76 c 256,49,50
 241 76 241 76 283 118 c 0,51,52
 325 162 325 162 325 219 c 0,53,54
 325 278 325 278 283 320 c 0,55,56
 240 363 240 363 182 363 c 0,41,42
EndSplineSet
EndChar
StartChar: copyright
Encoding: 169 169 139
Width: 364
Flags: W
Fore
250 260 m 1,0,1
 222 277 222 277 194 277 c 0,2,3
 165 277 165 277 149.5 262 c 128,-1,4
 134 247 134 247 134 219 c 0,5,6
 134 160 134 160 194 160 c 0,7,8
 226 160 226 160 250 178 c 1,9,-1
 250 128 l 1,10,11
 220 118 220 118 188 118 c 0,12,13
 138 118 138 118 108 145 c 0,14,15
 78 175 78 175 78 219 c 0,16,17
 78 264 78 264 108 292 c 0,18,19
 138 319 138 319 188 319 c 0,20,21
 221 319 221 319 250 309 c 1,22,-1
 250 260 l 1,0,1
182 401 m 256,23,24
 257 401 257 401 310 348 c 0,25,26
 364 292 364 292 364 219 c 0,27,28
 364 144 364 144 310 91 c 0,29,30
 256 37 256 37 182 37 c 0,31,32
 107 37 107 37 54 91 c 0,33,34
 0 144 0 144 0 219 c 256,35,36
 0 294 0 294 54 348 c 0,37,38
 107 401 107 401 182 401 c 256,23,24
182 363 m 0,39,40
 123 363 123 363 81 320 c 0,41,42
 39 278 39 278 39 219 c 0,43,44
 39 162 39 162 81 118 c 0,45,46
 123 76 123 76 182 76 c 256,47,48
 241 76 241 76 283 118 c 0,49,50
 325 162 325 162 325 219 c 0,51,52
 325 278 325 278 283 320 c 0,53,54
 240 363 240 363 182 363 c 0,39,40
EndSplineSet
EndChar
StartChar: trademark
Encoding: 8482 8482 140
Width: 364
Flags: W
Fore
245 373 m 1,0,-1
 271 440 l 1,1,-1
 332 440 l 1,2,-1
 332 270 l 1,3,-1
 287 270 l 1,4,-1
 287 399 l 1,5,-1
 255 323 l 1,6,-1
 233 323 l 1,7,-1
 199 399 l 1,8,-1
 199 270 l 1,9,-1
 154 270 l 1,10,-1
 154 440 l 1,11,-1
 215 440 l 1,12,-1
 245 373 l 1,0,-1
129 401 m 1,13,-1
 88 401 l 1,14,-1
 88 270 l 1,15,-1
 42 270 l 1,16,-1
 42 401 l 1,17,-1
 0 401 l 1,18,-1
 0 440 l 1,19,-1
 129 440 l 1,20,-1
 129 401 l 1,13,-1
EndSplineSet
EndChar
StartChar: acute
Encoding: 180 180 141
Width: 364
Flags: W
Fore
305 483 m 1,0,-1
 196 372 l 1,1,-1
 138 372 l 1,2,-1
 222 483 l 1,3,-1
 305 483 l 1,0,-1
EndSplineSet
EndChar
StartChar: dieresis
Encoding: 168 168 142
Width: 364
Flags: W
Fore
275 468 m 1,0,-1
 275 395 l 1,1,-1
 205 395 l 1,2,-1
 205 468 l 1,3,-1
 275 468 l 1,0,-1
158 468 m 1,4,-1
 158 395 l 1,5,-1
 89 395 l 1,6,-1
 89 468 l 1,7,-1
 158 468 l 1,4,-1
EndSplineSet
EndChar
StartChar: notequal
Encoding: 8800 8800 143
Width: 364
Flags: W
Fore
217 291 m 1,0,-1
 292 381 l 1,1,-1
 336 344 l 1,2,-1
 293 291 l 1,3,-1
 341 291 l 1,4,-1
 341 222 l 1,5,-1
 248 222 l 1,6,-1
 196 157 l 1,7,-1
 341 157 l 1,8,-1
 341 87 l 1,9,-1
 146 87 l 1,10,-1
 72 -3 l 1,11,-1
 28 35 l 1,12,-1
 71 87 l 1,13,-1
 23 87 l 1,14,-1
 23 157 l 1,15,-1
 118 157 l 1,16,-1
 170 222 l 1,17,-1
 23 222 l 1,18,-1
 23 291 l 1,19,-1
 217 291 l 1,0,-1
EndSplineSet
EndChar
StartChar: AE
Encoding: 198 198 144
Width: 364
Flags: W
Fore
342 364 m 1,0,-1
 257 364 l 1,1,-1
 257 272 l 1,2,-1
 333 272 l 1,3,-1
 333 195 l 1,4,-1
 257 195 l 1,5,-1
 257 77 l 1,6,-1
 348 77 l 1,7,-1
 348 0 l 1,8,-1
 182 0 l 1,9,-1
 182 107 l 1,10,-1
 99 107 l 1,11,-1
 73 0 l 1,12,-1
 0 0 l 1,13,-1
 106 440 l 1,14,-1
 342 440 l 1,15,-1
 342 364 l 1,0,-1
115 176 m 1,16,-1
 182 176 l 1,17,-1
 182 364 l 1,18,-1
 158 364 l 1,19,-1
 115 176 l 1,16,-1
EndSplineSet
EndChar
StartChar: Oslash
Encoding: 216 216 145
Width: 364
Flags: W
Fore
133 104 m 1,0,1
 147 70 147 70 182 70 c 0,2,3
 215 70 215 70 231 105 c 0,4,5
 246 141 246 141 246 220 c 0,6,7
 246 228 246 228 246 237 c 128,-1,8
 246 246 246 246 245 262 c 1,9,-1
 133 104 l 1,10,-1
 133 104 l 1,0,1
228 340 m 1,11,12
 212 370 212 370 182 370 c 0,13,14
 149 370 149 370 133.5 335 c 128,-1,15
 118 300 118 300 118 223 c 2,16,-1
 118 186 l 1,17,-1
 228 340 l 1,18,-1
 228 340 l 1,11,12
48 85 m 1,19,20
 27 138 27 138 27 220 c 0,21,22
 27 448 27 448 182 448 c 0,23,24
 243 448 243 448 279 412 c 1,25,-1
 312 460 l 1,26,-1
 360 426 l 1,27,-1
 314 360 l 1,28,29
 337 303 337 303 337 220 c 0,30,31
 337 107 337 107 298 49 c 128,-1,32
 259 -9 259 -9 182 -9 c 0,33,34
 119 -9 119 -9 81 31 c 1,35,-1
 46 -19 l 1,36,-1
 -2 15 l 1,37,-1
 48 85 l 1,38,-1
 48 85 l 1,19,20
EndSplineSet
EndChar
StartChar: infinity
Encoding: 8734 8734 146
Width: 364
Flags: W
Fore
214 186 m 1,0,1
 227 153 227 153 240 138 c 0,2,3
 252 124 252 124 266 124 c 0,4,5
 283 124 283 124 295 142 c 0,6,7
 306 159 306 159 306 187 c 256,8,9
 306 215 306 215 296 231.5 c 128,-1,10
 286 248 286 248 269 248 c 0,11,12
 234 248 234 248 214 186 c 1,0,1
149 187 m 1,13,14
 134 224 134 224 122 236 c 0,15,16
 112 248 112 248 97 248 c 0,17,18
 80 248 80 248 68 231 c 0,19,20
 58 214 58 214 58 186 c 256,21,22
 58 158 58 158 67.5 141 c 128,-1,23
 77 124 77 124 94 124 c 0,24,25
 125 124 125 124 149 187 c 1,13,14
182 245 m 1,26,27
 207 307 207 307 266 307 c 0,28,29
 308 307 308 307 335 274 c 0,30,31
 360 242 360 242 360 186 c 0,32,33
 360 134 360 134 334 100 c 0,34,35
 307 66 307 66 266 66 c 0,36,37
 240 66 240 66 220.5 80 c 128,-1,38
 201 94 201 94 182 126 c 1,39,40
 149 66 149 66 98 66 c 0,41,42
 57 66 57 66 30 100 c 0,43,44
 4 132 4 132 4 186 c 0,45,46
 4 242 4 242 29 274 c 0,47,48
 55 307 55 307 97 307 c 0,49,50
 152 307 152 307 182 245 c 1,26,27
EndSplineSet
EndChar
StartChar: plusminus
Encoding: 177 177 147
Width: 364
Flags: W
Fore
217 274 m 1,0,-1
 338 274 l 1,1,-1
 338 205 l 1,2,-1
 217 205 l 1,3,-1
 217 100 l 1,4,-1
 147 100 l 1,5,-1
 147 205 l 1,6,-1
 26 205 l 1,7,-1
 26 274 l 1,8,-1
 147 274 l 1,9,-1
 147 379 l 1,10,-1
 217 379 l 1,11,-1
 217 274 l 1,0,-1
338 70 m 1,12,-1
 338 0 l 1,13,-1
 26 0 l 1,14,-1
 26 70 l 1,15,-1
 338 70 l 1,12,-1
EndSplineSet
EndChar
StartChar: lessequal
Encoding: 8804 8804 148
Width: 364
Flags: W
Fore
120 218 m 1,0,-1
 338 156 l 1,1,-1
 338 85 l 1,2,-1
 26 184 l 1,3,-1
 26 253 l 1,4,-1
 338 352 l 1,5,-1
 338 280 l 1,6,-1
 120 218 l 1,0,-1
338 0 m 1,7,-1
 26 0 l 1,8,-1
 26 70 l 1,9,-1
 338 70 l 1,10,-1
 338 0 l 1,7,-1
EndSplineSet
EndChar
StartChar: greaterequal
Encoding: 8805 8805 149
Width: 364
Flags: W
Fore
26 352 m 1,0,-1
 338 253 l 1,1,-1
 338 184 l 1,2,-1
 26 85 l 1,3,-1
 26 156 l 1,4,-1
 244 218 l 1,5,-1
 26 280 l 1,6,-1
 26 352 l 1,0,-1
338 70 m 1,7,-1
 338 0 l 1,8,-1
 26 0 l 1,9,-1
 26 70 l 1,10,-1
 338 70 l 1,7,-1
EndSplineSet
EndChar
StartChar: yen
Encoding: 165 165 150
Width: 364
Flags: W
Fore
96 440 m 1,0,-1
 182 263 l 1,1,-1
 268 440 l 1,2,-1
 361 440 l 1,3,-1
 281 285 l 1,4,-1
 347 285 l 1,5,-1
 347 230 l 1,6,-1
 252 230 l 1,7,-1
 227 185 l 1,8,-1
 347 185 l 1,9,-1
 347 129 l 1,10,-1
 225 129 l 1,11,-1
 225 0 l 1,12,-1
 138 0 l 1,13,-1
 138 129 l 1,14,-1
 17 129 l 1,15,-1
 17 185 l 1,16,-1
 137 185 l 1,17,-1
 112 230 l 1,18,-1
 17 230 l 1,19,-1
 17 285 l 1,20,-1
 83 285 l 1,21,-1
 2 440 l 1,22,-1
 96 440 l 1,0,-1
EndSplineSet
EndChar
StartChar: mu
Encoding: 181 181 151
Width: 364
Flags: W
Fore
51 330 m 1,0,-1
 136 330 l 1,1,-1
 136 130 l 2,2,3
 136 62 136 62 184 62 c 256,4,5
 232 62 232 62 232 130 c 2,6,-1
 232 330 l 1,7,-1
 317 330 l 1,8,-1
 317 101 l 2,9,10
 317 80 317 80 321 71 c 128,-1,11
 325 62 325 62 334 62 c 256,12,13
 343 62 343 62 350 69 c 1,14,-1
 350 5 l 1,15,16
 325 -9 325 -9 306 -9 c 0,17,18
 264 -9 264 -9 250 38 c 1,19,20
 227 -9 227 -9 186 -9 c 0,21,22
 152 -9 152 -9 136 19 c 1,23,-1
 137 -126 l 1,24,-1
 51 -126 l 1,25,-1
 51 330 l 1,0,-1
EndSplineSet
EndChar
StartChar: partialdiff
Encoding: 8706 8706 152
Width: 364
Flags: W
Fore
245 195 m 1,0,1
 251 224 251 224 254 250.5 c 128,-1,2
 257 277 257 277 257 297 c 0,3,4
 257 326 257 326 249.5 343 c 128,-1,5
 242 360 242 360 228 360 c 0,6,7
 215 360 215 360 185 339 c 0,8,9
 156 317 156 317 138 317 c 0,10,11
 126 317 126 317 117.5 326 c 128,-1,12
 109 335 109 335 109 348 c 0,13,14
 109 367 109 367 134 382 c 0,15,16
 159 398 159 398 196 398 c 0,17,18
 254 398 254 398 288 350 c 0,19,20
 322 304 322 304 322 223 c 0,21,22
 322 122 322 122 276 58 c 0,23,24
 230 -7 230 -7 159 -7 c 0,25,26
 108 -7 108 -7 76 26 c 0,27,28
 43 61 43 61 43 112 c 0,29,30
 43 172 43 172 77 209 c 0,31,32
 112 248 112 248 162 248 c 0,33,34
 192 248 192 248 211.5 235.5 c 128,-1,35
 231 223 231 223 245 195 c 1,0,1
227 153 m 0,36,37
 227 224 227 224 183 224 c 0,38,39
 154 224 154 224 134 184 c 256,40,41
 114 144 114 144 114 83 c 0,42,43
 114 13 114 13 158 13 c 0,44,45
 188 13 188 13 207 53 c 0,46,47
 227 90 227 90 227 153 c 0,36,37
EndSplineSet
EndChar
StartChar: summation
Encoding: 8721 8721 153
Width: 364
Flags: W
Fore
37 407 m 1,0,-1
 37 448 l 1,1,-1
 321 448 l 1,2,-1
 321 385 l 1,3,-1
 130 385 l 1,4,-1
 262 168 l 1,5,-1
 129 -66 l 1,6,-1
 326 -66 l 1,7,-1
 326 -129 l 1,8,-1
 37 -129 l 1,9,-1
 37 -89 l 1,10,-1
 183 168 l 1,11,-1
 37 407 l 1,0,-1
EndSplineSet
EndChar
StartChar: product
Encoding: 8719 8719 154
Width: 364
Flags: W
Fore
319 -129 m 1,0,-1
 243 -129 l 1,1,-1
 243 387 l 1,2,-1
 120 387 l 1,3,-1
 120 -129 l 1,4,-1
 45 -129 l 1,5,-1
 45 448 l 1,6,-1
 319 448 l 1,7,-1
 319 -129 l 1,0,-1
EndSplineSet
EndChar
StartChar: pi
Encoding: 960 960 155
Width: 364
Flags: W
Fore
349 263 m 1,0,-1
 301 263 l 1,1,-1
 301 107 l 2,2,3
 301 67 301 67 308 59 c 0,4,5
 316 50 316 50 336 50 c 0,6,7
 344 50 344 50 348.5 50 c 128,-1,8
 353 50 353 50 358 51 c 1,9,-1
 358 -4 l 1,10,11
 331 -12 331 -12 300 -12 c 0,12,13
 252 -12 252 -12 234 8 c 0,14,15
 224 18 224 18 221 30 c 0,16,17
 217 42 217 42 217 69 c 2,18,-1
 217 79 l 1,19,-1
 217 263 l 1,20,-1
 136 263 l 1,21,-1
 136 0 l 1,22,-1
 52 0 l 1,23,-1
 52 263 l 1,24,-1
 4 263 l 1,25,-1
 4 325 l 1,26,-1
 349 325 l 1,27,-1
 349 263 l 1,0,-1
EndSplineSet
EndChar
StartChar: integral
Encoding: 8747 8747 156
Width: 364
Flags: W
Fore
108 -74 m 0,0,1
 139 -74 139 -74 143 114 c 0,2,3
 144 134 144 134 144.5 150 c 128,-1,4
 145 166 145 166 145 177 c 0,5,6
 150 326 150 326 181 392 c 0,7,8
 213 458 213 458 278 458 c 0,9,10
 309 458 309 458 324 444 c 0,11,12
 342 429 342 429 342 406 c 0,13,14
 342 388 342 388 330.5 377.5 c 128,-1,15
 319 367 319 367 301 367 c 0,16,17
 274 367 274 367 266 394 c 1,18,19
 266 397 266 397 265.5 401 c 128,-1,20
 265 405 265 405 264 410 c 1,21,22
 264 424 264 424 255 424 c 0,23,24
 226 424 226 424 220 237 c 0,25,26
 220 220 220 220 219.5 207 c 128,-1,27
 219 194 219 194 219 184 c 0,28,29
 217 140 217 140 215 107.5 c 128,-1,30
 213 75 213 75 209 53 c 0,31,32
 205 11 205 11 192 -21 c 0,33,34
 158 -110 158 -110 85 -110 c 0,35,36
 58 -110 58 -110 39 -96 c 0,37,38
 21 -81 21 -81 21 -58 c 0,39,40
 21 -40 21 -40 32 -29 c 128,-1,41
 43 -18 43 -18 63 -18 c 0,42,43
 79 -18 79 -18 89 -27 c 256,44,45
 99 -36 99 -36 99 -48 c 0,46,47
 99 -64 99 -64 101 -70 c 0,48,49
 102 -74 102 -74 108 -74 c 0,0,1
EndSplineSet
EndChar
StartChar: ordfeminine
Encoding: 170 170 157
Width: 364
Flags: W
Fore
232 318 m 1,0,-1
 202 318 l 2,1,2
 140 318 140 318 140 286 c 0,3,4
 140 255 140 255 174 255 c 0,5,6
 200 255 200 255 216 271 c 0,7,8
 232 286 232 286 232 309 c 2,9,-1
 232 318 l 1,0,-1
232 239 m 1,10,11
 203 206 203 206 158 206 c 0,12,13
 121 206 121 206 98 226 c 0,14,15
 76 247 76 247 76 281 c 0,16,17
 76 360 76 360 186 360 c 2,18,-1
 232 360 l 1,19,-1
 232 367 l 2,20,21
 232 396 232 396 178 396 c 0,22,23
 129 396 129 396 93 376 c 1,24,-1
 93 432 l 1,25,26
 135 448 135 448 181 448 c 0,27,28
 237 448 237 448 263 423 c 128,-1,29
 289 398 289 398 289 344 c 2,30,-1
 289 212 l 1,31,-1
 232 212 l 1,32,-1
 232 239 l 1,33,-1
 232 239 l 1,10,11
289 176 m 1,34,-1
 289 126 l 1,35,-1
 86 126 l 1,36,-1
 86 176 l 1,37,-1
 289 176 l 1,34,-1
EndSplineSet
EndChar
StartChar: ordmasculine
Encoding: 186 186 158
Width: 364
Flags: W
Fore
289 176 m 1,0,-1
 289 126 l 1,1,-1
 86 126 l 1,2,-1
 86 176 l 1,3,-1
 289 176 l 1,0,-1
81 327 m 0,4,5
 81 383 81 383 110 415 c 0,6,7
 139 448 139 448 188 448 c 256,8,9
 237 448 237 448 266 416 c 0,10,11
 295 382 295 382 295 327 c 256,12,13
 295 272 295 272 266 238 c 0,14,15
 237 206 237 206 188 206 c 256,16,17
 139 206 139 206 110 238 c 0,18,19
 81 272 81 272 81 327 c 0,4,5
188 396 m 256,20,21
 166 396 166 396 153.5 377.5 c 128,-1,22
 141 359 141 359 141 327 c 256,23,24
 141 295 141 295 153.5 276.5 c 128,-1,25
 166 258 166 258 188 258 c 256,26,27
 210 258 210 258 222.5 276.5 c 128,-1,28
 235 295 235 295 235 327 c 256,29,30
 235 359 235 359 222.5 377.5 c 128,-1,31
 210 396 210 396 188 396 c 256,20,21
EndSplineSet
EndChar
StartChar: Omega
Encoding: 937 937 159
Width: 364
Flags: W
Fore
97 62 m 1,0,1
 62 94 62 94 45 134 c 0,2,3
 30 175 30 175 30 231 c 0,4,5
 30 324 30 324 71 377 c 0,6,7
 112 431 112 431 181 431 c 0,8,9
 251 431 251 431 293 377 c 0,10,11
 334 322 334 322 334 231 c 0,12,13
 334 173 334 173 318 134 c 0,14,15
 303 95 303 95 267 62 c 1,16,-1
 337 62 l 1,17,-1
 337 0 l 1,18,-1
 198 0 l 1,19,-1
 198 79 l 1,20,21
 222 102 222 102 233.5 136.5 c 128,-1,22
 245 171 245 171 245 221 c 0,23,24
 245 284 245 284 228.5 318 c 128,-1,25
 212 352 212 352 182 352 c 256,26,27
 152 352 152 352 135 318 c 128,-1,28
 118 284 118 284 118 221 c 0,29,30
 118 124 118 124 166 79 c 1,31,-1
 166 0 l 1,32,-1
 27 0 l 1,33,-1
 27 62 l 1,34,-1
 97 62 l 1,0,1
EndSplineSet
EndChar
StartChar: ae
Encoding: 230 230 160
Width: 364
Flags: W
Fore
144 142 m 1,0,-1
 123 142 l 2,1,2
 71 142 71 142 71 97 c 0,3,4
 71 54 71 54 108 54 c 0,5,6
 144 54 144 54 144 106 c 2,7,-1
 144 118 l 1,8,-1
 144 142 l 1,0,-1
284 210 m 2,9,10
 284 248 284 248 277 261 c 0,11,12
 269 275 269 275 251 275 c 256,13,14
 233 275 233 275 225 261 c 256,15,16
 217 247 217 247 217 210 c 2,17,-1
 217 204 l 1,18,-1
 284 204 l 1,19,-1
 284 210 l 2,9,10
217 141 m 1,20,21
 217 99 217 99 231.5 76.5 c 128,-1,22
 246 54 246 54 275 54 c 0,23,24
 310 54 310 54 345 89 c 1,25,-1
 345 17 l 1,26,27
 318 -9 318 -9 269 -9 c 0,28,29
 208 -9 208 -9 182 40 c 1,30,31
 158 -9 158 -9 103 -9 c 0,32,33
 55 -9 55 -9 29.5 18 c 128,-1,34
 4 45 4 45 4 96 c 0,35,36
 4 205 4 205 124 205 c 2,37,-1
 146 205 l 1,38,-1
 146 220 l 2,39,40
 146 275 146 275 101 275 c 0,41,42
 68 275 68 275 22 243 c 1,43,-1
 22 315 l 1,44,45
 65 338 65 338 104 338 c 0,46,47
 161 338 161 338 181 301 c 1,48,49
 189 319 189 319 208.5 328.5 c 128,-1,50
 228 338 228 338 255 338 c 0,51,52
 307 338 307 338 329 303 c 0,53,54
 350 269 350 269 350 179 c 2,55,-1
 350 141 l 1,56,-1
 217 141 l 1,20,21
EndSplineSet
EndChar
StartChar: oslash
Encoding: 248 248 161
Width: 364
Flags: W
Fore
142 77 m 1,0,1
 162 62 162 62 182 62 c 0,2,3
 213 62 213 62 231 89 c 0,4,5
 248 118 248 118 248 165 c 0,6,7
 248 173 248 173 247.5 182 c 128,-1,8
 247 191 247 191 245 199 c 1,9,-1
 142 77 l 1,0,1
220 254 m 1,10,11
 212 261 212 261 203 264.5 c 128,-1,12
 194 268 194 268 182 268 c 0,13,14
 151 268 151 268 133 241 c 128,-1,15
 115 214 115 214 115 165 c 0,16,17
 115 147 115 147 118 132 c 1,18,-1
 220 254 l 1,10,11
55 59 m 1,19,20
 29 102 29 102 29 165 c 0,21,22
 29 244 29 244 70 291 c 256,23,24
 111 338 111 338 182 338 c 0,25,26
 232 338 232 338 270 312 c 1,27,-1
 314 364 l 1,28,-1
 355 329 l 1,29,-1
 307 273 l 1,30,31
 335 226 335 226 335 165 c 0,32,33
 335 85 335 85 293 38 c 0,34,35
 252 -9 252 -9 182 -9 c 0,36,37
 132 -9 132 -9 93 18 c 1,38,-1
 48 -35 l 1,39,-1
 7 1 l 1,40,-1
 55 59 l 1,41,-1
 55 59 l 1,19,20
EndSplineSet
EndChar
StartChar: questiondown
Encoding: 191 191 162
Width: 364
Flags: W
Fore
157 357 m 1,0,-1
 157 440 l 1,1,-1
 236 440 l 1,2,-1
 236 357 l 1,3,-1
 157 357 l 1,0,-1
236 322 m 1,4,-1
 236 277 l 2,5,6
 236 247 236 247 227 227 c 0,7,8
 216 205 216 205 194 183 c 2,9,-1
 167 157 l 2,10,11
 150 140 150 140 142 127 c 0,12,13
 136 115 136 115 136 103 c 0,14,15
 136 63 136 63 190 63 c 0,16,17
 239 63 239 63 297 104 c 1,18,-1
 297 25 l 1,19,20
 239 -8 239 -8 179 -8 c 0,21,22
 118 -8 118 -8 86 20 c 0,23,24
 52 47 52 47 52 96 c 0,25,26
 52 119 52 119 62 138 c 0,27,28
 73 158 73 158 100 184 c 2,29,-1
 126 210 l 2,30,31
 136 219 136 219 142 227 c 128,-1,32
 148 235 148 235 151 241 c 256,33,34
 154 247 154 247 155 255 c 128,-1,35
 156 263 156 263 156 272 c 1,36,37
 157 274 l 1,38,-1
 157 286 l 1,39,-1
 157 322 l 1,40,-1
 236 322 l 1,4,-1
EndSplineSet
EndChar
StartChar: exclamdown
Encoding: 161 161 163
Width: 364
Flags: W
Fore
142 357 m 1,0,-1
 142 440 l 1,1,-1
 221 440 l 1,2,-1
 221 357 l 1,3,-1
 142 357 l 1,0,-1
142 0 m 1,4,-1
 142 193 l 1,5,-1
 152 299 l 1,6,-1
 211 299 l 1,7,-1
 221 193 l 1,8,-1
 221 0 l 1,9,-1
 142 0 l 1,4,-1
EndSplineSet
EndChar
StartChar: logicalnot
Encoding: 172 172 164
Width: 364
Flags: W
Fore
338 265 m 1,0,-1
 338 107 l 1,1,-1
 268 107 l 1,2,-1
 268 195 l 1,3,-1
 26 195 l 1,4,-1
 26 265 l 1,5,-1
 338 265 l 1,0,-1
EndSplineSet
EndChar
StartChar: radical
Encoding: 8730 8730 165
Width: 364
Flags: W
Fore
14 256 m 1,0,-1
 118 292 l 1,1,-1
 168 121 l 1,2,-1
 283 509 l 1,3,-1
 346 509 l 1,4,-1
 346 448 l 1,5,-1
 331 448 l 1,6,-1
 195 -12 l 1,7,-1
 140 -12 l 1,8,-1
 76 213 l 1,9,-1
 33 198 l 1,10,-1
 14 256 l 1,0,-1
EndSplineSet
EndChar
StartChar: florin
Encoding: 402 402 166
Width: 364
Flags: W
Fore
340 376 m 1,0,1
 316 391 316 391 293 391 c 0,2,3
 240 391 240 391 230 317 c 2,4,-1
 222 261 l 1,5,-1
 299 261 l 1,6,-1
 299 196 l 1,7,-1
 214 196 l 1,8,-1
 186 -14 l 2,9,10
 178 -68 178 -68 149 -97 c 128,-1,11
 120 -126 120 -126 72 -126 c 0,12,13
 36 -126 36 -126 4 -111 c 1,14,-1
 4 -42 l 1,15,16
 30 -58 30 -58 51 -58 c 0,17,18
 106 -58 106 -58 115 16 c 2,19,-1
 139 196 l 1,20,-1
 65 196 l 1,21,-1
 65 261 l 1,22,-1
 148 261 l 1,23,-1
 159 348 l 2,24,25
 166 401 166 401 195.5 430 c 128,-1,26
 225 459 225 459 273 459 c 0,27,28
 309 459 309 459 340 444 c 1,29,-1
 340 376 l 1,0,1
EndSplineSet
EndChar
StartChar: approxequal
Encoding: 8776 8776 167
Width: 364
Flags: W
Fore
338 109 m 1,0,1
 315 91 315 91 294 83 c 128,-1,2
 273 75 273 75 250 75 c 0,3,4
 223 75 223 75 190 90 c 0,5,6
 187 92 187 92 185 92.5 c 128,-1,7
 183 93 183 93 181 94 c 0,8,9
 169 99 169 99 159.5 102.5 c 128,-1,10
 150 106 150 106 142 108 c 0,11,12
 127 111 127 111 112 111 c 0,13,14
 68 111 68 111 26 76 c 1,15,-1
 26 143 l 1,16,17
 49 161 49 161 70.5 169 c 128,-1,18
 92 177 92 177 117 177 c 0,19,20
 131 177 131 177 147.5 173 c 128,-1,21
 164 169 164 169 183 161 c 0,22,23
 185 160 185 160 187.5 159 c 128,-1,24
 190 158 190 158 193 157 c 0,25,26
 225 141 225 141 255 141 c 0,27,28
 295 141 295 141 338 178 c 1,29,-1
 338 109 l 1,0,1
338 232 m 1,30,31
 294 198 294 198 250 198 c 0,32,33
 223 198 223 198 190 213 c 0,34,35
 182 217 182 217 181 217 c 1,36,37
 169 222 169 222 159.5 225.5 c 128,-1,38
 150 229 150 229 142 231 c 256,39,40
 134 233 134 233 127 234 c 128,-1,41
 120 235 120 235 112 235 c 0,42,43
 68 235 68 235 26 199 c 1,44,-1
 26 266 l 1,45,46
 49 284 49 284 70.5 292 c 128,-1,47
 92 300 92 300 117 300 c 0,48,49
 131 300 131 300 147.5 296 c 128,-1,50
 164 292 164 292 183 284 c 0,51,52
 189 282 189 282 192 280 c 0,53,54
 225 264 225 264 255 264 c 0,55,56
 276 264 276 264 296 272.5 c 128,-1,57
 316 281 316 281 338 301 c 1,58,-1
 338 232 l 1,30,31
EndSplineSet
EndChar
StartChar: Delta
Encoding: 8710 8710 168
Width: 364
Flags: W
Fore
182 307 m 1,0,-1
 101 65 l 1,1,-1
 263 65 l 1,2,-1
 182 307 l 1,0,-1
220 420 m 1,3,-1
 366 0 l 1,4,-1
 -2 0 l 1,5,-1
 144 420 l 1,6,-1
 220 420 l 1,3,-1
EndSplineSet
EndChar
StartChar: guillemotleft
Encoding: 171 171 169
Width: 364
Flags: W
Fore
307 242 m 1,0,-1
 226 177 l 1,1,-1
 307 112 l 1,2,-1
 307 42 l 1,3,-1
 169 158 l 1,4,-1
 169 196 l 1,5,-1
 307 312 l 1,6,-1
 307 242 l 1,0,-1
173 242 m 1,7,-1
 92 177 l 1,8,-1
 173 112 l 1,9,-1
 173 42 l 1,10,-1
 35 158 l 1,11,-1
 35 196 l 1,12,-1
 173 312 l 1,13,-1
 173 242 l 1,7,-1
EndSplineSet
EndChar
StartChar: guillemotright
Encoding: 187 187 170
Width: 364
Flags: W
Fore
195 196 m 1,0,-1
 195 158 l 1,1,-1
 57 42 l 1,2,-1
 57 112 l 1,3,-1
 138 177 l 1,4,-1
 57 242 l 1,5,-1
 57 312 l 1,6,-1
 195 196 l 1,0,-1
329 196 m 1,7,-1
 329 158 l 1,8,-1
 191 42 l 1,9,-1
 191 112 l 1,10,-1
 273 177 l 1,11,-1
 191 242 l 1,12,-1
 191 312 l 1,13,-1
 329 196 l 1,7,-1
EndSplineSet
EndChar
StartChar: ellipsis
Encoding: 8230 8230 171
Width: 364
Flags: W
Fore
347 108 m 1,0,-1
 347 0 l 1,1,-1
 260 0 l 1,2,-1
 260 108 l 1,3,-1
 347 108 l 1,0,-1
225 108 m 1,4,-1
 225 0 l 1,5,-1
 138 0 l 1,6,-1
 138 108 l 1,7,-1
 225 108 l 1,4,-1
104 108 m 1,8,-1
 104 0 l 1,9,-1
 17 0 l 1,10,-1
 17 108 l 1,11,-1
 104 108 l 1,8,-1
EndSplineSet
EndChar
StartChar: OE
Encoding: 338 338 176
Width: 364
Flags: W
Fore
359 0 m 1,0,-1
 187 0 l 2,1,2
 91 0 91 0 55 46 c 0,3,4
 20 92 20 92 20 220 c 0,5,6
 20 349 20 349 56 394 c 0,7,8
 92 440 92 440 187 440 c 2,9,-1
 356 440 l 1,10,-1
 356 364 l 1,11,-1
 258 364 l 1,12,-1
 258 272 l 1,13,-1
 347 272 l 1,14,-1
 347 195 l 1,15,-1
 258 195 l 1,16,-1
 258 77 l 1,17,-1
 359 77 l 1,18,-1
 359 0 l 1,0,-1
168 364 m 1,19,20
 132 364 132 364 118 337 c 0,21,22
 104 311 104 311 104 220 c 0,23,24
 104 128 104 128 118 102 c 0,25,26
 131 77 131 77 168 77 c 2,27,-1
 183 77 l 1,28,-1
 183 364 l 1,29,-1
 168 364 l 1,30,-1
 168 364 l 1,19,20
EndSplineSet
EndChar
StartChar: oe
Encoding: 339 339 177
Width: 364
Flags: W
Fore
224 141 m 1,0,1
 224 99 224 99 238.5 76.5 c 128,-1,2
 253 54 253 54 281 54 c 0,3,4
 317 54 317 54 352 89 c 1,5,-1
 352 17 l 1,6,7
 325 -9 325 -9 276 -9 c 0,8,9
 220 -9 220 -9 191 35 c 1,10,11
 168 -9 168 -9 110 -9 c 0,12,13
 55 -9 55 -9 29 32 c 0,14,15
 4 72 4 72 4 165 c 256,16,17
 4 258 4 258 29 298 c 256,18,19
 54 338 54 338 110 338 c 0,20,21
 139 338 139 338 157.5 329.5 c 128,-1,22
 176 321 176 321 188 301 c 1,23,24
 205 338 205 338 262 338 c 0,25,26
 315 338 315 338 335 303 c 0,27,28
 357 269 357 269 357 179 c 2,29,-1
 357 141 l 1,30,-1
 224 141 l 1,0,1
291 214 m 2,31,32
 291 249 291 249 283.5 262.5 c 128,-1,33
 276 276 276 276 257 276 c 0,34,35
 240 276 240 276 232 261 c 0,36,37
 224 247 224 247 224 210 c 2,38,-1
 224 204 l 1,39,-1
 291 204 l 1,40,-1
 291 214 l 2,31,32
153 165 m 256,41,42
 153 235 153 235 145 256 c 0,43,44
 136 276 136 276 114 276 c 0,45,46
 91 276 91 276 82 256 c 0,47,48
 73 237 73 237 73 165 c 0,49,50
 73 94 73 94 82 74 c 256,51,52
 91 54 91 54 114 54 c 0,53,54
 136 54 136 54 145 74 c 0,55,56
 153 95 153 95 153 165 c 256,41,42
EndSplineSet
EndChar
StartChar: endash
Encoding: 8211 8211 178
Width: 364
Flags: W
Fore
364 204 m 1,0,-1
 364 131 l 1,1,-1
 0 131 l 1,2,-1
 0 204 l 1,3,-1
 364 204 l 1,0,-1
EndSplineSet
EndChar
StartChar: emdash
Encoding: 8212 8212 179
Width: 364
Flags: W
Fore
364 204 m 1,0,-1
 364 131 l 1,1,-1
 0 131 l 1,2,-1
 0 204 l 1,3,-1
 364 204 l 1,0,-1
EndSplineSet
EndChar
StartChar: quotedblleft
Encoding: 8220 8220 180
Width: 364
Flags: W
Fore
45 266 m 1,0,-1
 45 346 l 1,1,-1
 103 459 l 1,2,-1
 166 459 l 1,3,-1
 137 346 l 1,4,-1
 137 266 l 1,5,-1
 45 266 l 1,0,-1
198 266 m 1,6,-1
 198 346 l 1,7,-1
 256 459 l 1,8,-1
 319 459 l 1,9,-1
 291 346 l 1,10,-1
 291 266 l 1,11,-1
 198 266 l 1,6,-1
EndSplineSet
EndChar
StartChar: quotedblright
Encoding: 8221 8221 181
Width: 364
Flags: W
Fore
319 459 m 1,0,-1
 319 379 l 1,1,-1
 261 266 l 1,2,-1
 198 266 l 1,3,-1
 227 379 l 1,4,-1
 227 459 l 1,5,-1
 319 459 l 1,0,-1
165 459 m 1,6,-1
 165 379 l 1,7,-1
 108 266 l 1,8,-1
 44 266 l 1,9,-1
 73 379 l 1,10,-1
 73 459 l 1,11,-1
 165 459 l 1,6,-1
EndSplineSet
EndChar
StartChar: quoteleft
Encoding: 8216 8216 182
Width: 364
Flags: W
Fore
127 266 m 1,0,-1
 127 346 l 1,1,-1
 186 459 l 1,2,-1
 249 459 l 1,3,-1
 220 346 l 1,4,-1
 220 266 l 1,5,-1
 127 266 l 1,0,-1
EndSplineSet
EndChar
StartChar: quoteright
Encoding: 8217 8217 183
Width: 364
Flags: W
Fore
249 459 m 1,0,-1
 249 379 l 1,1,-1
 191 266 l 1,2,-1
 127 266 l 1,3,-1
 156 379 l 1,4,-1
 156 459 l 1,5,-1
 249 459 l 1,0,-1
EndSplineSet
EndChar
StartChar: divide
Encoding: 247 247 184
Width: 364
Flags: W
Fore
227 353 m 1,0,-1
 227 262 l 1,1,-1
 136 262 l 1,2,-1
 136 353 l 1,3,-1
 227 353 l 1,0,-1
227 117 m 1,4,-1
 227 25 l 1,5,-1
 136 25 l 1,6,-1
 136 117 l 1,7,-1
 227 117 l 1,4,-1
344 225 m 1,8,-1
 344 155 l 1,9,-1
 19 155 l 1,10,-1
 19 225 l 1,11,-1
 344 225 l 1,8,-1
EndSplineSet
EndChar
StartChar: lozenge
Encoding: 9674 9674 185
Width: 364
Flags: W
Fore
68 175 m 1,0,-1
 182 -69 l 1,1,-1
 295 175 l 1,2,-1
 182 416 l 1,3,-1
 68 175 l 1,0,-1
329 175 m 1,4,-1
 182 -141 l 1,5,-1
 35 175 l 1,6,-1
 182 488 l 1,7,-1
 329 175 l 1,4,-1
EndSplineSet
EndChar
StartChar: fraction
Encoding: 8725 8725 188
Width: 364
Flags: W
Fore
333 440 m 1,0,-1
 101 -55 l 1,1,-1
 31 -55 l 1,2,-1
 262 440 l 1,3,-1
 333 440 l 1,0,-1
EndSplineSet
EndChar
StartChar: currency
Encoding: 164 164 189
Width: 364
Flags: W
Fore
244 190 m 0,0,1
 244 211 244 211 229 226 c 0,2,3
 213 240 213 240 193 240 c 0,4,5
 172 240 172 240 156 226 c 0,6,7
 141 211 141 211 141 190 c 0,8,9
 141 168 141 168 156 153 c 256,10,11
 171 138 171 138 193 138 c 0,12,13
 214 138 214 138 229 153 c 256,14,15
 244 168 244 168 244 190 c 0,0,1
292 327 m 1,16,-1
 330 289 l 1,17,-1
 280 239 l 1,18,19
 293 214 293 214 293 189 c 0,20,21
 293 161 293 161 279 141 c 1,22,-1
 330 91 l 1,23,-1
 291 52 l 1,24,-1
 241 103 l 1,25,26
 221 89 221 89 193 89 c 0,27,28
 170 89 170 89 143 101 c 1,29,-1
 93 52 l 1,30,-1
 55 90 l 1,31,-1
 105 140 l 1,32,33
 92 165 92 165 92 189 c 0,34,35
 92 217 92 217 106 238 c 1,36,-1
 55 288 l 1,37,-1
 94 327 l 1,38,-1
 142 276 l 1,39,40
 166 290 166 290 193 290 c 0,41,42
 216 290 216 290 242 277 c 1,43,-1
 292 327 l 1,16,-1
EndSplineSet
EndChar
StartChar: guilsinglleft
Encoding: 8249 8249 190
Width: 364
Flags: W
Fore
240 242 m 1,0,-1
 159 177 l 1,1,-1
 240 112 l 1,2,-1
 240 42 l 1,3,-1
 102 158 l 1,4,-1
 102 196 l 1,5,-1
 240 312 l 1,6,-1
 240 242 l 1,0,-1
EndSplineSet
EndChar
StartChar: guilsinglright
Encoding: 8250 8250 191
Width: 364
Flags: W
Fore
262 196 m 1,0,-1
 262 158 l 1,1,-1
 124 42 l 1,2,-1
 124 112 l 1,3,-1
 206 177 l 1,4,-1
 124 242 l 1,5,-1
 124 312 l 1,6,-1
 262 196 l 1,0,-1
EndSplineSet
EndChar
StartChar: fi
Encoding: 64257 64257 192
Width: 364
Flags: W
Fore
324 459 m 1,0,-1
 324 373 l 1,1,-1
 237 373 l 1,2,-1
 237 459 l 1,3,-1
 324 459 l 1,0,-1
146 330 m 1,4,-1
 324 330 l 1,5,-1
 324 0 l 1,6,-1
 237 0 l 1,7,-1
 237 264 l 1,8,-1
 146 264 l 1,9,-1
 146 0 l 1,10,-1
 59 0 l 1,11,-1
 59 264 l 1,12,-1
 4 264 l 1,13,-1
 4 330 l 1,14,-1
 59 330 l 1,15,-1
 59 353 l 2,16,17
 59 413 59 413 84 436 c 256,18,19
 109 459 109 459 176 459 c 2,20,-1
 199 459 l 1,21,-1
 199 393 l 1,22,-1
 179 393 l 2,23,24
 162 393 162 393 153 386 c 0,25,26
 146 379 146 379 146 360 c 2,27,-1
 146 330 l 1,4,-1
EndSplineSet
Ligature: 0 0 'liga' f i
EndChar
StartChar: fl
Encoding: 64258 64258 193
Width: 364
Flags: W
Fore
146 330 m 1,0,-1
 201 330 l 1,1,-1
 201 264 l 1,2,-1
 146 264 l 1,3,-1
 146 0 l 1,4,-1
 59 0 l 1,5,-1
 59 264 l 1,6,-1
 4 264 l 1,7,-1
 4 330 l 1,8,-1
 59 330 l 1,9,-1
 59 353 l 2,10,11
 59 413 59 413 84 436 c 256,12,13
 109 459 109 459 176 459 c 2,14,-1
 324 459 l 1,15,-1
 324 0 l 1,16,-1
 237 0 l 1,17,-1
 237 393 l 1,18,-1
 179 393 l 2,19,20
 162 393 162 393 153 386 c 0,21,22
 146 379 146 379 146 360 c 2,23,-1
 146 330 l 1,0,-1
EndSplineSet
Ligature: 0 0 'liga' f l
EndChar
StartChar: daggerdbl
Encoding: 8225 8225 194
Width: 364
Flags: W
Fore
219 440 m 1,0,-1
 219 326 l 1,1,-1
 317 326 l 1,2,-1
 317 260 l 1,3,-1
 219 260 l 1,4,-1
 219 122 l 1,5,-1
 317 122 l 1,6,-1
 317 56 l 1,7,-1
 219 56 l 1,8,-1
 219 -58 l 1,9,-1
 144 -58 l 1,10,-1
 144 56 l 1,11,-1
 46 56 l 1,12,-1
 46 122 l 1,13,-1
 144 122 l 1,14,-1
 144 260 l 1,15,-1
 46 260 l 1,16,-1
 46 326 l 1,17,-1
 144 326 l 1,18,-1
 144 440 l 1,19,-1
 219 440 l 1,0,-1
EndSplineSet
EndChar
StartChar: periodcentered
Encoding: 183 183 195
Width: 364
Flags: W
Fore
231 264 m 1,0,-1
 231 156 l 1,1,-1
 132 156 l 1,2,-1
 132 264 l 1,3,-1
 231 264 l 1,0,-1
EndSplineSet
EndChar
StartChar: quotesinglbase
Encoding: 8218 8218 196
Width: 364
Flags: W
Fore
228 108 m 1,0,-1
 228 28 l 1,1,-1
 171 -85 l 1,2,-1
 107 -85 l 1,3,-1
 136 28 l 1,4,-1
 136 108 l 1,5,-1
 228 108 l 1,0,-1
EndSplineSet
EndChar
StartChar: quotedblbase
Encoding: 8222 8222 197
Width: 364
Flags: W
Fore
319 108 m 1,0,-1
 319 28 l 1,1,-1
 261 -85 l 1,2,-1
 198 -85 l 1,3,-1
 227 28 l 1,4,-1
 227 108 l 1,5,-1
 319 108 l 1,0,-1
165 108 m 1,6,-1
 165 28 l 1,7,-1
 108 -85 l 1,8,-1
 44 -85 l 1,9,-1
 73 28 l 1,10,-1
 73 108 l 1,11,-1
 165 108 l 1,6,-1
EndSplineSet
EndChar
StartChar: perthousand
Encoding: 8240 8240 198
Width: 364
Flags: W
Fore
195 85 m 1,0,1
 195 121 195 121 219 145 c 0,2,3
 246 170 246 170 279 170 c 256,4,5
 312 170 312 170 339 145 c 0,6,7
 364 120 364 120 364 85 c 0,8,9
 364 52 364 52 339 25 c 0,10,11
 314 0 314 0 279 0 c 256,12,13
 244 0 244 0 220 24 c 0,14,15
 195 51 195 51 195 84 c 2,16,-1
 195 85 l 1,17,-1
 195 85 l 1,0,1
279 122 m 0,18,19
 266 122 266 122 253 111 c 0,20,21
 243 101 243 101 243 85 c 256,22,23
 243 69 243 69 253 59 c 0,24,25
 263 48 263 48 279 48 c 256,26,27
 295 48 295 48 305 59 c 0,28,29
 316 70 316 70 316 85 c 256,30,31
 316 100 316 100 305 111 c 256,32,33
 294 122 294 122 279 122 c 0,18,19
0 338 m 0,34,35
 0 373 0 373 24 398 c 0,36,37
 50 422 50 422 85 422 c 256,38,39
 120 422 120 422 144 398 c 0,40,41
 168 373 168 373 168 338 c 256,42,43
 168 303 168 303 144 277 c 0,44,45
 120 253 120 253 85 253 c 0,46,47
 49 253 49 253 25 277 c 0,48,49
 0 302 0 302 0 338 c 0,34,35
84 375 m 0,50,51
 69 375 69 375 58.5 364.5 c 128,-1,52
 48 354 48 354 48 338 c 256,53,54
 48 322 48 322 58 312 c 0,55,56
 69 300 69 300 84 300 c 0,57,58
 100 300 100 300 110 312 c 0,59,60
 121 323 121 323 121 338 c 0,61,62
 121 351 121 351 110 364 c 1,63,64
 97 375 97 375 84 375 c 0,50,51
13 85 m 0,65,66
 13 121 13 121 37 145 c 0,67,68
 64 170 64 170 97 170 c 0,69,70
 132 170 132 170 157 145 c 256,71,72
 182 120 182 120 182 85 c 0,73,74
 182 52 182 52 157 25 c 0,75,76
 132 0 132 0 97 0 c 256,77,78
 62 0 62 0 38 25 c 0,79,80
 13 50 13 50 13 85 c 0,65,66
97 122 m 0,81,82
 82 122 82 122 72 112 c 0,83,84
 61 99 61 99 61 86 c 0,85,86
 61 70 61 70 72 59 c 256,87,88
 83 48 83 48 97 48 c 0,89,90
 112 48 112 48 123 59 c 256,91,92
 134 70 134 70 134 86 c 0,93,94
 134 100 134 100 123 111 c 0,95,96
 113 122 113 122 97 122 c 0,81,82
318 318 m 1,97,-1
 330 291 l 1,98,-1
 21 167 l 1,99,-1
 10 196 l 1,100,-1
 318 318 l 1,97,-1
EndSplineSet
EndChar
StartChar: dotlessi
Encoding: 305 305 214
Width: 364
Flags: W
Fore
236 330 m 1,0,-1
 236 66 l 1,1,-1
 344 66 l 1,2,-1
 344 0 l 1,3,-1
 42 0 l 1,4,-1
 42 66 l 1,5,-1
 150 66 l 1,6,-1
 150 264 l 1,7,-1
 65 264 l 1,8,-1
 65 330 l 1,9,-1
 236 330 l 1,0,-1
EndSplineSet
EndChar
StartChar: circumflex
Encoding: 710 710 215
Width: 364
Flags: W
Fore
217 483 m 1,0,-1
 293 372 l 1,1,-1
 240 372 l 1,2,-1
 182 439 l 1,3,-1
 123 372 l 1,4,-1
 71 372 l 1,5,-1
 146 483 l 1,6,-1
 217 483 l 1,0,-1
EndSplineSet
EndChar
StartChar: tilde
Encoding: 732 732 216
Width: 364
Flags: W
Fore
166 413 m 2,0,1
 165 414 165 414 164.5 414 c 128,-1,2
 164 414 164 414 163 416 c 1,3,4
 149 424 149 424 142 424 c 0,5,6
 120 424 120 424 120 389 c 2,7,-1
 120 386 l 1,8,-1
 79 386 l 1,9,10
 79 427 79 427 94 448.5 c 128,-1,11
 109 470 109 470 137 470 c 0,12,13
 158 470 158 470 181 453 c 2,14,-1
 199 440 l 2,15,16
 206 436 206 436 211 433.5 c 128,-1,17
 216 431 216 431 221 431 c 0,18,19
 243 431 243 431 243 467 c 2,20,-1
 243 469 l 1,21,-1
 285 469 l 1,22,23
 285 429 285 429 269.5 407.5 c 128,-1,24
 254 386 254 386 227 386 c 0,25,26
 216 386 216 386 206 389 c 128,-1,27
 196 392 196 392 182 402 c 2,28,-1
 166 413 l 2,0,1
EndSplineSet
EndChar
StartChar: macron
Encoding: 175 175 217
Width: 364
Flags: W
Fore
275 459 m 1,0,-1
 275 404 l 1,1,-1
 89 404 l 1,2,-1
 89 459 l 1,3,-1
 275 459 l 1,0,-1
EndSplineSet
EndChar
StartChar: breve
Encoding: 728 728 218
Width: 364
Flags: W
Fore
124 474 m 1,0,1
 132 431 132 431 182 431 c 0,2,3
 231 431 231 431 239 474 c 1,4,-1
 281 474 l 1,5,6
 276 386 276 386 182 386 c 0,7,8
 135 386 135 386 110 408.5 c 128,-1,9
 85 431 85 431 83 474 c 1,10,-1
 124 474 l 1,0,1
EndSplineSet
EndChar
StartChar: dotaccent
Encoding: 729 729 219
Width: 364
Flags: W
Fore
222 468 m 1,0,-1
 222 395 l 1,1,-1
 141 395 l 1,2,-1
 141 468 l 1,3,-1
 222 468 l 1,0,-1
EndSplineSet
EndChar
StartChar: ring
Encoding: 730 730 220
Width: 364
Flags: W
Fore
98 453 m 0,0,1
 98 488 98 488 122 512 c 0,2,3
 135 524 135 524 149.5 530.5 c 128,-1,4
 164 537 164 537 182 537 c 0,5,6
 216 537 216 537 241 512 c 0,7,8
 266 488 266 488 266 453 c 0,9,10
 266 417 266 417 241 393 c 0,11,12
 216 368 216 368 182 368 c 0,13,14
 164 368 164 368 149.5 374.5 c 128,-1,15
 135 381 135 381 122 393 c 0,16,17
 98 417 98 417 98 453 c 0,0,1
143 453 m 0,18,19
 143 436 143 436 154 425 c 0,20,21
 167 414 167 414 182 414 c 0,22,23
 198 414 198 414 209 425 c 0,24,25
 221 437 221 437 221 453 c 0,26,27
 221 468 221 468 209 480 c 0,28,29
 196 491 196 491 182 491 c 0,30,31
 167 491 167 491 154 480 c 1,32,33
 143 467 143 467 143 453 c 0,18,19
EndSplineSet
EndChar
StartChar: cedilla
Encoding: 184 184 221
Width: 364
Flags: W
Fore
209 0 m 1,0,1
 242 -36 242 -36 242 -63 c 0,2,3
 242 -118 242 -118 168 -118 c 0,4,5
 137 -118 137 -118 108 -111 c 1,6,-1
 108 -65 l 1,7,8
 122 -70 122 -70 134 -72.5 c 128,-1,9
 146 -75 146 -75 157 -75 c 0,10,11
 193 -75 193 -75 193 -50 c 0,12,13
 193 -35 193 -35 167 0 c 1,14,-1
 209 0 l 1,15,-1
 209 0 l 1,0,1
EndSplineSet
EndChar
StartChar: hungarumlaut
Encoding: 733 733 222
Width: 364
Flags: W
Fore
320 483 m 1,0,-1
 240 372 l 1,1,-1
 189 372 l 1,2,-1
 252 483 l 1,3,-1
 320 483 l 1,0,-1
209 483 m 1,4,-1
 136 372 l 1,5,-1
 88 372 l 1,6,-1
 145 483 l 1,7,-1
 209 483 l 1,4,-1
EndSplineSet
EndChar
StartChar: ogonek
Encoding: 731 731 223
Width: 364
Flags: W
Fore
206 0 m 1,0,1
 190 -23 190 -23 185 -31 c 0,2,3
 179 -42 179 -42 179 -49 c 0,4,5
 179 -60 179 -60 188 -67.5 c 128,-1,6
 197 -75 197 -75 212 -75 c 0,7,8
 234 -75 234 -75 258 -66 c 1,9,-1
 258 -112 l 1,10,11
 227 -118 227 -118 202 -118 c 0,12,13
 132 -118 132 -118 132 -66 c 0,14,15
 132 -35 132 -35 164 0 c 1,16,-1
 206 0 l 1,0,1
EndSplineSet
EndChar
StartChar: caron
Encoding: 711 711 224
Width: 364
Flags: W
Fore
71 483 m 1,0,-1
 123 483 l 1,1,-1
 182 416 l 1,2,-1
 240 483 l 1,3,-1
 293 483 l 1,4,-1
 217 372 l 1,5,-1
 146 372 l 1,6,-1
 71 483 l 1,0,-1
EndSplineSet
EndChar
StartChar: Lslash
Encoding: 321 321 225
Width: 364
Flags: W
Fore
66 158 m 1,0,-1
 22 126 l 1,1,-1
 -12 171 l 1,2,-1
 66 227 l 1,3,-1
 66 440 l 1,4,-1
 153 440 l 1,5,-1
 153 287 l 1,6,-1
 235 344 l 1,7,-1
 268 299 l 1,8,-1
 153 219 l 1,9,-1
 153 77 l 1,10,-1
 340 77 l 1,11,-1
 340 0 l 1,12,-1
 66 0 l 1,13,-1
 66 158 l 1,0,-1
EndSplineSet
EndChar
StartChar: lslash
Encoding: 322 322 226
Width: 364
Flags: W
Fore
121 187 m 1,0,-1
 40 129 l 1,1,-1
 11 177 l 1,2,-1
 121 255 l 1,3,-1
 121 393 l 1,4,-1
 34 393 l 1,5,-1
 34 459 l 1,6,-1
 207 459 l 1,7,-1
 207 316 l 1,8,-1
 294 378 l 1,9,-1
 325 330 l 1,10,-1
 207 248 l 1,11,-1
 207 138 l 2,12,13
 207 99 207 99 219 82.5 c 128,-1,14
 231 66 231 66 260 66 c 2,15,-1
 329 66 l 1,16,-1
 329 0 l 1,17,-1
 236 0 l 2,18,19
 175 0 175 0 148 32 c 256,20,21
 121 64 121 64 121 138 c 2,22,-1
 121 187 l 1,0,-1
EndSplineSet
EndChar
StartChar: brokenbar
Encoding: 166 166 231
Width: 364
Flags: W
Fore
215 -103 m 1,0,-1
 148 -103 l 1,1,-1
 148 120 l 1,2,-1
 215 120 l 1,3,-1
 215 -103 l 1,0,-1
215 199 m 1,4,-1
 148 199 l 1,5,-1
 148 422 l 1,6,-1
 215 422 l 1,7,-1
 215 199 l 1,4,-1
EndSplineSet
EndChar
StartChar: Eth
Encoding: 208 208 232
Width: 364
Flags: W
Fore
127 266 m 1,0,-1
 190 266 l 1,1,-1
 190 196 l 1,2,-1
 127 196 l 1,3,-1
 127 78 l 1,4,-1
 151 78 l 2,5,6
 203 78 203 78 224 111 c 0,7,8
 246 142 246 142 246 221 c 0,9,10
 246 298 246 298 224 330 c 0,11,12
 203 362 203 362 151 362 c 2,13,-1
 127 362 l 1,14,-1
 127 266 l 1,0,-1
134 440 m 2,15,16
 243 440 243 440 289 389 c 0,17,18
 337 338 337 338 337 221 c 0,19,20
 337 103 337 103 289 52 c 0,21,22
 243 0 243 0 134 0 c 2,23,-1
 40 0 l 1,24,-1
 40 196 l 1,25,-1
 0 196 l 1,26,-1
 0 266 l 1,27,-1
 40 266 l 1,28,-1
 40 440 l 1,29,-1
 134 440 l 2,15,16
EndSplineSet
EndChar
StartChar: eth
Encoding: 240 240 233
Width: 364
Flags: W
Fore
239 224 m 1,0,1
 211 240 211 240 182 240 c 0,2,3
 151 240 151 240 133 219 c 256,4,5
 115 198 115 198 115 161 c 0,6,7
 115 114 115 114 132.5 88 c 128,-1,8
 150 62 150 62 181 62 c 0,9,10
 213 62 213 62 230 88.5 c 128,-1,11
 247 115 247 115 247 166 c 0,12,13
 247 180 247 180 245 194 c 128,-1,14
 243 208 243 208 239 224 c 1,0,1
277 325 m 1,15,16
 307 285 307 285 319 247 c 0,17,18
 332 211 332 211 332 165 c 0,19,20
 332 83 332 83 292 37 c 0,21,22
 251 -9 251 -9 181 -9 c 0,23,24
 110 -9 110 -9 70 37 c 0,25,26
 29 81 29 81 29 158 c 0,27,28
 29 228 29 228 67 269 c 0,29,30
 106 311 106 311 170 311 c 0,31,32
 190 311 190 311 208 303 c 1,33,-1
 161 368 l 1,34,-1
 69 333 l 1,35,-1
 53 367 l 1,36,-1
 136 399 l 1,37,-1
 89 459 l 1,38,-1
 176 459 l 1,39,-1
 203 425 l 1,40,-1
 291 462 l 1,41,-1
 310 426 l 1,42,-1
 228 391 l 1,43,-1
 277 325 l 1,44,-1
 277 325 l 1,15,16
EndSplineSet
EndChar
StartChar: Thorn
Encoding: 222 222 236
Width: 364
Flags: W
Fore
135 170 m 1,0,-1
 171 170 l 2,1,2
 214 170 214 170 231 184 c 0,3,4
 248 199 248 199 248 234 c 0,5,6
 248 271 248 271 230 284 c 0,7,8
 214 299 214 299 171 299 c 2,9,-1
 135 299 l 1,10,-1
 135 170 l 1,0,-1
135 440 m 1,11,-1
 135 370 l 1,12,-1
 167 370 l 2,13,14
 258 370 258 370 298 338 c 0,15,16
 338 305 338 305 338 232 c 0,17,18
 338 161 338 161 298 130 c 0,19,20
 257 98 257 98 167 98 c 2,21,-1
 135 98 l 1,22,-1
 135 0 l 1,23,-1
 48 0 l 1,24,-1
 48 440 l 1,25,-1
 135 440 l 1,11,-1
EndSplineSet
EndChar
StartChar: thorn
Encoding: 254 254 237
Width: 364
Flags: W
Fore
130 -126 m 1,0,-1
 44 -126 l 1,1,-1
 44 459 l 1,2,-1
 130 459 l 1,3,-1
 130 281 l 1,4,5
 157 338 157 338 218 338 c 0,6,7
 275 338 275 338 306 293 c 0,8,9
 337 249 337 249 337 165 c 0,10,11
 337 80 337 80 305 36 c 0,12,13
 274 -9 274 -9 215 -9 c 0,14,15
 163 -9 163 -9 130 47 c 1,16,-1
 130 -126 l 1,0,-1
251 165 m 256,17,18
 251 213 251 213 235 240.5 c 128,-1,19
 219 268 219 268 191 268 c 0,20,21
 164 268 164 268 147 240 c 256,22,23
 130 212 130 212 130 165 c 0,24,25
 130 119 130 119 147 91 c 256,26,27
 164 63 164 63 191 63 c 0,28,29
 219 63 219 63 235 90 c 128,-1,30
 251 117 251 117 251 165 c 256,17,18
EndSplineSet
EndChar
StartChar: minus
Encoding: 8722 8722 238
Width: 364
Flags: W
Fore
344 225 m 1,0,-1
 344 155 l 1,1,-1
 19 155 l 1,2,-1
 19 225 l 1,3,-1
 344 225 l 1,0,-1
EndSplineSet
EndChar
StartChar: multiply
Encoding: 215 215 239
Width: 364
Flags: W
Fore
231 190 m 1,0,-1
 328 92 l 1,1,-1
 278 43 l 1,2,-1
 181 140 l 1,3,-1
 85 43 l 1,4,-1
 35 92 l 1,5,-1
 132 190 l 1,6,-1
 35 286 l 1,7,-1
 85 336 l 1,8,-1
 181 239 l 1,9,-1
 278 336 l 1,10,-1
 328 286 l 1,11,-1
 231 190 l 1,0,-1
EndSplineSet
EndChar
StartChar: onesuperior
Encoding: 185 185 240
Width: 364
Flags: W
Fore
159 240 m 1,0,-1
 159 400 l 1,1,-1
 94 387 l 1,2,-1
 94 431 l 1,3,-1
 160 443 l 1,4,-1
 217 443 l 1,5,-1
 217 240 l 1,6,-1
 283 240 l 1,7,-1
 283 197 l 1,8,-1
 92 197 l 1,9,-1
 92 240 l 1,10,-1
 159 240 l 1,0,-1
EndSplineSet
EndChar
StartChar: twosuperior
Encoding: 178 178 241
Width: 364
Flags: W
Fore
277 240 m 1,0,-1
 277 197 l 1,1,-1
 81 197 l 1,2,-1
 81 239 l 1,3,4
 89 245 89 245 99 253.5 c 128,-1,5
 109 262 109 262 122 273 c 0,6,7
 215 351 215 351 215 374 c 0,8,9
 215 389 215 389 202.5 398 c 128,-1,10
 190 407 190 407 167 407 c 0,11,12
 136 407 136 407 88 387 c 1,13,-1
 88 435 l 1,14,15
 131 448 131 448 172 448 c 0,16,17
 222 448 222 448 249.5 429.5 c 128,-1,18
 277 411 277 411 277 379 c 0,19,20
 277 342 277 342 172 259 c 0,21,22
 164 253 164 253 158 248 c 128,-1,23
 152 243 152 243 148 240 c 1,24,-1
 277 240 l 1,0,-1
EndSplineSet
EndChar
StartChar: threesuperior
Encoding: 179 179 242
Width: 364
Flags: W
Fore
139 307 m 1,0,-1
 139 350 l 1,1,-1
 172 350 l 2,2,3
 194 350 194 350 206.5 357.5 c 128,-1,4
 219 365 219 365 219 378 c 0,5,6
 219 392 219 392 207 399.5 c 128,-1,7
 195 407 195 407 175 407 c 0,8,9
 134 407 134 407 94 393 c 1,10,-1
 94 438 l 1,11,12
 133 448 133 448 175 448 c 0,13,14
 225 448 225 448 250 431 c 0,15,16
 277 415 277 415 277 384 c 0,17,18
 277 363 277 363 261.5 349 c 128,-1,19
 246 335 246 335 217 330 c 1,20,21
 284 322 284 322 284 266 c 0,22,23
 284 230 284 230 255.5 211.5 c 128,-1,24
 227 193 227 193 173 193 c 0,25,26
 129 193 129 193 85 205 c 1,27,-1
 85 250 l 1,28,29
 105 242 105 242 127 238 c 128,-1,30
 149 234 149 234 173 234 c 0,31,32
 198 234 198 234 212 243 c 128,-1,33
 226 252 226 252 226 269 c 0,34,35
 226 287 226 287 212 297 c 128,-1,36
 198 307 198 307 172 307 c 2,37,-1
 139 307 l 1,0,-1
EndSplineSet
EndChar
StartChar: dcroat
Encoding: 273 273 255
Width: 364
Flags: W
Fore
233 369 m 1,0,-1
 143 369 l 1,1,-1
 143 425 l 1,2,-1
 233 425 l 1,3,-1
 233 459 l 1,4,-1
 319 459 l 1,5,-1
 319 425 l 1,6,-1
 363 425 l 1,7,-1
 363 369 l 1,8,-1
 319 369 l 1,9,-1
 319 0 l 1,10,-1
 233 0 l 1,11,-1
 233 49 l 1,12,13
 206 -9 206 -9 146 -9 c 0,14,15
 89 -9 89 -9 58 37 c 0,16,17
 27 81 27 81 27 165 c 0,18,19
 27 250 27 250 58 294 c 0,20,21
 90 338 90 338 149 338 c 0,22,23
 202 338 202 338 233 283 c 1,24,-1
 233 369 l 1,0,-1
113 164 m 256,25,26
 113 116 113 116 128.5 89 c 128,-1,27
 144 62 144 62 173 62 c 0,28,29
 201 62 201 62 217 89 c 0,30,31
 233 115 233 115 233 164 c 256,32,33
 233 213 233 213 217 239 c 0,34,35
 201 266 201 266 173 266 c 0,36,37
 144 266 144 266 128.5 239 c 128,-1,38
 113 212 113 212 113 164 c 256,25,26
EndSplineSet
EndChar
StartChar: sfthyphen
Encoding: 173 173 256
Width: 364
Flags: W
Fore
275 217 m 1,0,-1
 275 131 l 1,1,-1
 89 131 l 1,2,-1
 89 217 l 1,3,-1
 275 217 l 1,0,-1
EndSplineSet
EndChar
StartChar: periodcentered
Encoding: 8729 8729 257
Width: 364
Flags: W
Fore
233 266 m 1,0,-1
 233 154 l 1,1,-1
 130 154 l 1,2,-1
 130 266 l 1,3,-1
 233 266 l 1,0,-1
EndSplineSet
EndChar
StartChar: Euro
Encoding: 8364 8364 258
Width: 364
Flags: W
Fore
62 298 m 1,0,1
 75 372 75 372 118 410 c 128,-1,2
 161 448 161 448 230 448 c 0,3,4
 278 448 278 448 318 427 c 1,5,-1
 318 330 l 1,6,7
 276 375 276 375 232 375 c 0,8,9
 168 375 168 375 150 298 c 1,10,-1
 280 298 l 1,11,-1
 255 242 l 1,12,-1
 143 242 l 1,13,14
 142 237 142 237 142 232 c 128,-1,15
 142 227 142 227 142 216 c 2,16,-1
 142 198 l 1,17,-1
 236 198 l 1,18,-1
 211 142 l 1,19,-1
 150 142 l 1,20,21
 157 105 157 105 178 85 c 128,-1,22
 199 65 199 65 231 65 c 0,23,24
 275 65 275 65 318 109 c 1,25,-1
 318 13 l 1,26,27
 277 -9 277 -9 230 -9 c 0,28,29
 161 -9 161 -9 118 29.5 c 128,-1,30
 75 68 75 68 62 142 c 1,31,-1
 2 142 l 1,32,-1
 27 198 l 1,33,-1
 55 198 l 1,34,35
 55 202 55 202 54.5 206.5 c 128,-1,36
 54 211 54 211 54 220 c 0,37,38
 54 228 54 228 54.5 232.5 c 128,-1,39
 55 237 55 237 55 242 c 1,40,-1
 2 242 l 1,41,-1
 27 298 l 1,42,-1
 62 298 l 1,43,-1
 62 298 l 1,0,1
EndSplineSet
EndChar
StartChar: c6459
Encoding: 65539 -1 259
Width: 364
Flags: W
Fore
275 450 m 1,0,-1
 275 378 l 1,1,-1
 205 378 l 1,2,-1
 205 450 l 1,3,-1
 275 450 l 1,0,-1
158 450 m 1,4,-1
 158 378 l 1,5,-1
 89 378 l 1,6,-1
 89 450 l 1,7,-1
 158 450 l 1,4,-1
EndSplineSet
EndChar
StartChar: c6460
Encoding: 65540 -1 260
Width: 364
Flags: W
Fore
281 450 m 1,0,-1
 196 372 l 1,1,-1
 138 372 l 1,2,-1
 197 450 l 1,3,-1
 281 450 l 1,0,-1
EndSplineSet
EndChar
StartChar: c6461
Encoding: 65541 -1 261
Width: 364
Flags: W
Fore
166 397 m 1,0,1
 165 397 165 397 163 399 c 1,2,3
 149 407 149 407 141 407 c 0,4,5
 132 407 132 407 126 398 c 128,-1,6
 120 389 120 389 120 374 c 2,7,-1
 120 372 l 1,8,-1
 79 372 l 1,9,-1
 79 381 l 2,10,11
 79 413 79 413 95 432 c 0,12,13
 112 451 112 451 137 451 c 0,14,15
 159 451 159 451 181 436 c 2,16,-1
 199 425 l 2,17,18
 211 416 211 416 221 416 c 0,19,20
 243 416 243 416 243 451 c 1,21,-1
 285 451 l 1,22,23
 285 449 285 449 284.5 446.5 c 128,-1,24
 284 444 284 444 284 442 c 0,25,26
 284 410 284 410 268 391 c 0,27,28
 253 372 253 372 227 372 c 0,29,30
 216 372 216 372 205.5 375.5 c 128,-1,31
 195 379 195 379 182 387 c 2,32,-1
 166 397 l 1,0,1
EndSplineSet
EndChar
StartChar: c6468
Encoding: 65542 -1 262
Width: 364
Flags: W
Fore
226 372 m 1,0,-1
 168 372 l 1,1,-1
 83 450 l 1,2,-1
 167 450 l 1,3,-1
 226 372 l 1,0,-1
EndSplineSet
EndChar
StartChar: c6470
Encoding: 65543 -1 263
Width: 364
Flags: W
Fore
227 450 m 1,0,-1
 293 372 l 1,1,-1
 240 372 l 1,2,-1
 182 420 l 1,3,-1
 123 372 l 1,4,-1
 71 372 l 1,5,-1
 136 450 l 1,6,-1
 227 450 l 1,0,-1
EndSplineSet
EndChar
StartChar: c6472
Encoding: 65544 -1 264
Width: 364
Flags: W
Fore
71 450 m 1,0,-1
 123 450 l 1,1,-1
 182 402 l 1,2,-1
 240 450 l 1,3,-1
 293 450 l 1,4,-1
 227 372 l 1,5,-1
 136 372 l 1,6,-1
 71 450 l 1,0,-1
EndSplineSet
EndChar
StartChar: c6477
Encoding: 65545 -1 265
Width: 364
Flags: W
Fore
14 182 m 1,0,-1
 326 260 l 1,1,-1
 337 225 l 1,2,-1
 25 148 l 1,3,-1
 14 182 l 1,0,-1
EndSplineSet
EndChar
StartChar: c6478
Encoding: 65546 -1 266
Width: 364
Flags: W
Fore
115 292 m 1,0,-1
 189 292 l 1,1,-1
 189 390 l 1,2,-1
 115 292 l 1,0,-1
243 443 m 1,3,-1
 243 292 l 1,4,-1
 276 292 l 1,5,-1
 276 250 l 1,6,-1
 243 250 l 1,7,-1
 243 197 l 1,8,-1
 189 197 l 1,9,-1
 189 250 l 1,10,-1
 73 250 l 1,11,-1
 73 298 l 1,12,-1
 183 443 l 1,13,-1
 243 443 l 1,3,-1
EndSplineSet
EndChar
StartChar: c6475
Encoding: 65547 -1 267
Width: 364
Flags: W
Fore
124 450 m 1,0,1
 137 414 137 414 182 414 c 256,2,3
 227 414 227 414 239 450 c 1,4,-1
 281 450 l 1,5,6
 276 412 276 412 251 392 c 128,-1,7
 226 372 226 372 182 372 c 256,8,9
 138 372 138 372 113 392 c 128,-1,10
 88 412 88 412 83 450 c 1,11,-1
 124 450 l 1,0,1
EndSplineSet
EndChar
StartChar: c6476
Encoding: 65548 -1 268
Width: 364
Flags: W
Fore
222 450 m 1,0,-1
 222 378 l 1,1,-1
 141 378 l 1,2,-1
 141 450 l 1,3,-1
 222 450 l 1,0,-1
EndSplineSet
EndChar
StartChar: uni0E01
Encoding: 3585 3585 270
Width: 364
Flags: W
Fore
181 334 m 0,0,1
 156 334 156 334 132.5 321 c 128,-1,2
 109 308 109 308 91 290 c 1,3,-1
 153 290 l 1,4,-1
 153 246 l 1,5,6
 136 240 136 240 128.5 225 c 128,-1,7
 121 210 121 210 121 195 c 2,8,-1
 121 0 l 1,9,-1
 59 0 l 1,10,-1
 59 187 l 2,11,12
 59 202 59 202 72 218.5 c 128,-1,13
 85 235 85 235 94 244 c 1,14,-1
 31 244 l 1,15,-1
 31 308 l 1,16,17
 66 343 66 343 100 364.5 c 128,-1,18
 134 386 134 386 184 386 c 0,19,20
 211 386 211 386 238 379.5 c 128,-1,21
 265 373 265 373 286.5 358.5 c 128,-1,22
 308 344 308 344 321 322 c 128,-1,23
 334 300 334 300 334 268 c 2,24,-1
 334 0 l 1,25,-1
 272 0 l 1,26,-1
 272 252 l 2,27,28
 272 300 272 300 249 317 c 128,-1,29
 226 334 226 334 181 334 c 0,0,1
EndSplineSet
EndChar
StartChar: uni0E02
Encoding: 3586 3586 271
Width: 364
Flags: W
Fore
128 124 m 1,0,1
 128 147 128 147 139 167.5 c 128,-1,2
 150 188 150 188 162.5 207.5 c 128,-1,3
 175 227 175 227 186 247.5 c 128,-1,4
 197 268 197 268 197 290 c 0,5,6
 197 310 197 310 183 323.5 c 128,-1,7
 169 337 169 337 149 337 c 0,8,9
 135 337 135 337 127 332 c 1,10,11
 153 331 153 331 164.5 314.5 c 128,-1,12
 176 298 176 298 176 275 c 0,13,14
 176 245 176 245 158 229.5 c 128,-1,15
 140 214 140 214 111 214 c 0,16,17
 85 214 85 214 65 227.5 c 128,-1,18
 45 241 45 241 45 270 c 0,19,20
 45 293 45 293 52 314.5 c 128,-1,21
 59 336 59 336 72 352 c 128,-1,22
 85 368 85 368 104 377.5 c 128,-1,23
 123 387 123 387 148 387 c 0,24,25
 195 387 195 387 222.5 360 c 128,-1,26
 250 333 250 333 250 286 c 0,27,28
 250 264 250 264 240.5 243 c 128,-1,29
 231 222 231 222 220 201.5 c 128,-1,30
 209 181 209 181 199.5 160.5 c 128,-1,31
 190 140 190 140 190 119 c 2,32,-1
 190 53 l 1,33,-1
 260 53 l 1,34,-1
 260 383 l 1,35,-1
 322 383 l 1,36,-1
 322 0 l 1,37,-1
 128 0 l 1,38,-1
 128 128 l 1,39,-1
 128 124 l 1,0,1
92 274 m 0,40,41
 92 265 92 265 98 258.5 c 128,-1,42
 104 252 104 252 113 252 c 256,43,44
 122 252 122 252 128.5 258.5 c 128,-1,45
 135 265 135 265 135 274 c 0,46,47
 135 284 135 284 128.5 290.5 c 128,-1,48
 122 297 122 297 113 297 c 256,49,50
 104 297 104 297 98 290.5 c 128,-1,51
 92 284 92 284 92 274 c 0,40,41
EndSplineSet
EndChar
StartChar: uni0E03
Encoding: 3587 3587 272
Width: 364
Flags: W
Fore
123 115 m 2,0,1
 123 124 123 124 127.5 139.5 c 128,-1,2
 132 155 132 155 139 171 c 128,-1,3
 146 187 146 187 153 201.5 c 128,-1,4
 160 216 160 216 166 223 c 1,5,6
 155 213 155 213 141 208.5 c 128,-1,7
 127 204 127 204 114 204 c 0,8,9
 94 204 94 204 80 213 c 128,-1,10
 66 222 66 222 57.5 236 c 128,-1,11
 49 250 49 250 45.5 266.5 c 128,-1,12
 42 283 42 283 42 299 c 0,13,14
 42 311 42 311 45 326.5 c 128,-1,15
 48 342 48 342 54.5 355.5 c 128,-1,16
 61 369 61 369 72.5 378 c 128,-1,17
 84 387 84 387 101 387 c 0,18,19
 109 387 109 387 115.5 383.5 c 128,-1,20
 122 380 122 380 128.5 375.5 c 128,-1,21
 135 371 135 371 140.5 367 c 128,-1,22
 146 363 146 363 152 363 c 0,23,24
 156 363 156 363 159.5 367 c 128,-1,25
 163 371 163 371 167.5 376 c 128,-1,26
 172 381 172 381 178 385 c 128,-1,27
 184 389 184 389 191 389 c 0,28,29
 224 389 224 389 239 366 c 128,-1,30
 254 343 254 343 254 314 c 0,31,32
 254 290 254 290 243 265 c 128,-1,33
 232 240 232 240 219.5 215 c 128,-1,34
 207 190 207 190 196 166 c 128,-1,35
 185 142 185 142 185 120 c 2,36,-1
 185 53 l 1,37,-1
 263 53 l 1,38,-1
 263 387 l 1,39,-1
 325 387 l 1,40,-1
 325 0 l 1,41,-1
 123 0 l 1,42,-1
 123 115 l 2,0,1
175 250 m 2,43,44
 175 249 175 249 173 240.5 c 128,-1,45
 171 232 171 232 171 231 c 1,46,47
 181 248 181 248 190 267 c 128,-1,48
 199 286 199 286 200 316 c 0,49,50
 200 321 200 321 197.5 328.5 c 128,-1,51
 195 336 195 336 191 336 c 0,52,53
 184 336 184 336 180 331.5 c 128,-1,54
 176 327 176 327 172 322 c 128,-1,55
 168 317 168 317 163 312 c 128,-1,56
 158 307 158 307 150 307 c 1,57,58
 160 299 160 299 167.5 289.5 c 128,-1,59
 175 280 175 280 175 266 c 2,60,-1
 175 250 l 2,43,44
136 312 m 1,61,62
 134 314 l 130,-1,63
 132 316 132 316 130 318.5 c 128,-1,64
 128 321 128 321 126 323 c 130,-1,65
 124 325 l 2,66,67
 121 327 121 327 117 331 c 128,-1,68
 113 335 113 335 108 335 c 256,69,70
 103 335 103 335 97.5 325.5 c 128,-1,71
 92 316 92 316 92 311 c 1,72,73
 94 312 94 312 100 313.5 c 128,-1,74
 106 315 106 315 111 315 c 0,75,76
 117 315 117 315 125 314 c 128,-1,77
 133 313 133 313 136 312 c 1,61,62
96 260 m 256,78,79
 96 251 96 251 101.5 245 c 128,-1,80
 107 239 107 239 116 239 c 0,81,82
 124 239 124 239 130 245 c 128,-1,83
 136 251 136 251 136 260 c 256,84,85
 136 269 136 269 130 275 c 128,-1,86
 124 281 124 281 116 281 c 0,87,88
 107 281 107 281 101.5 275 c 128,-1,89
 96 269 96 269 96 260 c 256,78,79
EndSplineSet
EndChar
StartChar: uni0E04
Encoding: 3588 3588 273
Width: 364
Flags: W
Fore
266 260 m 1,0,1
 266 298 266 298 243.5 316.5 c 128,-1,2
 221 335 221 335 180 335 c 0,3,4
 138 335 138 335 111.5 310.5 c 128,-1,5
 85 286 85 286 85 240 c 0,6,7
 85 214 85 214 89 190.5 c 128,-1,8
 93 167 93 167 98 143 c 1,9,10
 104 165 104 165 108 189.5 c 128,-1,11
 112 214 112 214 119 234 c 128,-1,12
 126 254 126 254 140 267.5 c 128,-1,13
 154 281 154 281 180 281 c 0,14,15
 212 281 212 281 232 263 c 128,-1,16
 252 245 252 245 252 212 c 0,17,18
 252 184 252 184 233.5 162 c 128,-1,19
 215 140 215 140 185 140 c 0,20,21
 166 140 166 140 151 148 c 1,22,23
 147 133 147 133 143 116 c 128,-1,24
 139 99 139 99 136 81 c 128,-1,25
 133 63 133 63 131.5 46.5 c 128,-1,26
 130 30 130 30 130 16 c 2,27,-1
 132 0 l 1,28,-1
 67 0 l 1,29,30
 64 32 64 32 57 62 c 128,-1,31
 50 92 50 92 43.5 121.5 c 128,-1,32
 37 151 37 151 32 180.5 c 128,-1,33
 27 210 27 210 27 242 c 0,34,35
 27 317 27 317 69 351.5 c 128,-1,36
 111 386 111 386 180 386 c 0,37,38
 208 386 208 386 234.5 379.5 c 128,-1,39
 261 373 261 373 282 359 c 128,-1,40
 303 345 303 345 315.5 322.5 c 128,-1,41
 328 300 328 300 328 267 c 2,42,-1
 328 0 l 1,43,-1
 266 0 l 1,44,-1
 266 260 l 1,45,-1
 266 260 l 1,0,1
165 212 m 0,46,47
 165 203 165 203 171 196.5 c 128,-1,48
 177 190 177 190 186 190 c 256,49,50
 195 190 195 190 201 196.5 c 128,-1,51
 207 203 207 203 207 212 c 0,52,53
 207 222 207 222 201 228.5 c 128,-1,54
 195 235 195 235 186 235 c 256,55,56
 177 235 177 235 171 228.5 c 128,-1,57
 165 222 165 222 165 212 c 0,46,47
EndSplineSet
EndChar
StartChar: uni0E05
Encoding: 3589 3589 274
Width: 364
Flags: W
Fore
196 307 m 1,0,1
 185 307 185 307 177.5 310.5 c 128,-1,2
 170 314 170 314 163.5 318.5 c 128,-1,3
 157 323 157 323 150.5 326.5 c 128,-1,4
 144 330 144 330 134 330 c 0,5,6
 122 330 122 330 113 321.5 c 128,-1,7
 104 313 104 313 98 300.5 c 128,-1,8
 92 288 92 288 89 274 c 128,-1,9
 86 260 86 260 86 250 c 0,10,11
 86 223 86 223 91.5 196 c 128,-1,12
 97 169 97 169 105 142 c 1,13,14
 108 162 108 162 111 185.5 c 128,-1,15
 114 209 114 209 121.5 229.5 c 128,-1,16
 129 250 129 250 144.5 264 c 128,-1,17
 160 278 160 278 188 278 c 0,18,19
 218 278 218 278 240 261 c 128,-1,20
 262 244 262 244 262 212 c 0,21,22
 262 183 262 183 242 160.5 c 128,-1,23
 222 138 222 138 191 138 c 0,24,25
 177 138 177 138 165 145 c 1,26,27
 155 110 155 110 145.5 73.5 c 128,-1,28
 136 37 136 37 130 0 c 1,29,-1
 74 0 l 1,30,31
 73 34 73 34 65 64.5 c 128,-1,32
 57 95 57 95 49 124.5 c 128,-1,33
 41 154 41 154 34 184.5 c 128,-1,34
 27 215 27 215 27 249 c 0,35,36
 27 273 27 273 34 297.5 c 128,-1,37
 41 322 41 322 54.5 342.5 c 128,-1,38
 68 363 68 363 89 376 c 128,-1,39
 110 389 110 389 137 389 c 0,40,41
 147 389 147 389 154 384 c 128,-1,42
 161 379 161 379 167.5 373.5 c 128,-1,43
 174 368 174 368 180.5 363 c 128,-1,44
 187 358 187 358 196 358 c 256,45,46
 205 358 205 358 212 363 c 128,-1,47
 219 368 219 368 226 374 c 128,-1,48
 233 380 233 380 240 385 c 128,-1,49
 247 390 247 390 255 390 c 0,50,51
 275 390 275 390 290.5 380.5 c 128,-1,52
 306 371 306 371 317 357 c 128,-1,53
 328 343 328 343 334 325.5 c 128,-1,54
 340 308 340 308 340 291 c 2,55,-1
 340 0 l 1,56,-1
 278 0 l 1,57,-1
 278 263 l 2,58,59
 278 271 278 271 277.5 282 c 128,-1,60
 277 293 277 293 274.5 303.5 c 128,-1,61
 272 314 272 314 266.5 322 c 128,-1,62
 261 330 261 330 252 330 c 1,63,-1
 196 307 l 1,0,1
174 210 m 256,64,65
 174 201 174 201 180.5 194.5 c 128,-1,66
 187 188 187 188 196 188 c 0,67,68
 204 188 204 188 210.5 194.5 c 128,-1,69
 217 201 217 201 217 210 c 256,70,71
 217 219 217 219 210.5 225.5 c 128,-1,72
 204 232 204 232 196 232 c 0,73,74
 187 232 187 232 180.5 225.5 c 128,-1,75
 174 219 174 219 174 210 c 256,64,65
EndSplineSet
EndChar
StartChar: uni0E06
Encoding: 3590 3590 275
Width: 364
Flags: W
Fore
183 104 m 1,0,-1
 183 39 l 2,1,2
 183 25 183 25 177 16 c 128,-1,3
 171 7 171 7 161 1.5 c 128,-1,4
 151 -4 151 -4 139.5 -6.5 c 128,-1,5
 128 -9 128 -9 117 -9 c 0,6,7
 99 -9 99 -9 85 -0.5 c 128,-1,8
 71 8 71 8 61.5 21.5 c 128,-1,9
 52 35 52 35 47.5 51.5 c 128,-1,10
 43 68 43 68 43 84 c 256,11,12
 43 100 43 100 49.5 116.5 c 128,-1,13
 56 133 56 133 67 146 c 128,-1,14
 78 159 78 159 93 167.5 c 128,-1,15
 108 176 108 176 125 177 c 1,16,17
 125 188 125 188 130 201.5 c 128,-1,18
 135 215 135 215 140 224 c 1,19,20
 129 216 129 216 117 211.5 c 128,-1,21
 105 207 105 207 91 207 c 0,22,23
 73 207 73 207 60.5 215 c 128,-1,24
 48 223 48 223 40 236 c 128,-1,25
 32 249 32 249 28.5 264 c 128,-1,26
 25 279 25 279 25 293 c 0,27,28
 25 303 25 303 27.5 319.5 c 128,-1,29
 30 336 30 336 36 351.5 c 128,-1,30
 42 367 42 367 51.5 378.5 c 128,-1,31
 61 390 61 390 75 390 c 0,32,33
 86 390 86 390 94.5 385 c 128,-1,34
 103 380 103 380 110.5 374.5 c 128,-1,35
 118 369 118 369 125 364 c 128,-1,36
 132 359 132 359 140 359 c 0,37,38
 147 359 147 359 152 364 c 128,-1,39
 157 369 157 369 162 375 c 128,-1,40
 167 381 167 381 172.5 386 c 128,-1,41
 178 391 178 391 187 391 c 0,42,43
 204 391 204 391 215.5 383.5 c 128,-1,44
 227 376 227 376 234.5 365 c 128,-1,45
 242 354 242 354 245 340 c 128,-1,46
 248 326 248 326 248 312 c 0,47,48
 248 292 248 292 238 273.5 c 128,-1,49
 228 255 228 255 216 238 c 128,-1,50
 204 221 204 221 194 205.5 c 128,-1,51
 184 190 184 190 184 175 c 0,52,53
 184 172 184 172 184.5 170.5 c 128,-1,54
 185 169 185 169 185 168 c 0,55,56
 185 166 185 166 192 160 c 128,-1,57
 199 154 199 154 200 154 c 1,58,59
 212 143 212 143 221 135 c 128,-1,60
 230 127 230 127 238 119.5 c 128,-1,61
 246 112 246 112 255 103.5 c 128,-1,62
 264 95 264 95 277 83 c 1,63,-1
 277 389 l 1,64,-1
 339 389 l 1,65,-1
 339 0 l 1,66,-1
 283 0 l 1,67,-1
 183 104 l 1,0,-1
157 272 m 0,68,69
 157 264 157 264 155.5 253.5 c 128,-1,70
 154 243 154 243 151 237 c 1,71,72
 153 239 153 239 157 242 c 128,-1,73
 161 245 161 245 164 248 c 0,74,75
 177 262 177 262 184 274.5 c 128,-1,76
 191 287 191 287 191 315 c 0,77,78
 191 320 191 320 187.5 327 c 128,-1,79
 184 334 184 334 179 334 c 0,80,81
 175 334 175 334 171.5 330.5 c 128,-1,82
 168 327 168 327 164 323 c 128,-1,83
 156 315 l 128,-1,84
 152 311 152 311 146 311 c 2,85,-1
 142 311 l 2,86,87
 140 311 140 311 138 310 c 1,88,89
 146 302 146 302 151.5 293 c 128,-1,90
 157 284 157 284 157 272 c 0,68,69
123 42 m 0,91,92
 125 42 125 42 126 49.5 c 128,-1,93
 127 57 127 57 127 60 c 2,94,-1
 127 123 l 1,95,96
 112 116 112 116 106 103.5 c 128,-1,97
 100 91 100 91 100 80 c 256,98,99
 100 69 100 69 105 55.5 c 128,-1,100
 110 42 110 42 123 42 c 0,91,92
75 317 m 1,101,102
 85 321 85 321 101 321 c 0,103,104
 109 321 l 128,-1,105
 113 321 113 321 117 320 c 1,106,107
 116 322 116 322 111.5 324.5 c 128,-1,108
 107 327 107 327 102.5 330 c 128,-1,109
 98 333 98 333 94 335 c 128,-1,110
 90 337 90 337 89 337 c 0,111,112
 87 337 87 337 81.5 329 c 128,-1,113
 76 321 76 321 75 317 c 1,101,102
76 265 m 0,114,115
 76 243 76 243 96 243 c 0,116,117
 115 243 115 243 115 265 c 0,118,119
 115 274 115 274 109.5 280 c 128,-1,120
 104 286 104 286 96 286 c 0,121,122
 87 286 87 286 81.5 280 c 128,-1,123
 76 274 76 274 76 265 c 0,114,115
EndSplineSet
EndChar
StartChar: uni0E07
Encoding: 3591 3591 276
Width: 364
Flags: W
Fore
250 50 m 1,0,-1
 250 248 l 1,1,2
 245 247 245 247 235 247 c 0,3,4
 204 247 204 247 179.5 266.5 c 128,-1,5
 155 286 155 286 155 319 c 0,6,7
 155 353 155 353 179 373.5 c 128,-1,8
 203 394 203 394 235 394 c 0,9,10
 268 394 268 394 290 374 c 128,-1,11
 312 354 312 354 312 320 c 2,12,-1
 312 0 l 1,13,-1
 224 0 l 1,14,-1
 63 195 l 1,15,-1
 125 195 l 1,16,-1
 250 50 l 1,0,-1
214 319 m 0,17,18
 214 310 214 310 220 303.5 c 128,-1,19
 226 297 226 297 235 297 c 256,20,21
 244 297 244 297 250.5 303.5 c 128,-1,22
 257 310 257 310 257 319 c 0,23,24
 257 329 257 329 250.5 335.5 c 128,-1,25
 244 342 244 342 235 342 c 256,26,27
 226 342 226 342 220 335.5 c 128,-1,28
 214 329 214 329 214 319 c 0,17,18
EndSplineSet
EndChar
StartChar: uni0E08
Encoding: 3592 3592 277
Width: 364
Flags: W
Fore
327 247 m 0,0,1
 325 222 325 222 324 198.5 c 128,-1,2
 323 175 323 175 322 150 c 0,3,4
 318 74 l 128,-1,5
 316 36 316 36 314 0 c 1,6,-1
 195 0 l 1,7,-1
 175 132 l 1,8,9
 168 128 168 128 161 127 c 128,-1,10
 154 126 154 126 146 126 c 0,11,12
 113 126 113 126 92.5 148.5 c 128,-1,13
 72 171 72 171 72 202 c 0,14,15
 72 236 72 236 96 253 c 128,-1,16
 120 270 120 270 150 270 c 0,17,18
 172 270 172 270 186 262 c 128,-1,19
 200 254 200 254 208.5 241 c 128,-1,20
 217 228 217 228 221 211.5 c 128,-1,21
 225 195 225 195 228 178 c 2,22,-1
 246 53 l 1,23,-1
 259 53 l 1,24,25
 261 101 261 101 262.5 149.5 c 128,-1,26
 264 198 264 198 264 246 c 0,27,28
 264 288 264 288 247.5 310.5 c 128,-1,29
 231 333 231 333 186 333 c 0,30,31
 148 333 148 333 108.5 311.5 c 128,-1,32
 69 290 69 290 37 252 c 1,33,-1
 37 329 l 1,34,35
 50 347 50 347 68 359 c 128,-1,36
 86 371 86 371 106 378 c 128,-1,37
 126 385 126 385 147.5 388 c 128,-1,38
 169 391 169 391 188 391 c 0,39,40
 261 391 261 391 294 354.5 c 128,-1,41
 327 318 327 318 327 247 c 0,0,1
125 198 m 256,42,43
 125 189 125 189 131.5 182.5 c 128,-1,44
 138 176 138 176 146 176 c 0,45,46
 155 176 155 176 161.5 182.5 c 128,-1,47
 168 189 168 189 168 198 c 256,48,49
 168 207 168 207 161.5 213.5 c 128,-1,50
 155 220 155 220 146 220 c 0,51,52
 138 220 138 220 131.5 213.5 c 128,-1,53
 125 207 125 207 125 198 c 256,42,43
EndSplineSet
EndChar
StartChar: uni0E09
Encoding: 3593 3593 278
Width: 364
Flags: W
Fore
226 126 m 2,0,1
 239 136 239 136 251 147.5 c 128,-1,2
 263 159 263 159 263 172 c 2,3,-1
 263 253 l 2,4,5
 263 292 263 292 239.5 315 c 128,-1,6
 216 338 216 338 173 338 c 0,7,8
 154 338 154 338 132 330.5 c 128,-1,9
 110 323 110 323 88.5 310.5 c 128,-1,10
 67 298 67 298 46 283 c 128,-1,11
 25 268 25 268 8 253 c 1,12,-1
 8 332 l 1,13,14
 23 346 23 346 43.5 357 c 128,-1,15
 64 368 64 368 86.5 376 c 128,-1,16
 109 384 109 384 131.5 388.5 c 128,-1,17
 154 393 154 393 173 393 c 0,18,19
 200 393 200 393 227.5 386 c 128,-1,20
 255 379 255 379 276.5 364 c 128,-1,21
 298 349 298 349 311.5 325.5 c 128,-1,22
 325 302 325 302 325 268 c 2,23,-1
 325 158 l 2,24,25
 325 139 325 139 315 126 c 1,26,27
 334 118 334 118 344 101.5 c 128,-1,28
 354 85 354 85 354 64 c 0,29,30
 354 34 354 34 335.5 12.5 c 128,-1,31
 317 -9 317 -9 286 -9 c 0,32,33
 257 -9 257 -9 238.5 10 c 128,-1,34
 220 29 220 29 220 58 c 2,35,-1
 220 67 l 1,36,37
 204 54 204 54 192 37 c 128,-1,38
 180 20 180 20 169 0 c 1,39,-1
 112 0 l 1,40,-1
 112 115 l 1,41,42
 107 114 107 114 102.5 113.5 c 128,-1,43
 98 113 98 113 93 113 c 0,44,45
 65 113 65 113 45.5 129.5 c 128,-1,46
 26 146 26 146 26 176 c 0,47,48
 26 209 26 209 46.5 229.5 c 128,-1,49
 67 250 67 250 101 250 c 0,50,51
 141 250 141 250 156.5 225.5 c 128,-1,52
 172 201 172 201 172 165 c 2,53,-1
 172 86 l 1,54,-1
 226 126 l 2,0,1
303 61 m 256,55,56
 303 69 303 69 299.5 77 c 128,-1,57
 296 85 296 85 289 85 c 0,58,59
 280 85 280 85 276 77.5 c 128,-1,60
 272 70 272 70 272 61 c 0,61,62
 272 53 272 53 275.5 44 c 128,-1,63
 279 35 279 35 287 35 c 256,64,65
 295 35 295 35 299 44 c 128,-1,66
 303 53 303 53 303 61 c 256,55,56
77 181 m 0,67,68
 77 171 77 171 83.5 164.5 c 128,-1,69
 90 158 90 158 99 158 c 0,70,71
 107 158 107 158 113.5 164.5 c 128,-1,72
 120 171 120 171 120 181 c 0,73,74
 120 190 120 190 113.5 196.5 c 128,-1,75
 107 203 107 203 99 203 c 0,76,77
 90 203 90 203 83.5 196.5 c 128,-1,78
 77 190 77 190 77 181 c 0,67,68
EndSplineSet
EndChar
StartChar: uni0E0A
Encoding: 3594 3594 279
Width: 364
Flags: W
Fore
101 112 m 2,0,1
 101 138 101 138 112.5 160.5 c 128,-1,2
 124 183 124 183 138.5 205.5 c 128,-1,3
 153 228 153 228 164.5 250.5 c 128,-1,4
 176 273 176 273 176 299 c 0,5,6
 176 319 176 319 164.5 332 c 128,-1,7
 153 345 153 345 134 345 c 0,8,9
 117 345 117 345 109 339 c 128,-1,10
 101 333 101 333 95 329 c 1,11,-1
 113 330 l 2,12,13
 133 330 133 330 144 313 c 128,-1,14
 155 296 155 296 155 275 c 0,15,16
 155 247 155 247 139 230 c 128,-1,17
 123 213 123 213 95 213 c 0,18,19
 60 213 60 213 43.5 234 c 128,-1,20
 27 255 27 255 27 287 c 0,21,22
 27 335 27 335 56 363 c 128,-1,23
 85 391 85 391 133 391 c 0,24,25
 219 391 219 391 229 316 c 1,26,27
 255 330 255 330 269 351 c 128,-1,28
 283 372 283 372 283 405 c 1,29,-1
 345 405 l 1,30,31
 345 390 345 390 340 374 c 128,-1,32
 335 358 335 358 327 343 c 128,-1,33
 319 328 319 328 307.5 314.5 c 128,-1,34
 296 301 296 301 283 292 c 1,35,36
 298 279 298 279 308 262 c 128,-1,37
 318 245 318 245 318 227 c 2,38,-1
 318 0 l 1,39,-1
 101 0 l 1,40,-1
 101 112 l 2,0,1
256 218 m 1,41,42
 256 234 256 234 252.5 251.5 c 128,-1,43
 249 269 249 269 229 274 c 1,44,45
 227 258 227 258 216.5 237.5 c 128,-1,46
 206 217 206 217 194 196 c 128,-1,47
 182 175 182 175 172.5 155 c 128,-1,48
 163 135 163 135 163 118 c 2,49,-1
 163 53 l 1,50,-1
 256 53 l 1,51,-1
 256 218 l 1,52,-1
 256 218 l 1,41,42
74 273 m 0,53,54
 74 263 74 263 80 256.5 c 128,-1,55
 86 250 86 250 95 250 c 256,56,57
 104 250 104 250 110.5 256.5 c 128,-1,58
 117 263 117 263 117 273 c 0,59,60
 117 282 117 282 110.5 288.5 c 128,-1,61
 104 295 104 295 95 295 c 256,62,63
 86 295 86 295 80 288.5 c 128,-1,64
 74 282 74 282 74 273 c 0,53,54
EndSplineSet
EndChar
StartChar: uni0E0B
Encoding: 3595 3595 280
Width: 364
Flags: W
Fore
70 317 m 1,0,1
 79 322 79 322 91 322 c 0,2,3
 102 322 102 322 112 320 c 1,4,5
 109 322.5 l 130,-1,6
 106 325 106 325 102.5 328.5 c 128,-1,7
 99 332 99 332 95 335 c 128,-1,8
 91 338 91 338 89 338 c 0,9,10
 84 338 84 338 78 330 c 128,-1,11
 72 322 72 322 70 317 c 1,0,1
154 272 m 0,12,13
 154 268 154 268 154 256 c 128,-1,14
 154 244 154 244 152 241 c 1,15,16
 153 242 153 242 155.5 246 c 128,-1,17
 158 250 158 250 158 251 c 1,18,19
 166 264 166 264 170 273.5 c 128,-1,20
 174 283 174 283 174 302 c 0,21,22
 174 306 174 306 173.5 312 c 128,-1,23
 173 318 173 318 171.5 323.5 c 128,-1,24
 170 329 170 329 167 333 c 128,-1,25
 164 337 164 337 159 337 c 0,26,27
 157 337 157 337 155 332 c 128,-1,28
 153 327 153 327 152 325 c 0,29,30
 147 315 147 315 135 312 c 1,31,32
 143 304 143 304 148.5 294 c 128,-1,33
 154 284 154 284 154 272 c 0,12,13
256 212 m 2,34,35
 256 220 256 220 254.5 230.5 c 128,-1,36
 253 241 253 241 249.5 250.5 c 128,-1,37
 246 260 246 260 240 267.5 c 128,-1,38
 234 275 234 275 224 276 c 1,39,40
 220 257 220 257 210 236 c 128,-1,41
 200 215 200 215 189.5 194 c 128,-1,42
 179 173 179 173 171 152 c 128,-1,43
 163 131 163 131 163 111 c 2,44,-1
 163 53 l 1,45,-1
 256 53 l 1,46,-1
 256 212 l 2,34,35
165 390 m 0,47,48
 181 390 181 390 192 383.5 c 128,-1,49
 203 377 203 377 210 366.5 c 128,-1,50
 217 356 217 356 220.5 343 c 128,-1,51
 224 330 224 330 225 317 c 1,52,53
 251 330 251 330 265 350.5 c 128,-1,54
 279 371 279 371 279 404 c 1,55,-1
 341 404 l 1,56,57
 341 376 341 376 326.5 344 c 128,-1,58
 312 312 312 312 285 294 c 1,59,60
 300 280 300 280 309 258.5 c 128,-1,61
 318 237 318 237 318 219 c 2,62,-1
 318 0 l 1,63,-1
 101 0 l 1,64,-1
 101 124 l 2,65,66
 101 135 101 135 106.5 150.5 c 128,-1,67
 112 166 112 166 119 181 c 128,-1,68
 126 196 126 196 133.5 209.5 c 128,-1,69
 141 223 141 223 145 229 c 1,70,71
 135 218 135 218 119 213 c 128,-1,72
 103 208 103 208 92 208 c 0,73,74
 74 208 74 208 61 216.5 c 128,-1,75
 48 225 48 225 39.5 238.5 c 128,-1,76
 31 252 31 252 27 268 c 128,-1,77
 23 284 23 284 23 299 c 0,78,79
 23 312 23 312 26 328 c 128,-1,80
 29 344 29 344 36.5 357.5 c 128,-1,81
 44 371 44 371 56 380.5 c 128,-1,82
 68 390 68 390 85 390 c 0,83,84
 94 390 94 390 99 386 c 128,-1,85
 104 382 104 382 108.5 376.5 c 128,-1,86
 113 371 113 371 117.5 367 c 128,-1,87
 122 363 122 363 128 363 c 0,88,89
 133 363 133 363 135 367 c 128,-1,90
 137 371 137 371 140 376.5 c 128,-1,91
 143 382 143 382 148.5 386 c 128,-1,92
 154 390 154 390 165 390 c 0,47,48
75 266 m 0,93,94
 75 245 75 245 95 245 c 0,95,96
 114 245 114 245 114 266 c 0,97,98
 114 286 114 286 95 286 c 0,99,100
 75 286 75 286 75 266 c 0,93,94
EndSplineSet
EndChar
StartChar: uni0E0C
Encoding: 3596 3596 281
Width: 364
Flags: W
Fore
295 28 m 2,0,1
 295 32 295 32 293.5 35.5 c 128,-1,2
 292 39 292 39 288.5 44.5 c 128,-1,3
 285 50 285 50 277.5 58.5 c 128,-1,4
 270 67 270 67 258 80 c 1,5,-1
 258 49 l 2,6,7
 258 27 258 27 248 9 c 128,-1,8
 238 -9 238 -9 215 -9 c 0,9,10
 187 -9 187 -9 171.5 5 c 128,-1,11
 156 19 156 19 151 40 c 1,12,13
 144 20 144 20 130.5 5.5 c 128,-1,14
 117 -9 117 -9 94 -9 c 0,15,16
 76 -9 76 -9 62 -1.5 c 128,-1,17
 48 6 48 6 38.5 18 c 128,-1,18
 29 30 29 30 24 45.5 c 128,-1,19
 19 61 19 61 19 76 c 2,20,-1
 19 194 l 2,21,22
 19 215 19 215 31 233 c 128,-1,23
 43 251 43 251 54 263 c 1,24,-1
 10 263 l 1,25,-1
 10 311 l 1,26,27
 23 326 23 326 35 340 c 128,-1,28
 47 354 47 354 61 365 c 128,-1,29
 75 376 75 376 92.5 383 c 128,-1,30
 110 390 110 390 134 390 c 0,31,32
 157 390 157 390 179 384.5 c 128,-1,33
 201 379 201 379 218.5 367 c 128,-1,34
 236 355 236 355 247 336 c 128,-1,35
 258 317 258 317 258 290 c 2,36,-1
 258 132 l 1,37,38
 269 124 269 124 276.5 119.5 c 128,-1,39
 284 115 284 115 292 109 c 1,40,-1
 292 388 l 1,41,-1
 354 388 l 1,42,-1
 354 0 l 1,43,-1
 295 0 l 1,44,-1
 295 28 l 2,0,1
100 130 m 0,45,46
 123 130 123 130 135 120 c 128,-1,47
 147 110 147 110 152 92 c 1,48,49
 157 110 157 110 169 120 c 128,-1,50
 181 130 181 130 201 137 c 1,51,-1
 201 280 l 2,52,53
 201 310 201 310 186 326.5 c 128,-1,54
 171 343 171 343 142 343 c 256,55,56
 113 343 113 343 96 330 c 128,-1,57
 79 317 79 317 63 300 c 1,58,-1
 105 300 l 1,59,-1
 105 266 l 1,60,61
 91 262 91 262 86 248 c 128,-1,62
 81 234 81 234 81 220 c 2,63,-1
 81 127 l 1,64,65
 92 130 92 130 100 130 c 0,45,46
113 67 m 0,66,67
 113 77 113 77 108.5 83.5 c 128,-1,68
 104 90 104 90 93 90 c 0,69,70
 85 90 85 90 80.5 82.5 c 128,-1,71
 76 75 76 75 76 67 c 0,72,73
 76 57 76 57 80 47.5 c 128,-1,74
 84 38 84 38 94 38 c 0,75,76
 105 38 105 38 109 48 c 128,-1,77
 113 58 113 58 113 67 c 0,66,67
206 93 m 1,78,79
 197 89 197 89 191 80 c 128,-1,80
 185 71 185 71 185 59 c 0,81,82
 185 48 185 48 189 39 c 128,-1,83
 193 30 193 30 207 28 c 1,84,85
 206 30 206 30 206 38.5 c 128,-1,86
 206 47 206 47 206 48 c 2,87,-1
 206 93 l 1,78,79
EndSplineSet
EndChar
StartChar: uni0E0D
Encoding: 3597 3597 282
Width: 364
Flags: W
Fore
143 349 m 1,0,1
 114 349 114 349 97.5 339.5 c 128,-1,2
 81 330 81 330 68 307 c 1,3,-1
 116 307 l 1,4,-1
 116 268 l 1,5,6
 101 265 101 265 94.5 251.5 c 128,-1,7
 88 238 88 238 88 225 c 2,8,-1
 88 129 l 1,9,10
 99 133 99 133 109 133 c 0,11,12
 141 133 141 133 155 117 c 128,-1,13
 169 101 169 101 169 71 c 256,14,15
 169 41 169 41 152.5 16 c 128,-1,16
 136 -9 136 -9 102 -9 c 0,17,18
 82 -9 82 -9 67.5 -0.5 c 128,-1,19
 53 8 53 8 44 21.5 c 128,-1,20
 35 35 35 35 30.5 52 c 128,-1,21
 26 69 26 69 26 86 c 2,22,-1
 26 203 l 2,23,24
 26 223 26 223 38 238.5 c 128,-1,25
 50 254 50 254 59 265 c 1,26,-1
 15 265 l 1,27,-1
 15 316 l 1,28,29
 29 336 29 336 39 351 c 128,-1,30
 49 366 49 366 61.5 375.5 c 128,-1,31
 74 385 74 385 92 389.5 c 128,-1,32
 110 394 110 394 140 394 c 0,33,34
 200 394 200 394 220.5 366 c 128,-1,35
 241 338 241 338 241 279 c 2,36,-1
 241 53 l 1,37,-1
 288 53 l 1,38,-1
 288 386 l 1,39,-1
 350 386 l 1,40,-1
 350 0 l 1,41,-1
 182 0 l 1,42,-1
 182 272 l 2,43,44
 182 285 182 285 181.5 298.5 c 128,-1,45
 181 312 181 312 177 323.5 c 128,-1,46
 173 335 173 335 165 342 c 128,-1,47
 157 349 157 349 142 349 c 1,48,-1
 143 349 l 1,0,1
349 -45 m 2,49,50
 349 -55 349 -55 346 -68 c 128,-1,51
 343 -81 343 -81 338 -90 c 0,52,53
 321 -118 321 -118 292.5 -129 c 128,-1,54
 264 -140 264 -140 233 -140 c 0,55,56
 220 -140 220 -140 206 -136.5 c 128,-1,57
 192 -133 192 -133 180.5 -125.5 c 128,-1,58
 169 -118 169 -118 161.5 -106.5 c 128,-1,59
 154 -95 154 -95 154 -79 c 0,60,61
 154 -53 154 -53 168.5 -36.5 c 128,-1,62
 183 -20 183 -20 209 -20 c 0,63,64
 232 -20 232 -20 250 -31.5 c 128,-1,65
 268 -43 268 -43 268 -70 c 0,66,67
 268 -82 268 -82 262 -91 c 1,68,69
 278 -85 278 -85 284 -70 c 0,70,71
 287 -63 287 -63 288.5 -54 c 128,-1,72
 290 -45 290 -45 290 -30 c 1,73,-1
 349 -30 l 1,74,-1
 349 -45 l 2,49,50
123 65 m 0,75,76
 123 75 123 75 118.5 83.5 c 128,-1,77
 114 92 114 92 103 92 c 0,78,79
 94 92 94 92 88 83.5 c 128,-1,80
 82 75 82 75 82 66 c 0,81,82
 82 55 82 55 87.5 44 c 128,-1,83
 93 33 93 33 104 33 c 0,84,85
 112 33 112 33 117.5 45 c 128,-1,86
 123 57 123 57 123 65 c 0,75,76
192 -73 m 0,87,88
 192 -81 192 -81 198 -86.5 c 128,-1,89
 204 -92 204 -92 212 -92 c 0,90,91
 232 -92 232 -92 232 -73 c 0,92,93
 232 -53 232 -53 212 -53 c 0,94,95
 204 -53 204 -53 198 -58.5 c 128,-1,96
 192 -64 192 -64 192 -73 c 0,87,88
EndSplineSet
Substitution: 0 65534 'L019' uni0E0D.alt1
Substitution: 0 65534 'L019' uni0E0D.alt1
EndChar
StartChar: uni0E0E
Encoding: 3598 3598 283
Width: 364
Flags: W
Fore
344 -159 m 1,0,-1
 290 -159 l 1,1,2
 277 -151 277 -151 262 -136.5 c 128,-1,3
 247 -122 247 -122 233 -112 c 1,4,5
 223 -137 223 -137 202.5 -149 c 128,-1,6
 182 -161 182 -161 153 -161 c 0,7,8
 139 -161 139 -161 125 -157 c 128,-1,9
 111 -153 111 -153 100 -145 c 128,-1,10
 89 -137 89 -137 82 -125 c 128,-1,11
 75 -113 75 -113 75 -96 c 0,12,13
 75 -62 75 -62 98 -43.5 c 128,-1,14
 121 -25 121 -25 153 -25 c 0,15,16
 161 -25 161 -25 168.5 -27 c 128,-1,17
 176 -29 176 -29 183 -31 c 1,18,-1
 183 7 l 1,19,-1
 245 7 l 1,20,-1
 241 -52 l 1,21,22
 252 -60 252 -60 262.5 -68 c 128,-1,23
 273 -76 273 -76 283 -84 c 1,24,-1
 283 248 l 2,25,26
 283 269 283 269 280.5 286 c 128,-1,27
 278 303 278 303 271 315 c 128,-1,28
 264 327 264 327 251 333.5 c 128,-1,29
 238 340 238 340 217 340 c 0,30,31
 191 340 191 340 170 330.5 c 128,-1,32
 149 321 149 321 131 304 c 1,33,-1
 196 304 l 1,34,-1
 196 267 l 1,35,36
 179 259 179 259 172.5 246 c 128,-1,37
 166 233 166 233 166 218 c 2,38,-1
 166 106 l 2,39,40
 166 87 166 87 164.5 66.5 c 128,-1,41
 163 46 163 46 155.5 29.5 c 128,-1,42
 148 13 148 13 133 2 c 128,-1,43
 118 -9 118 -9 91 -9 c 0,44,45
 59 -9 59 -9 39.5 15 c 128,-1,46
 20 39 20 39 20 69 c 0,47,48
 20 98 20 98 39.5 115.5 c 128,-1,49
 59 133 59 133 88 133 c 0,50,51
 97 133 97 133 104 130 c 1,52,-1
 104 205 l 2,53,54
 104 222 104 222 115.5 237.5 c 128,-1,55
 127 253 127 253 135 264 c 1,56,-1
 70 264 l 1,57,-1
 70 315 l 1,58,59
 96 353 96 353 133.5 372 c 128,-1,60
 171 391 171 391 214 391 c 0,61,62
 285 391 285 391 315 359 c 128,-1,63
 345 327 345 327 345 253 c 2,64,-1
 344 -159 l 1,0,-1
153 -114 m 0,65,66
 183 -114 183 -114 183 -92 c 2,67,-1
 183 -83 l 1,68,69
 174 -78 174 -78 165.5 -75 c 128,-1,70
 157 -72 157 -72 148 -72 c 0,71,72
 140 -72 140 -72 134.5 -79.5 c 128,-1,73
 129 -87 129 -87 129 -94 c 0,74,75
 129 -102 129 -102 137.5 -108 c 128,-1,76
 146 -114 146 -114 153 -114 c 0,65,66
109 67 m 0,77,78
 109 75 109 75 103 80.5 c 128,-1,79
 97 86 97 86 89 86 c 256,80,81
 81 86 81 86 77 79.5 c 128,-1,82
 73 73 73 73 73 65 c 0,83,84
 73 56 73 56 78 46.5 c 128,-1,85
 83 37 83 37 93 37 c 0,86,87
 104 37 104 37 106.5 46.5 c 128,-1,88
 109 56 109 56 109 67 c 0,77,78
EndSplineSet
Substitution: 0 65534 'L019' uni0E0E.alt1
Substitution: 0 65534 'L019' uni0E0E.alt1
EndChar
StartChar: uni0E0F
Encoding: 3599 3599 284
Width: 364
Flags: W
Fore
344 -159 m 1,0,-1
 286 -159 l 1,1,-1
 255 -115 l 1,2,3
 244 -129 244 -129 238 -139 c 128,-1,4
 232 -149 232 -149 227 -157 c 1,5,-1
 204 -157 l 1,6,-1
 180 -126 l 1,7,8
 163 -143 163 -143 146.5 -152 c 128,-1,9
 130 -161 130 -161 102 -161 c 256,10,11
 74 -161 74 -161 50 -143 c 128,-1,12
 26 -125 26 -125 26 -95 c 0,13,14
 26 -66 26 -66 49 -49 c 128,-1,15
 72 -32 72 -32 99 -32 c 0,16,17
 130 -32 130 -32 155 -48 c 1,18,-1
 155 -2 l 1,19,-1
 217 -2 l 1,20,21
 217 -20 217 -20 216 -32 c 128,-1,22
 215 -44 215 -44 213.5 -51.5 c 128,-1,23
 212 -59 212 -59 210.5 -64 c 128,-1,24
 209 -69 209 -69 207 -74 c 1,25,26
 208 -76 208 -76 214 -81.5 c 128,-1,27
 220 -87 220 -87 224 -90 c 1,28,29
 229 -79 229 -79 237 -67 c 128,-1,30
 245 -55 245 -55 252 -43 c 1,31,-1
 282 -81 l 1,32,-1
 282 264 l 2,33,34
 282 344 282 344 209 344 c 0,35,36
 183 344 183 344 164 333 c 128,-1,37
 145 322 145 322 130 306 c 1,38,-1
 193 306 l 1,39,-1
 193 266 l 1,40,41
 179 258 179 258 172.5 242 c 128,-1,42
 166 226 166 226 166 212 c 2,43,-1
 166 98 l 2,44,45
 166 79 166 79 163.5 59.5 c 128,-1,46
 161 40 161 40 153 25 c 128,-1,47
 145 10 145 10 130.5 0.5 c 128,-1,48
 116 -9 116 -9 91 -9 c 0,49,50
 57 -9 57 -9 40.5 13 c 128,-1,51
 24 35 24 35 24 65 c 0,52,53
 24 94 24 94 40.5 112.5 c 128,-1,54
 57 131 57 131 86 131 c 0,55,56
 91 131 91 131 95 131 c 128,-1,57
 99 131 99 131 104 130 c 1,58,-1
 104 203 l 2,59,60
 104 218 104 218 113.5 234 c 128,-1,61
 123 250 123 250 134 263 c 1,62,-1
 71 263 l 1,63,-1
 71 320 l 1,64,65
 96 355 96 355 132.5 374.5 c 128,-1,66
 169 394 169 394 210 394 c 0,67,68
 247 394 247 394 279.5 380 c 128,-1,69
 312 366 312 366 331 331 c 0,70,71
 336 322 336 322 338.5 307 c 128,-1,72
 341 292 341 292 342 276 c 128,-1,73
 343 260 343 260 343.5 245 c 128,-1,74
 344 230 344 230 344 220 c 2,75,-1
 344 -159 l 1,0,-1
109 -115 m 0,76,77
 118 -115 118 -115 129.5 -110 c 128,-1,78
 141 -105 141 -105 145 -94 c 1,79,80
 125 -76 125 -76 101 -76 c 0,81,82
 91 -76 91 -76 86 -81.5 c 128,-1,83
 81 -87 81 -87 81 -94 c 0,84,85
 81 -106 81 -106 91.5 -110.5 c 128,-1,86
 102 -115 102 -115 109 -115 c 0,76,77
109 62 m 256,87,88
 109 71 109 71 105 79 c 128,-1,89
 101 87 101 87 91 87 c 0,90,91
 84 87 84 87 80 78.5 c 128,-1,92
 76 70 76 70 76 62 c 256,93,94
 76 54 76 54 80 45 c 128,-1,95
 84 36 84 36 92 36 c 0,96,97
 102 36 102 36 105.5 44.5 c 128,-1,98
 109 53 109 53 109 62 c 256,87,88
EndSplineSet
Substitution: 0 65534 'L019' uni0E0F.alt1
Substitution: 0 65534 'L019' uni0E0F.alt1
EndChar
StartChar: uni0E10
Encoding: 3600 3600 285
Width: 364
Flags: W
Fore
330 306 m 2,0,1
 318 302 318 302 299 302 c 256,2,3
 280 302 280 302 261.5 307.5 c 128,-1,4
 243 313 243 313 225.5 319.5 c 128,-1,5
 208 326 208 326 190.5 331.5 c 128,-1,6
 173 337 173 337 155 337 c 0,7,8
 138 337 138 337 127 329 c 128,-1,9
 116 321 116 321 107 307 c 1,10,-1
 145 307 l 2,11,12
 163 307 163 307 188 306 c 128,-1,13
 213 305 213 305 237.5 299.5 c 128,-1,14
 262 294 262 294 283 283.5 c 128,-1,15
 304 273 304 273 314 253 c 0,16,17
 320 242 320 242 322 229 c 128,-1,18
 324 216 324 216 324 203 c 0,19,20
 324 178 324 178 320 152.5 c 128,-1,21
 316 127 316 127 311 101.5 c 128,-1,22
 306 76 306 76 300.5 50.5 c 128,-1,23
 295 25 295 25 293 0 c 1,24,-1
 208 0 l 1,25,-1
 174 101 l 1,26,27
 160 90 160 90 137 90 c 0,28,29
 108 90 108 90 88 108.5 c 128,-1,30
 68 127 68 127 68 156 c 0,31,32
 68 191 68 191 90 207.5 c 128,-1,33
 112 224 112 224 145 224 c 0,34,35
 174 224 174 224 195 185.5 c 128,-1,36
 216 147 216 147 247 63 c 1,37,38
 250 94 250 94 256.5 126 c 128,-1,39
 263 158 263 158 263 189 c 0,40,41
 263 218 263 218 252 231.5 c 128,-1,42
 241 245 241 245 221.5 249.5 c 128,-1,43
 202 254 202 254 174.5 253.5 c 128,-1,44
 147 253 147 253 114 255 c 0,45,46
 106 255 106 255 97 254.5 c 128,-1,47
 88 254 88 254 79 250 c 1,48,-1
 24 250 l 1,49,50
 30 280 30 280 41.5 305.5 c 128,-1,51
 53 331 53 331 70.5 350 c 128,-1,52
 88 369 88 369 112 380 c 128,-1,53
 136 391 136 391 166 391 c 0,54,55
 191 391 191 391 221 383.5 c 128,-1,56
 251 376 251 376 274 376 c 0,57,58
 289 376 289 376 303 378 c 128,-1,59
 317 380 317 380 340 389 c 1,60,-1
 340 309 l 1,61,-1
 330 306 l 2,0,1
305 -111 m 1,62,63
 305 -137 305 -137 291 -148 c 128,-1,64
 277 -159 277 -159 251 -159 c 2,65,-1
 196 -159 l 1,66,-1
 173 -135 l 1,67,68
 167 -141 167 -141 161 -149 c 128,-1,69
 155 -157 155 -157 147 -162 c 1,70,71
 134 -146 134 -146 130 -141 c 128,-1,72
 126 -136 126 -136 124 -133 c 1,73,74
 113 -143 113 -143 100.5 -151.5 c 128,-1,75
 88 -160 88 -160 71 -160 c 0,76,77
 5 -160 5 -160 5 -95 c 0,78,79
 5 -72 5 -72 23 -55 c 128,-1,80
 41 -38 41 -38 64 -38 c 0,81,82
 74 -38 74 -38 83.5 -41.5 c 128,-1,83
 93 -45 93 -45 101 -50 c 1,84,85
 101 -43 101 -43 101 -37 c 128,-1,86
 101 -31 101 -31 100 -24 c 1,87,-1
 100 -14 l 1,88,-1
 161 -14 l 1,89,90
 163 -21 163 -21 163.5 -23.5 c 128,-1,91
 164 -26 164 -26 164 -28 c 2,92,-1
 164 -29 l 2,93,94
 164 -43 164 -43 161 -57.5 c 128,-1,95
 158 -72 158 -72 154 -85 c 1,96,97
 157 -87 157 -87 160 -90 c 0,98,99
 166 -96 166 -96 166 -97 c 1,100,101
 172 -89 172 -89 175.5 -85 c 128,-1,102
 179 -81 179 -81 183 -77 c 1,103,-1
 215 -116 l 2,104,105
 217 -118 217 -118 223.5 -118 c 128,-1,106
 230 -118 230 -118 234 -118 c 2,107,-1
 244 -118 l 2,108,109
 248 -118 248 -118 248 -105 c 1,110,111
 228 -102 228 -102 214 -91.5 c 128,-1,112
 200 -81 200 -81 200 -58 c 256,113,114
 200 -35 200 -35 214 -24 c 128,-1,115
 228 -13 228 -13 251 -13 c 0,116,117
 277 -13 277 -13 291 -24.5 c 128,-1,118
 305 -36 305 -36 305 -61 c 2,119,-1
 305 -111 l 1,120,-1
 305 -111 l 1,62,63
71 -115 m 0,121,122
 79 -115 79 -115 86.5 -109.5 c 128,-1,123
 94 -104 94 -104 97 -99 c 1,124,125
 93 -93 93 -93 86 -87 c 128,-1,126
 79 -81 79 -81 68 -81 c 0,127,128
 59 -81 59 -81 54.5 -87 c 128,-1,129
 50 -93 50 -93 50 -100 c 0,130,131
 50 -105 50 -105 56 -110 c 128,-1,132
 62 -115 62 -115 71 -115 c 0,121,122
240 -58 m 0,133,134
 240 -71 240 -71 253 -71 c 256,135,136
 266 -71 266 -71 266 -58 c 0,137,138
 266 -46 266 -46 253 -46 c 256,139,140
 240 -46 240 -46 240 -58 c 0,133,134
113 158 m 0,141,142
 113 148 113 148 119 141.5 c 128,-1,143
 125 135 125 135 134 135 c 256,144,145
 143 135 143 135 149.5 141.5 c 128,-1,146
 156 148 156 148 156 158 c 0,147,148
 156 167 156 167 149.5 173.5 c 128,-1,149
 143 180 143 180 134 180 c 256,150,151
 125 180 125 180 119 173.5 c 128,-1,152
 113 167 113 167 113 158 c 0,141,142
EndSplineSet
Substitution: 0 65534 'L019' uni0E10.alt1
Substitution: 0 65534 'L019' uni0E10.alt1
EndChar
StartChar: uni0E11
Encoding: 3601 3601 286
Width: 364
Flags: W
Fore
106 0 m 1,0,-1
 106 156 l 2,1,2
 106 161 106 161 109 171 c 128,-1,3
 112 181 112 181 116.5 192.5 c 128,-1,4
 125.5 215.5 l 128,-1,5
 130 227 130 227 134 235 c 1,6,7
 124 221 124 221 109 214.5 c 128,-1,8
 94 208 94 208 86 208 c 0,9,10
 64 208 64 208 50.5 218 c 128,-1,11
 37 228 37 228 29.5 243.5 c 128,-1,12
 22 259 22 259 20 277.5 c 128,-1,13
 18 296 18 296 18 312 c 0,14,15
 18 324 18 324 21 336.5 c 128,-1,16
 24 349 24 349 30 360 c 128,-1,17
 36 371 36 371 45 378 c 128,-1,18
 54 385 54 385 65 385 c 0,19,20
 75 385 75 385 81.5 380.5 c 128,-1,21
 88 376 88 376 93 370.5 c 128,-1,22
 98 365 98 365 101.5 360 c 128,-1,23
 105 355 105 355 109 353 c 1,24,-1
 110 353 l 1,25,26
 118 361 118 361 125 373 c 128,-1,27
 132 385 132 385 148 385 c 0,28,29
 172 385 172 385 187.5 370 c 128,-1,30
 203 355 203 355 203 325 c 0,31,32
 203 305 203 305 196 284.5 c 128,-1,33
 189 264 189 264 181 247 c 0,34,35
 175 233 175 233 169 207.5 c 128,-1,36
 163 182 163 182 163 159 c 1,37,38
 171 177 171 177 180.5 199 c 128,-1,39
 190 221 190 221 199.5 242.5 c 128,-1,40
 209 264 209 264 217.5 284 c 128,-1,41
 226 304 226 304 232 317 c 0,42,43
 244 346 244 346 257.5 367 c 128,-1,44
 271 388 271 388 292 388 c 0,45,46
 326 388 326 388 334 375 c 128,-1,47
 342 362 342 362 342 333 c 2,48,-1
 342 0 l 1,49,-1
 280 0 l 1,50,-1
 280 283 l 2,51,52
 280 292 280 292 279.5 303 c 128,-1,53
 279 314 279 314 278 321 c 1,54,55
 269 302 269 302 253 266 c 128,-1,56
 237 230 237 230 220.5 192.5 c 128,-1,57
 204 155 204 155 189.5 122.5 c 128,-1,58
 175 90 175 90 168 77 c 1,59,-1
 168 0 l 1,60,-1
 106 0 l 1,0,-1
142 262 m 2,61,62
 150 276 150 276 153 285.5 c 128,-1,63
 156 295 156 295 156 308 c 0,64,65
 156 315 156 315 153 324 c 128,-1,66
 150 333 150 333 145 333 c 0,67,68
 142 333 142 333 140 330.5 c 128,-1,69
 138 328 138 328 136 325 c 0,70,71
 133 319 133 319 129.5 314 c 128,-1,72
 126 309 126 309 120 307 c 1,73,74
 130 300 130 300 135 286.5 c 128,-1,75
 140 273 140 273 140 259 c 1,76,-1
 142 262 l 2,61,62
66 309 m 2,77,78
 70 311 70 311 75 312.5 c 128,-1,79
 80 314 80 314 89 314 c 2,80,-1
 98 313 l 1,81,82
 98 314 98 314 94.5 317.5 c 128,-1,83
 91 321 91 321 87 324.5 c 128,-1,84
 83 328 83 328 79.5 331 c 128,-1,85
 76 334 76 334 74 334 c 0,86,87
 67 334 67 334 63 308 c 1,88,-1
 66 309 l 2,77,78
67 260 m 0,89,90
 67 241 67 241 86 241 c 256,91,92
 105 241 105 241 105 260 c 0,93,94
 105 280 105 280 86 280 c 256,95,96
 67 280 67 280 67 260 c 0,89,90
EndSplineSet
EndChar
StartChar: uni0E12
Encoding: 3602 3602 287
Width: 364
Flags: W
Fore
295 101 m 1,0,-1
 295 387 l 1,1,-1
 357 387 l 1,2,-1
 357 0 l 1,3,-1
 319 0 l 1,4,-1
 271 72 l 1,5,-1
 271 52 l 2,6,7
 271 22 271 22 261 6.5 c 128,-1,8
 251 -9 251 -9 219 -9 c 0,9,10
 188 -9 188 -9 172.5 14 c 128,-1,11
 157 37 157 37 157 65 c 0,12,13
 157 67 157 67 157.5 74.5 c 128,-1,14
 158 82 158 82 158 84 c 1,15,16
 149 62 149 62 138.5 39.5 c 128,-1,17
 128 17 128 17 121 0 c 1,18,-1
 62 0 l 1,19,20
 59 33 59 33 51 63.5 c 128,-1,21
 43 94 43 94 34 124 c 128,-1,22
 25 154 25 154 18 184.5 c 128,-1,23
 11 215 11 215 11 248 c 0,24,25
 11 269 11 269 15 293.5 c 128,-1,26
 19 318 19 318 28.5 339 c 128,-1,27
 38 360 38 360 54.5 374.5 c 128,-1,28
 71 389 71 389 96 389 c 0,29,30
 105 389 105 389 112 383.5 c 128,-1,31
 119 378 119 378 124.5 372 c 128,-1,32
 130 366 130 366 135.5 360.5 c 128,-1,33
 141 355 141 355 148 355 c 0,34,35
 160 355 160 355 169.5 369 c 128,-1,36
 179 383 179 383 190 390 c 1,37,38
 211 390 211 390 226.5 382 c 128,-1,39
 242 374 242 374 252 360.5 c 128,-1,40
 262 347 262 347 267 329 c 128,-1,41
 272 311 272 311 272 292 c 2,42,-1
 272 127 l 1,43,-1
 295 101 l 1,0,-1
169 107 m 1,44,45
 177 118 177 118 189.5 126.5 c 128,-1,46
 202 135 202 135 219 138 c 1,47,-1
 219 301 l 2,48,49
 219 311 219 311 215.5 321 c 128,-1,50
 212 331 212 331 201 335 c 1,51,-1
 200 335 l 2,52,53
 194 335 194 335 188.5 330.5 c 128,-1,54
 183 326 183 326 177 321 c 128,-1,55
 171 316 171 316 164.5 311.5 c 128,-1,56
 158 307 158 307 149 307 c 256,57,58
 140 307 140 307 133 311.5 c 128,-1,59
 126 316 126 316 120 321 c 128,-1,60
 114 326 114 326 108 330.5 c 128,-1,61
 102 335 102 335 96 335 c 0,62,63
 85 335 85 335 78.5 325.5 c 128,-1,64
 72 316 72 316 68.5 303 c 128,-1,65
 65 290 65 290 64 276 c 128,-1,66
 63 262 63 262 63 252 c 0,67,68
 63 229 63 229 68.5 207.5 c 128,-1,69
 74 186 74 186 81.5 165.5 c 128,-1,70
 89 145 89 145 96 124.5 c 128,-1,71
 103 104 103 104 106 81 c 1,72,73
 112 98 112 98 115.5 106.5 c 128,-1,74
 119 115 119 115 122 121 c 128,-1,75
 125 127 125 127 128.5 134.5 c 128,-1,76
 132 142 132 142 138 157 c 1,77,78
 118 162 118 162 99.5 176.5 c 128,-1,79
 81 191 81 191 81 217 c 0,80,81
 81 250 81 250 99.5 266 c 128,-1,82
 118 282 118 282 149 282 c 0,83,84
 206 282 206 282 206 222 c 0,85,86
 206 201 206 201 200.5 181.5 c 128,-1,87
 195 162 195 162 187 144 c 2,88,-1
 169 107 l 1,44,45
198 62 m 0,89,90
 198 51 198 51 202.5 38.5 c 128,-1,91
 207 26 207 26 222 25 c 1,92,-1
 222 100 l 1,93,94
 207 93 207 93 202.5 81.5 c 128,-1,95
 198 70 198 70 198 62 c 0,89,90
124 221 m 0,96,97
 124 212 124 212 130.5 205.5 c 128,-1,98
 137 199 137 199 145 199 c 0,99,100
 154 199 154 199 160.5 205.5 c 128,-1,101
 167 212 167 212 167 221 c 0,102,103
 167 231 167 231 160.5 237.5 c 128,-1,104
 154 244 154 244 145 244 c 0,105,106
 137 244 137 244 130.5 237.5 c 128,-1,107
 124 231 124 231 124 221 c 0,96,97
EndSplineSet
EndChar
StartChar: uni0E13
Encoding: 3603 3603 288
Width: 364
Flags: W
Fore
242 99 m 2,0,1
 259 113 259 113 267 125 c 128,-1,2
 275 137 275 137 275 160 c 2,3,-1
 275 387 l 1,4,-1
 337 387 l 1,5,-1
 337 144 l 2,6,7
 337 128 337 128 326 117 c 1,8,9
 343 108 343 108 351.5 96 c 128,-1,10
 360 84 360 84 360 63 c 0,11,12
 360 34 360 34 346.5 12.5 c 128,-1,13
 333 -9 333 -9 302 -9 c 0,14,15
 276 -9 276 -9 262 6.5 c 128,-1,16
 248 22 248 22 246 47 c 1,17,18
 238 39 238 39 222.5 26 c 128,-1,19
 207 13 207 13 202 0 c 1,20,-1
 159 0 l 1,21,-1
 159 55 l 1,22,23
 154 32 154 32 137.5 11.5 c 128,-1,24
 121 -9 121 -9 94 -9 c 0,25,26
 75 -9 75 -9 60.5 -0.5 c 128,-1,27
 46 8 46 8 36.5 21.5 c 128,-1,28
 27 35 27 35 22 52 c 128,-1,29
 17 69 17 69 17 86 c 2,30,-1
 17 204 l 2,31,32
 17 224 17 224 28 240 c 128,-1,33
 39 256 39 256 47 266 c 1,34,-1
 7 266 l 1,35,-1
 7 318 l 1,36,37
 22 336 22 336 32 349.5 c 128,-1,38
 42 363 42 363 54 371.5 c 128,-1,39
 66 380 66 380 83 384.5 c 128,-1,40
 100 389 100 389 128 389 c 256,41,42
 156 389 156 389 173.5 382 c 128,-1,43
 191 375 191 375 201 361.5 c 128,-1,44
 211 348 211 348 214.5 328.5 c 128,-1,45
 218 309 218 309 218 283 c 2,46,-1
 218 79 l 1,47,-1
 242 99 l 2,0,1
100 126 m 0,48,49
 126 126 126 126 140.5 111 c 128,-1,50
 155 96 155 96 159 75 c 1,51,-1
 159 283 l 2,52,53
 159 309 159 309 152.5 325.5 c 128,-1,54
 146 342 146 342 118 342 c 0,55,56
 96 342 96 342 83 330 c 128,-1,57
 70 318 70 318 60 302 c 1,58,-1
 106 302 l 1,59,-1
 106 269 l 1,60,61
 91 266 91 266 85 252 c 128,-1,62
 79 238 79 238 79 225 c 2,63,-1
 79 122 l 1,64,65
 84 124 84 124 88.5 125 c 128,-1,66
 93 126 93 126 100 126 c 0,48,49
113 63 m 0,67,68
 113 70 113 70 108.5 77 c 128,-1,69
 104 84 104 84 96 84 c 256,70,71
 88 84 88 84 83 76.5 c 128,-1,72
 78 69 78 69 78 61 c 0,73,74
 78 51 78 51 82.5 43 c 128,-1,75
 87 35 87 35 98 35 c 0,76,77
 106 35 106 35 109.5 45 c 128,-1,78
 113 55 113 55 113 63 c 0,67,68
319 60 m 0,79,80
 319 67 319 67 315 76 c 128,-1,81
 311 85 311 85 304 85 c 0,82,83
 296 85 296 85 291 76 c 128,-1,84
 286 67 286 67 286 58 c 0,85,86
 286 50 286 50 291 40 c 128,-1,87
 296 30 296 30 304 30 c 256,88,89
 312 30 312 30 315.5 41 c 128,-1,90
 319 52 319 52 319 60 c 0,79,80
EndSplineSet
EndChar
StartChar: uni0E14
Encoding: 3604 3604 289
Width: 364
Flags: W
Fore
186 339 m 0,0,1
 141 339 141 339 114 314 c 128,-1,2
 87 289 87 289 87 242 c 0,3,4
 87 199 87 199 98.5 157.5 c 128,-1,5
 110 116 110 116 121 76 c 1,6,7
 134 95 134 95 144 110.5 c 128,-1,8
 154 126 154 126 167 146 c 1,9,10
 141 149 141 149 125.5 164.5 c 128,-1,11
 110 180 110 180 110 211 c 0,12,13
 110 243 110 243 131 262.5 c 128,-1,14
 152 282 152 282 183 282 c 0,15,16
 215 282 215 282 235.5 265 c 128,-1,17
 256 248 256 248 256 213 c 0,18,19
 256 191 256 191 247.5 172.5 c 128,-1,20
 239 154 239 154 228 137 c 0,21,22
 227 136 227 136 225 133 c 128,-1,23
 223 130 223 130 214.5 117 c 128,-1,24
 206 104 206 104 189 77 c 128,-1,25
 172 50 172 50 140 0 c 1,26,-1
 72 0 l 1,27,28
 71 34 71 34 63.5 63.5 c 128,-1,29
 56 93 56 93 48.5 121 c 128,-1,30
 41 149 41 149 34.5 178.5 c 128,-1,31
 28 208 28 208 28 242 c 0,32,33
 28 279 28 279 40 306.5 c 128,-1,34
 52 334 52 334 73 352.5 c 128,-1,35
 94 371 94 371 123 380.5 c 128,-1,36
 152 390 152 390 185 390 c 256,37,38
 218 390 218 390 245 383.5 c 128,-1,39
 272 377 272 377 292 361.5 c 128,-1,40
 312 346 312 346 323 320.5 c 128,-1,41
 334 295 334 295 334 257 c 2,42,-1
 334 0 l 1,43,-1
 272 0 l 1,44,-1
 272 258 l 2,45,46
 272 304 272 304 248 321.5 c 128,-1,47
 224 339 224 339 186 339 c 0,0,1
163 214 m 0,48,49
 163 204 163 204 169.5 197.5 c 128,-1,50
 176 191 176 191 185 191 c 0,51,52
 193 191 193 191 199.5 197.5 c 128,-1,53
 206 204 206 204 206 214 c 0,54,55
 206 223 206 223 199.5 229.5 c 128,-1,56
 193 236 193 236 185 236 c 0,57,58
 176 236 176 236 169.5 229.5 c 128,-1,59
 163 223 163 223 163 214 c 0,48,49
EndSplineSet
EndChar
StartChar: uni0E15
Encoding: 3605 3605 290
Width: 364
Flags: W
Fore
238 327 m 1,0,1
 223 323 223 323 211.5 312.5 c 128,-1,2
 200 302 200 302 183 302 c 0,3,4
 172 302 172 302 164 306.5 c 128,-1,5
 156 311 156 311 149.5 316 c 128,-1,6
 143 321 143 321 136 325.5 c 128,-1,7
 129 330 129 330 120 330 c 0,8,9
 109 330 109 330 102.5 321 c 128,-1,10
 96 312 96 312 93 298.5 c 128,-1,11
 90 285 90 285 89 270.5 c 128,-1,12
 88 256 88 256 88 245 c 0,13,14
 88 202 88 202 101.5 163 c 128,-1,15
 115 124 115 124 124 82 c 1,16,17
 134 99 134 99 143.5 113.5 c 128,-1,18
 153 128 153 128 162 145 c 1,19,20
 139 151 139 151 124 169 c 128,-1,21
 109 187 109 187 109 212 c 0,22,23
 109 243 109 243 128 262.5 c 128,-1,24
 147 282 147 282 178 282 c 256,25,26
 209 282 209 282 229.5 267 c 128,-1,27
 250 252 250 252 250 219 c 0,28,29
 250 191 250 191 236.5 161.5 c 128,-1,30
 223 132 223 132 205.5 103.5 c 128,-1,31
 188 75 188 75 170.5 48.5 c 128,-1,32
 153 22 153 22 145 0 c 1,33,-1
 74 0 l 1,34,-1
 74 16 l 2,35,36
 74 48 74 48 67 75.5 c 128,-1,37
 60 103 60 103 51.5 129.5 c 128,-1,38
 43 156 43 156 36 184 c 128,-1,39
 29 212 29 212 29 246 c 0,40,41
 29 271 29 271 33 296 c 128,-1,42
 37 321 37 321 48 341 c 128,-1,43
 59 361 59 361 78 374.5 c 128,-1,44
 97 388 97 388 127 389 c 1,45,-1
 182 356 l 1,46,47
 199 358 199 358 212.5 369.5 c 128,-1,48
 226 381 226 381 240 390 c 1,49,50
 281 379 281 379 305 355.5 c 128,-1,51
 329 332 329 332 329 291 c 2,52,-1
 329 0 l 1,53,-1
 267 0 l 1,54,-1
 267 266 l 2,55,56
 267 275 267 275 266.5 285.5 c 128,-1,57
 266 296 266 296 263 305 c 128,-1,58
 260 314 260 314 254 320.5 c 128,-1,59
 248 327 248 327 238 327 c 1,0,1
161 217 m 0,60,61
 161 208 161 208 167 201.5 c 128,-1,62
 173 195 173 195 182 195 c 256,63,64
 191 195 191 195 197.5 201.5 c 128,-1,65
 204 208 204 208 204 217 c 0,66,67
 204 227 204 227 197.5 233.5 c 128,-1,68
 191 240 191 240 182 240 c 256,69,70
 173 240 173 240 167 233.5 c 128,-1,71
 161 227 161 227 161 217 c 0,60,61
EndSplineSet
EndChar
StartChar: uni0E16
Encoding: 3606 3606 291
Width: 364
Flags: W
Fore
196 340 m 1,0,1
 166 340 166 340 140.5 329 c 128,-1,2
 115 318 115 318 96 301 c 1,3,-1
 154 301 l 1,4,-1
 154 263 l 1,5,6
 139 256 139 256 131 241 c 128,-1,7
 123 226 123 226 123 211 c 2,8,-1
 123 129 l 1,9,10
 130 131 130 131 136 132.5 c 128,-1,11
 142 134 142 134 150 134 c 0,12,13
 179 134 179 134 196 115 c 128,-1,14
 213 96 213 96 213 70 c 0,15,16
 213 34 213 34 194 12.5 c 128,-1,17
 175 -9 175 -9 137 -9 c 0,18,19
 101 -9 101 -9 81 18 c 128,-1,20
 61 45 61 45 61 78 c 2,21,-1
 61 196 l 2,22,23
 61 213 61 213 72.5 229.5 c 128,-1,24
 84 246 84 246 95 258 c 1,25,-1
 32 258 l 1,26,-1
 32 317 l 1,27,28
 66 348 66 348 105 370.5 c 128,-1,29
 144 393 144 393 190 393 c 0,30,31
 216 393 216 393 240 386.5 c 128,-1,32
 264 380 264 380 283.5 366 c 128,-1,33
 303 352 303 352 314.5 330 c 128,-1,34
 326 308 326 308 326 277 c 2,35,-1
 326 0 l 1,36,-1
 264 0 l 1,37,-1
 264 267 l 2,38,39
 264 304 264 304 245.5 322 c 128,-1,40
 227 340 227 340 194 340 c 1,41,-1
 196 340 l 1,0,1
121 64 m 0,42,43
 121 55 121 55 127 48.5 c 128,-1,44
 133 42 133 42 142 42 c 256,45,46
 151 42 151 42 157 48.5 c 128,-1,47
 163 55 163 55 163 64 c 0,48,49
 163 74 163 74 157 80.5 c 128,-1,50
 151 87 151 87 142 87 c 256,51,52
 133 87 133 87 127 80.5 c 128,-1,53
 121 74 121 74 121 64 c 0,42,43
EndSplineSet
EndChar
StartChar: uni0E17
Encoding: 3607 3607 292
Width: 364
Flags: W
Fore
172 295 m 2,0,1
 178 304 178 304 187.5 320 c 128,-1,2
 197 336 197 336 209.5 352 c 128,-1,3
 222 368 222 368 237.5 379.5 c 128,-1,4
 253 391 253 391 271 391 c 0,5,6
 312 391 312 391 326.5 370.5 c 128,-1,7
 341 350 341 350 341 310 c 2,8,-1
 341 0 l 1,9,-1
 279 0 l 1,10,-1
 279 325 l 1,11,12
 274 339 274 339 268 339 c 256,13,14
 262 339 262 339 256.5 333.5 c 128,-1,15
 251 328 251 328 245 320 c 128,-1,16
 239 312 239 312 233 302.5 c 128,-1,17
 227 293 227 293 222 284 c 0,18,19
 218 277 218 277 207.5 260.5 c 128,-1,20
 197 244 197 244 186.5 226.5 c 128,-1,21
 176 209 176 209 167.5 195.5 c 128,-1,22
 160 183 160 183 159 182 c 1,23,-1
 159 0 l 1,24,-1
 97 0 l 1,25,-1
 97 250 l 1,26,27
 93 248 93 248 83 248 c 0,28,29
 53 248 53 248 32.5 266 c 128,-1,30
 12 284 12 284 12 316 c 0,31,32
 12 355 12 355 34.5 371.5 c 128,-1,33
 57 388 57 388 94 388 c 0,34,35
 118 388 118 388 131 378.5 c 128,-1,36
 144 369 144 369 150 354 c 128,-1,37
 156 339 156 339 157 321 c 128,-1,38
 158 303 158 303 158 286 c 2,39,-1
 158 273 l 1,40,-1
 172 295 l 2,0,1
61 319 m 0,41,42
 61 310 61 310 67.5 303.5 c 128,-1,43
 74 297 74 297 83 297 c 0,44,45
 91 297 91 297 97.5 303.5 c 128,-1,46
 104 310 104 310 104 319 c 0,47,48
 104 329 104 329 97.5 335.5 c 128,-1,49
 91 342 91 342 83 342 c 0,50,51
 74 342 74 342 67.5 335.5 c 128,-1,52
 61 329 61 329 61 319 c 0,41,42
EndSplineSet
EndChar
StartChar: uni0E18
Encoding: 3608 3608 293
Width: 364
Flags: W
Fore
24 245 m 1,0,1
 25 265 25 265 26.5 277 c 128,-1,2
 28 289 28 289 33 306 c 0,3,4
 45 343 45 343 79.5 364.5 c 128,-1,5
 114 386 114 386 153 386 c 2,6,-1
 177 384 l 2,7,8
 200 381 200 381 228.5 376.5 c 128,-1,9
 257 372 257 372 282 372 c 0,10,11
 294 372 294 372 307.5 373 c 128,-1,12
 321 374 321 374 333 379 c 1,13,-1
 333 300 l 1,14,15
 322 298 322 298 317.5 298 c 128,-1,16
 313 298 313 298 309 298 c 0,17,18
 286 298 286 298 267 302 c 128,-1,19
 248 306 248 306 228 314 c 0,20,21
 210 322 210 322 193.5 328 c 128,-1,22
 177 334 177 334 157 334 c 256,23,24
 137 334 137 334 122 324.5 c 128,-1,25
 107 315 107 315 99 298 c 1,26,-1
 135 298 l 2,27,28
 160 298 160 298 190.5 294.5 c 128,-1,29
 221 291 221 291 248 279.5 c 128,-1,30
 275 268 275 268 293.5 247.5 c 128,-1,31
 312 227 312 227 312 192 c 2,32,-1
 312 0 l 1,33,-1
 62 0 l 1,34,-1
 62 230 l 1,35,-1
 124 230 l 1,36,-1
 124 53 l 1,37,-1
 250 53 l 1,38,-1
 250 183 l 2,39,40
 250 210 250 210 236 222.5 c 128,-1,41
 222 235 222 235 200 239.5 c 128,-1,42
 178 244 178 244 152.5 244 c 128,-1,43
 127 244 127 244 104 245 c 2,44,-1
 24 245 l 1,0,1
EndSplineSet
EndChar
StartChar: uni0E19
Encoding: 3609 3609 294
Width: 364
Flags: W
Fore
355 75 m 0,0,1
 355 60 355 60 350.5 45 c 128,-1,2
 346 30 346 30 338 18 c 128,-1,3
 330 6 330 6 317.5 -1.5 c 128,-1,4
 305 -9 305 -9 289 -9 c 0,5,6
 214 -9 214 -9 214 65 c 2,7,-1
 214 73 l 1,8,9
 197 62 197 62 180 41.5 c 128,-1,10
 163 21 163 21 155 0 c 1,11,-1
 97 0 l 1,12,-1
 97 254 l 1,13,14
 88 251 88 251 77 251 c 0,15,16
 48 251 48 251 32 271 c 128,-1,17
 16 291 16 291 16 318 c 0,18,19
 16 350 16 350 36 368.5 c 128,-1,20
 56 387 56 387 87 387 c 0,21,22
 113 387 113 387 127.5 380 c 128,-1,23
 142 373 142 373 149 360 c 128,-1,24
 156 347 156 347 157.5 329.5 c 128,-1,25
 159 312 159 312 159 292 c 2,26,-1
 159 93 l 1,27,28
 170 105 170 105 186.5 114.5 c 128,-1,29
 203 124 203 124 220 134.5 c 128,-1,30
 237 145 237 145 250.5 158.5 c 128,-1,31
 264 172 264 172 268 191 c 0,32,33
 269 198 269 198 269 205.5 c 128,-1,34
 269 213 269 213 269 219 c 2,35,-1
 269 388 l 1,36,-1
 331 388 l 1,37,-1
 331 194 l 2,38,39
 331 180 331 180 326.5 168 c 128,-1,40
 322 156 322 156 315 145 c 1,41,42
 355 126 355 126 355 75 c 0,0,1
307 74 m 256,43,44
 307 83 307 83 302.5 92.5 c 128,-1,45
 298 102 298 102 288 102 c 0,46,47
 277 102 277 102 272 91.5 c 128,-1,48
 267 81 267 81 267 71 c 256,49,50
 267 61 267 61 271.5 49.5 c 128,-1,51
 276 38 276 38 288 38 c 0,52,53
 299 38 299 38 303 51.5 c 128,-1,54
 307 65 307 65 307 74 c 256,43,44
63 321 m 0,55,56
 63 311 63 311 69.5 304.5 c 128,-1,57
 76 298 76 298 84 298 c 0,58,59
 93 298 93 298 99.5 304.5 c 128,-1,60
 106 311 106 311 106 321 c 0,61,62
 106 330 106 330 99.5 336.5 c 128,-1,63
 93 343 93 343 84 343 c 0,64,65
 76 343 76 343 69.5 336.5 c 128,-1,66
 63 330 63 330 63 321 c 0,55,56
EndSplineSet
EndChar
StartChar: uni0E1A
Encoding: 3610 3610 295
Width: 364
Flags: W
Fore
100 0 m 1,0,-1
 100 249 l 1,1,2
 95 247 95 247 90.5 247 c 128,-1,3
 86 247 86 247 82 247 c 0,4,5
 51 247 51 247 32.5 266.5 c 128,-1,6
 14 286 14 286 14 316 c 0,7,8
 14 348 14 348 34 367.5 c 128,-1,9
 54 387 54 387 86 387 c 0,10,11
 128 387 128 387 145 363.5 c 128,-1,12
 162 340 162 340 162 302 c 2,13,-1
 162 53 l 1,14,-1
 285 53 l 1,15,-1
 285 386 l 1,16,-1
 347 386 l 1,17,-1
 347 0 l 1,18,-1
 100 0 l 1,0,-1
64 318 m 256,19,20
 64 309 64 309 70.5 302.5 c 128,-1,21
 77 296 77 296 86 296 c 0,22,23
 94 296 94 296 100.5 302.5 c 128,-1,24
 107 309 107 309 107 318 c 256,25,26
 107 327 107 327 100.5 333.5 c 128,-1,27
 94 340 94 340 86 340 c 0,28,29
 77 340 77 340 70.5 333.5 c 128,-1,30
 64 327 64 327 64 318 c 256,19,20
EndSplineSet
EndChar
StartChar: uni0E1B
Encoding: 3611 3611 296
Width: 364
Flags: W
Fore
100 0 m 1,0,-1
 100 249 l 1,1,2
 95 247 95 247 90.5 247 c 128,-1,3
 86 247 86 247 82 247 c 0,4,5
 51 247 51 247 32.5 266.5 c 128,-1,6
 14 286 14 286 14 316 c 0,7,8
 14 348 14 348 34 367.5 c 128,-1,9
 54 387 54 387 86 387 c 0,10,11
 128 387 128 387 145 363.5 c 128,-1,12
 162 340 162 340 162 302 c 2,13,-1
 162 53 l 1,14,-1
 284 53 l 1,15,-1
 284 523 l 1,16,-1
 346 523 l 1,17,-1
 346 0 l 1,18,-1
 100 0 l 1,0,-1
66 318 m 256,19,20
 66 309 66 309 72.5 302.5 c 128,-1,21
 79 296 79 296 88 296 c 0,22,23
 96 296 96 296 102.5 302.5 c 128,-1,24
 109 309 109 309 109 318 c 256,25,26
 109 327 109 327 102.5 333.5 c 128,-1,27
 96 340 96 340 88 340 c 0,28,29
 79 340 79 340 72.5 333.5 c 128,-1,30
 66 327 66 327 66 318 c 256,19,20
EndSplineSet
EndChar
StartChar: uni0E1C
Encoding: 3612 3612 297
Width: 364
Flags: W
Fore
114 0 m 1,0,-1
 35 0 l 1,1,-1
 35 316 l 2,2,3
 35 331 35 331 42 344 c 128,-1,4
 49 357 49 357 60.5 367 c 128,-1,5
 72 377 72 377 86 382.5 c 128,-1,6
 100 388 100 388 115 388 c 0,7,8
 148 388 148 388 170 368.5 c 128,-1,9
 192 349 192 349 192 314 c 256,10,11
 192 279 192 279 172 260.5 c 128,-1,12
 152 242 152 242 117 242 c 0,13,14
 108 242 108 242 96 245 c 1,15,-1
 96 81 l 1,16,17
 115 112 115 112 132.5 144 c 128,-1,18
 150 176 150 176 169 207 c 1,19,-1
 209 207 l 1,20,-1
 272 87 l 1,21,-1
 272 386 l 1,22,-1
 334 386 l 1,23,-1
 334 0 l 1,24,-1
 255 0 l 1,25,-1
 186 134 l 1,26,-1
 114 0 l 1,0,-1
98 316 m 0,27,28
 98 307 98 307 104 300.5 c 128,-1,29
 110 294 110 294 119 294 c 256,30,31
 128 294 128 294 134.5 300.5 c 128,-1,32
 141 307 141 307 141 316 c 0,33,34
 141 326 141 326 134.5 332.5 c 128,-1,35
 128 339 128 339 119 339 c 256,36,37
 110 339 110 339 104 332.5 c 128,-1,38
 98 326 98 326 98 316 c 0,27,28
EndSplineSet
EndChar
StartChar: uni0E1D
Encoding: 3613 3613 298
Width: 364
Flags: W
Fore
122 0 m 1,0,-1
 42 0 l 1,1,-1
 42 316 l 2,2,3
 42 331 42 331 49 344 c 128,-1,4
 56 357 56 357 67.5 367 c 128,-1,5
 79 377 79 377 93.5 382.5 c 128,-1,6
 108 388 108 388 123 388 c 0,7,8
 156 388 156 388 178 368.5 c 128,-1,9
 200 349 200 349 200 314 c 256,10,11
 200 279 200 279 180 260.5 c 128,-1,12
 160 242 160 242 125 242 c 0,13,14
 116 242 116 242 104 245 c 1,15,-1
 104 77 l 1,16,17
 123 108 123 108 140 141.5 c 128,-1,18
 157 175 157 175 176 207 c 1,19,-1
 216 207 l 1,20,-1
 280 88 l 1,21,-1
 280 532 l 1,22,-1
 342 532 l 1,23,-1
 342 0 l 1,24,-1
 263 0 l 1,25,-1
 194 134 l 1,26,-1
 122 0 l 1,0,-1
107 313 m 0,27,28
 107 304 107 304 113.5 297.5 c 128,-1,29
 120 291 120 291 128 291 c 0,30,31
 137 291 137 291 143.5 297.5 c 128,-1,32
 150 304 150 304 150 313 c 0,33,34
 150 323 150 323 143.5 329.5 c 128,-1,35
 137 336 137 336 128 336 c 0,36,37
 120 336 120 336 113.5 329.5 c 128,-1,38
 107 323 107 323 107 313 c 0,27,28
EndSplineSet
EndChar
StartChar: uni0E1E
Encoding: 3614 3614 299
Width: 364
Flags: W
Fore
171 0 m 1,0,-1
 94 0 l 1,1,-1
 94 248 l 1,2,3
 89 247 89 247 81 247 c 0,4,5
 7 247 7 247 7 318 c 0,6,7
 7 351 7 351 29 370 c 128,-1,8
 51 389 51 389 83 389 c 0,9,10
 122 389 122 389 138.5 367 c 128,-1,11
 155 345 155 345 155 309 c 2,12,-1
 155 122 l 1,13,14
 161 145 161 145 167 165 c 128,-1,15
 173 185 173 185 178.5 204 c 128,-1,16
 184 223 184 223 190 242.5 c 128,-1,17
 196 262 196 262 202 285 c 1,18,-1
 242 285 l 1,19,-1
 287 122 l 1,20,-1
 287 386 l 1,21,-1
 349 386 l 1,22,-1
 349 0 l 1,23,-1
 275 0 l 1,24,-1
 223 194 l 1,25,-1
 171 0 l 1,0,-1
59 318 m 0,26,27
 59 308 59 308 65 301.5 c 128,-1,28
 71 295 71 295 80 295 c 256,29,30
 89 295 89 295 95.5 301.5 c 128,-1,31
 102 308 102 308 102 318 c 0,32,33
 102 327 102 327 95.5 333.5 c 128,-1,34
 89 340 89 340 80 340 c 256,35,36
 71 340 71 340 65 333.5 c 128,-1,37
 59 327 59 327 59 318 c 0,26,27
EndSplineSet
EndChar
StartChar: uni0E1F
Encoding: 3615 3615 300
Width: 364
Flags: W
Fore
171 0 m 1,0,-1
 94 0 l 1,1,-1
 94 248 l 1,2,3
 89 247 89 247 81 247 c 0,4,5
 7 247 7 247 7 318 c 0,6,7
 7 351 7 351 29 370 c 128,-1,8
 51 389 51 389 83 389 c 0,9,10
 122 389 122 389 138.5 367 c 128,-1,11
 155 345 155 345 155 309 c 2,12,-1
 155 122 l 1,13,14
 161 145 161 145 167 165 c 128,-1,15
 173 185 173 185 178.5 204 c 128,-1,16
 184 223 184 223 190 242.5 c 128,-1,17
 196 262 196 262 202 285 c 1,18,-1
 243 285 l 1,19,-1
 287 122 l 1,20,-1
 287 523 l 1,21,-1
 349 523 l 1,22,-1
 349 0 l 1,23,-1
 275 0 l 1,24,-1
 223 194 l 1,25,-1
 171 0 l 1,0,-1
59 318 m 0,26,27
 59 308 59 308 65 301.5 c 128,-1,28
 71 295 71 295 80 295 c 256,29,30
 89 295 89 295 95.5 301.5 c 128,-1,31
 102 308 102 308 102 318 c 0,32,33
 102 327 102 327 95.5 333.5 c 128,-1,34
 89 340 89 340 80 340 c 256,35,36
 71 340 71 340 65 333.5 c 128,-1,37
 59 327 59 327 59 318 c 0,26,27
EndSplineSet
EndChar
StartChar: uni0E20
Encoding: 3616 3616 301
Width: 364
Flags: W
Fore
277 265 m 2,0,1
 277 300 277 300 262.5 322 c 128,-1,2
 248 344 248 344 211 344 c 0,3,4
 201 344 201 344 188.5 340.5 c 128,-1,5
 176 337 176 337 164 331.5 c 128,-1,6
 152 326 152 326 142.5 319 c 128,-1,7
 133 312 133 312 128 304 c 1,8,-1
 191 304 l 1,9,-1
 191 266 l 1,10,11
 175 255 175 255 169 242.5 c 128,-1,12
 163 230 163 230 163 213 c 2,13,-1
 163 70 l 2,14,15
 163 35 163 35 146 13 c 128,-1,16
 129 -9 129 -9 91 -9 c 0,17,18
 58 -9 58 -9 39.5 11 c 128,-1,19
 21 31 21 31 21 64 c 0,20,21
 21 93 21 93 39 110.5 c 128,-1,22
 57 128 57 128 88 128 c 0,23,24
 93 128 93 128 94.5 128 c 128,-1,25
 96 128 96 128 101 126 c 1,26,-1
 101 196 l 2,27,28
 101 213 101 213 108 233 c 128,-1,29
 115 253 115 253 132 264 c 1,30,-1
 68 264 l 1,31,-1
 68 321 l 1,32,33
 93 355 93 355 134 374.5 c 128,-1,34
 175 394 175 394 215 394 c 0,35,36
 274 394 274 394 306.5 361.5 c 128,-1,37
 339 329 339 329 339 263 c 2,38,-1
 339 0 l 1,39,-1
 277 0 l 1,40,-1
 277 265 l 2,0,1
69 59 m 0,41,42
 69 50 69 50 75.5 43.5 c 128,-1,43
 82 37 82 37 91 37 c 0,44,45
 99 37 99 37 105.5 43.5 c 128,-1,46
 112 50 112 50 112 59 c 0,47,48
 112 69 112 69 105.5 75.5 c 128,-1,49
 99 82 99 82 91 82 c 0,50,51
 82 82 82 82 75.5 75.5 c 128,-1,52
 69 69 69 69 69 59 c 0,41,42
EndSplineSet
EndChar
StartChar: uni0E21
Encoding: 3617 3617 302
Width: 364
Flags: W
Fore
178 106 m 1,0,-1
 178 56 l 2,1,2
 178 24 178 24 160.5 7.5 c 128,-1,3
 143 -9 143 -9 114 -9 c 0,4,5
 96 -9 96 -9 81.5 -1 c 128,-1,6
 67 7 67 7 57 20 c 128,-1,7
 47 33 47 33 41.5 49 c 128,-1,8
 36 65 36 65 36 81 c 0,9,10
 36 116 36 116 60 143.5 c 128,-1,11
 84 171 84 171 118 178 c 1,12,-1
 118 245 l 1,13,14
 113 243 113 243 110 243 c 128,-1,15
 107 243 107 243 102 243 c 0,16,17
 69 243 69 243 47 259.5 c 128,-1,18
 25 276 25 276 25 312 c 0,19,20
 25 350 25 350 49.5 369.5 c 128,-1,21
 74 389 74 389 109 389 c 0,22,23
 146 389 146 389 163 367 c 128,-1,24
 180 345 180 345 180 310 c 2,25,-1
 180 177 l 1,26,27
 211 154 211 154 234 131.5 c 128,-1,28
 257 109 257 109 281 88 c 1,29,-1
 281 388 l 1,30,-1
 343 388 l 1,31,-1
 343 0 l 1,32,-1
 281 0 l 1,33,-1
 178 106 l 1,0,-1
109 40 m 0,34,35
 115 40 115 40 116.5 45 c 128,-1,36
 118 50 118 50 118 57 c 2,37,-1
 118 123 l 1,38,39
 107 118 107 118 99.5 106 c 128,-1,40
 92 94 92 94 92 80 c 0,41,42
 92 76 92 76 92.5 69 c 128,-1,43
 93 62 93 62 95 55.5 c 128,-1,44
 97 49 97 49 100.5 44.5 c 128,-1,45
 104 40 104 40 109 40 c 0,34,35
82 316 m 0,46,47
 82 307 82 307 88 300.5 c 128,-1,48
 94 294 94 294 103 294 c 256,49,50
 112 294 112 294 118 300.5 c 128,-1,51
 124 307 124 307 124 316 c 0,52,53
 124 326 124 326 118 332.5 c 128,-1,54
 112 339 112 339 103 339 c 256,55,56
 94 339 94 339 88 332.5 c 128,-1,57
 82 326 82 326 82 316 c 0,46,47
EndSplineSet
EndChar
StartChar: uni0E22
Encoding: 3618 3618 303
Width: 364
Flags: W
Fore
62 119 m 1,0,1
 62 141 62 141 73 160.5 c 128,-1,2
 84 180 84 180 101 194 c 1,3,4
 74 205 74 205 55 227.5 c 128,-1,5
 36 250 36 250 36 281 c 0,6,7
 36 328 36 328 67 359.5 c 128,-1,8
 98 391 98 391 145 391 c 0,9,10
 163 391 163 391 180 388.5 c 128,-1,11
 197 386 197 386 210.5 378.5 c 128,-1,12
 224 371 224 371 232 357 c 128,-1,13
 240 343 240 343 240 321 c 0,14,15
 240 289 240 289 221 270.5 c 128,-1,16
 202 252 202 252 171 252 c 0,17,18
 145 252 145 252 123.5 268.5 c 128,-1,19
 102 285 102 285 100 312 c 1,20,21
 94 296 94 296 94 276 c 0,22,23
 94 263 94 263 102 253.5 c 128,-1,24
 110 244 110 244 122 238 c 128,-1,25
 134 232 134 232 147.5 229 c 128,-1,26
 161 226 161 226 172 226 c 2,27,-1
 222 226 l 1,28,-1
 222 173 l 1,29,-1
 177 173 l 2,30,31
 154 173 154 173 139 156 c 128,-1,32
 124 139 124 139 124 117 c 2,33,-1
 124 53 l 1,34,-1
 273 53 l 1,35,-1
 273 388 l 1,36,-1
 335 388 l 1,37,-1
 335 0 l 1,38,-1
 62 0 l 1,39,-1
 62 119 l 1,40,-1
 62 119 l 1,0,1
152 320 m 256,41,42
 152 311 152 311 158 304.5 c 128,-1,43
 164 298 164 298 173 298 c 256,44,45
 182 298 182 298 188 304.5 c 128,-1,46
 194 311 194 311 194 320 c 256,47,48
 194 329 194 329 188 335.5 c 128,-1,49
 182 342 182 342 173 342 c 256,50,51
 164 342 164 342 158 335.5 c 128,-1,52
 152 329 152 329 152 320 c 256,41,42
EndSplineSet
EndChar
StartChar: uni0E23
Encoding: 3619 3619 304
Width: 364
Flags: W
Fore
307 309 m 2,0,1
 297 307 297 307 294 307 c 128,-1,2
 291 307 291 307 286 307 c 0,3,4
 268 307 268 307 253.5 310.5 c 128,-1,5
 239 314 239 314 225.5 319 c 128,-1,6
 212 324 212 324 197.5 328.5 c 128,-1,7
 183 333 183 333 165 335 c 0,8,9
 132 335 132 335 119 308 c 1,10,11
 124 307 124 307 131.5 307 c 128,-1,12
 139 307 139 307 144 307 c 0,13,14
 172 304 172 304 201.5 299 c 128,-1,15
 231 294 231 294 255 282 c 128,-1,16
 279 270 279 270 294 248 c 128,-1,17
 309 226 309 226 309 190 c 2,18,-1
 309 71 l 2,19,20
 309 36 309 36 289.5 13.5 c 128,-1,21
 270 -9 270 -9 234 -9 c 0,22,23
 199 -9 199 -9 177.5 13 c 128,-1,24
 156 35 156 35 156 70 c 0,25,26
 156 102 156 102 176 119 c 128,-1,27
 196 136 196 136 227 136 c 0,28,29
 235 136 235 136 247 131 c 1,30,-1
 247 195 l 2,31,32
 247 216 247 216 227 228 c 128,-1,33
 207 240 207 240 179 246 c 128,-1,34
 151 252 151 252 120.5 254.5 c 128,-1,35
 90 257 90 257 69 258 c 0,36,37
 64 258 64 258 55.5 258.5 c 128,-1,38
 47 259 47 259 44 259 c 1,39,40
 48 283 48 283 56.5 306.5 c 128,-1,41
 65 330 65 330 78.5 349 c 128,-1,42
 92 368 92 368 112 379.5 c 128,-1,43
 132 391 132 391 158 391 c 0,44,45
 190 391 190 391 211 384.5 c 128,-1,46
 232 378 232 378 258 378 c 0,47,48
 272 378 272 378 293 379.5 c 128,-1,49
 314 381 314 381 329 388 c 1,50,-1
 329 314 l 1,51,-1
 307 309 l 2,0,1
212 63 m 0,52,53
 212 54 212 54 218.5 47.5 c 128,-1,54
 225 41 225 41 233 41 c 0,55,56
 242 41 242 41 248.5 47.5 c 128,-1,57
 255 54 255 54 255 63 c 0,58,59
 255 73 255 73 248.5 79.5 c 128,-1,60
 242 86 242 86 233 86 c 0,61,62
 225 86 225 86 218.5 79.5 c 128,-1,63
 212 73 212 73 212 63 c 0,52,53
EndSplineSet
EndChar
StartChar: uni0E24
Encoding: 3620 3620 305
Width: 364
Flags: W
Fore
196 340 m 0,0,1
 166 340 166 340 140 329.5 c 128,-1,2
 114 319 114 319 95 301 c 1,3,-1
 153 301 l 1,4,-1
 153 263 l 1,5,6
 138 256 138 256 130.5 241 c 128,-1,7
 123 226 123 226 123 211 c 2,8,-1
 123 129 l 1,9,10
 134 134 134 134 150 134 c 0,11,12
 179 134 179 134 196 115 c 128,-1,13
 213 96 213 96 213 69 c 0,14,15
 213 34 213 34 194 12.5 c 128,-1,16
 175 -9 175 -9 137 -9 c 0,17,18
 101 -9 101 -9 81 18 c 128,-1,19
 61 45 61 45 61 78 c 2,20,-1
 61 194 l 2,21,22
 61 211 61 211 72.5 229 c 128,-1,23
 84 247 84 247 95 259 c 1,24,-1
 32 259 l 1,25,-1
 32 317 l 1,26,27
 66 348 66 348 105 370.5 c 128,-1,28
 144 393 144 393 190 393 c 0,29,30
 216 393 216 393 240 386.5 c 128,-1,31
 264 380 264 380 283.5 366 c 128,-1,32
 303 352 303 352 314.5 330 c 128,-1,33
 326 308 326 308 326 277 c 2,34,-1
 326 -134 l 1,35,-1
 264 -134 l 1,36,-1
 264 267 l 2,37,38
 264 340 264 340 196 340 c 0,0,1
122 63 m 0,39,40
 122 53 122 53 128 46.5 c 128,-1,41
 134 40 134 40 143 40 c 256,42,43
 152 40 152 40 158 46.5 c 128,-1,44
 164 53 164 53 164 63 c 0,45,46
 164 72 164 72 158 78.5 c 128,-1,47
 152 85 152 85 143 85 c 256,48,49
 134 85 134 85 128 78.5 c 128,-1,50
 122 72 122 72 122 63 c 0,39,40
EndSplineSet
EndChar
StartChar: uni0E25
Encoding: 3621 3621 306
Width: 364
Flags: W
Fore
263 100 m 2,0,1
 263 118 263 118 255 135.5 c 128,-1,2
 247 153 247 153 234.5 167 c 128,-1,3
 222 181 222 181 205 190 c 128,-1,4
 188 199 188 199 169 199 c 0,5,6
 151 199 151 199 140.5 193.5 c 128,-1,7
 130 188 130 188 124 179 c 128,-1,8
 118 170 118 170 115.5 157.5 c 128,-1,9
 113 145 113 145 112 131 c 1,10,-1
 117 131 l 2,11,12
 149 131 149 131 170 113 c 128,-1,13
 191 95 191 95 191 63 c 256,14,15
 191 31 191 31 171 11 c 128,-1,16
 151 -9 151 -9 119 -9 c 0,17,18
 84 -9 84 -9 65.5 11.5 c 128,-1,19
 47 32 47 32 47 66 c 2,20,-1
 47 140 l 2,21,22
 47 197 47 197 80.5 225 c 128,-1,23
 114 253 114 253 168 253 c 0,24,25
 190 253 190 253 217.5 242 c 128,-1,26
 245 231 245 231 263 213 c 1,27,28
 263 221 263 221 263 231 c 128,-1,29
 263 241 263 241 262 248 c 0,30,31
 259 288 259 288 242 310.5 c 128,-1,32
 225 333 225 333 180 333 c 0,33,34
 151 333 151 333 127 316 c 128,-1,35
 103 299 103 299 100 266 c 1,36,-1
 38 266 l 1,37,38
 47 331 47 331 88 360 c 128,-1,39
 129 389 129 389 186 389 c 0,40,41
 246 389 246 389 285.5 356 c 128,-1,42
 325 323 325 323 325 258 c 2,43,-1
 325 0 l 1,44,-1
 263 0 l 1,45,-1
 263 100 l 2,0,1
100 60 m 0,46,47
 100 51 100 51 106.5 44.5 c 128,-1,48
 113 38 113 38 122 38 c 0,49,50
 130 38 130 38 136.5 44.5 c 128,-1,51
 143 51 143 51 143 60 c 0,52,53
 143 70 143 70 136.5 76.5 c 128,-1,54
 130 83 130 83 122 83 c 0,55,56
 113 83 113 83 106.5 76.5 c 128,-1,57
 100 70 100 70 100 60 c 0,46,47
EndSplineSet
EndChar
StartChar: uni0E26
Encoding: 3622 3622 307
Width: 364
Flags: W
Fore
274 273 m 2,0,1
 272 308 272 308 259 326 c 128,-1,2
 246 344 246 344 209 344 c 0,3,4
 199 344 199 344 186.5 340.5 c 128,-1,5
 174 337 174 337 162.5 331.5 c 128,-1,6
 151 326 151 326 141.5 319 c 128,-1,7
 132 312 132 312 127 304 c 1,8,-1
 191 304 l 1,9,-1
 191 265 l 1,10,11
 175 254 175 254 169 242 c 128,-1,12
 163 230 163 230 163 213 c 2,13,-1
 163 70 l 2,14,15
 163 35 163 35 146 13 c 128,-1,16
 129 -9 129 -9 91 -9 c 0,17,18
 58 -9 58 -9 39.5 11 c 128,-1,19
 21 31 21 31 21 64 c 0,20,21
 21 93 21 93 39 110 c 128,-1,22
 57 127 57 127 83 127 c 0,23,24
 88 127 88 127 92 127 c 128,-1,25
 96 127 96 127 101 125 c 1,26,-1
 101 197 l 2,27,28
 101 214 101 214 107.5 233 c 128,-1,29
 114 252 114 252 131 263 c 1,30,-1
 68 263 l 1,31,-1
 68 321 l 1,32,33
 93 355 93 355 134 374.5 c 128,-1,34
 175 394 175 394 215 394 c 0,35,36
 272 394 272 394 304 363 c 128,-1,37
 336 332 336 332 336 271 c 2,38,-1
 336 -136 l 1,39,-1
 274 -136 l 1,40,-1
 274 273 l 2,0,1
69 59 m 256,41,42
 69 50 69 50 75.5 43.5 c 128,-1,43
 82 37 82 37 91 37 c 0,44,45
 99 37 99 37 105.5 43.5 c 128,-1,46
 112 50 112 50 112 59 c 256,47,48
 112 68 112 68 105.5 74.5 c 128,-1,49
 99 81 99 81 91 81 c 0,50,51
 82 81 82 81 75.5 74.5 c 128,-1,52
 69 68 69 68 69 59 c 256,41,42
EndSplineSet
EndChar
StartChar: uni0E27
Encoding: 3623 3623 308
Width: 364
Flags: W
Fore
316 71 m 1,0,1
 316 56 316 56 311.5 42 c 128,-1,2
 307 28 307 28 298.5 16.5 c 128,-1,3
 290 5 290 5 277 -2 c 128,-1,4
 264 -9 264 -9 247 -9 c 0,5,6
 212 -9 212 -9 188.5 11 c 128,-1,7
 165 31 165 31 165 68 c 0,8,9
 165 98 165 98 184 120.5 c 128,-1,10
 203 143 203 143 235 143 c 0,11,12
 245 143 245 143 254 140 c 1,13,-1
 254 269 l 2,14,15
 254 301 254 301 236 318.5 c 128,-1,16
 218 336 218 336 186 336 c 0,17,18
 149 336 149 336 114.5 310.5 c 128,-1,19
 80 285 80 285 51 251 c 1,20,-1
 51 334 l 1,21,22
 77 363 77 363 111.5 378 c 128,-1,23
 146 393 146 393 183 393 c 0,24,25
 210 393 210 393 234 386.5 c 128,-1,26
 258 380 258 380 276 366.5 c 128,-1,27
 294 353 294 353 305 332 c 128,-1,28
 316 311 316 311 316 281 c 2,29,-1
 316 71 l 1,30,-1
 316 71 l 1,0,1
220 65 m 0,31,32
 220 56 220 56 226.5 49.5 c 128,-1,33
 233 43 233 43 242 43 c 0,34,35
 250 43 250 43 256.5 49.5 c 128,-1,36
 263 56 263 56 263 65 c 0,37,38
 263 75 263 75 256.5 81.5 c 128,-1,39
 250 88 250 88 242 88 c 0,40,41
 233 88 233 88 226.5 81.5 c 128,-1,42
 220 75 220 75 220 65 c 0,31,32
EndSplineSet
EndChar
StartChar: uni0E28
Encoding: 3624 3624 309
Width: 364
Flags: W
Fore
25 242 m 0,0,1
 25 311 25 311 68 349.5 c 128,-1,2
 111 388 111 388 178 388 c 2,3,-1
 220 388 l 2,4,5
 243 388 243 388 255 399.5 c 128,-1,6
 267 411 267 411 271 429 c 1,7,-1
 339 429 l 1,8,9
 333 403 333 403 318 382 c 128,-1,10
 303 361 303 361 284 351 c 1,11,12
 306 331 306 331 317.5 311.5 c 128,-1,13
 329 292 329 292 329 263 c 2,14,-1
 329 0 l 1,15,-1
 267 0 l 1,16,-1
 267 248 l 2,17,18
 267 284 267 284 248 309.5 c 128,-1,19
 229 335 229 335 191 335 c 0,20,21
 145 335 145 335 115 311.5 c 128,-1,22
 85 288 85 288 85 240 c 0,23,24
 85 217 85 217 89.5 192 c 128,-1,25
 94 167 94 167 99 144 c 1,26,27
 104 165 104 165 107.5 189 c 128,-1,28
 111 213 111 213 118.5 234 c 128,-1,29
 126 255 126 255 140.5 269 c 128,-1,30
 155 283 155 283 181 283 c 0,31,32
 213 283 213 283 232.5 264.5 c 128,-1,33
 252 246 252 246 252 213 c 0,34,35
 252 185 252 185 233.5 162.5 c 128,-1,36
 215 140 215 140 185 140 c 0,37,38
 168 140 168 140 153 149 c 1,39,40
 145 120 145 120 138 84 c 128,-1,41
 131 48 131 48 129 0 c 1,42,-1
 70 0 l 1,43,44
 68 31 68 31 61 61.5 c 128,-1,45
 54 92 54 92 46.5 122.5 c 128,-1,46
 39 153 39 153 32.5 183 c 128,-1,47
 26 213 26 213 25 242 c 0,0,1
165 211 m 0,48,49
 165 201 165 201 171 194.5 c 128,-1,50
 177 188 177 188 186 188 c 256,51,52
 195 188 195 188 201 194.5 c 128,-1,53
 207 201 207 201 207 211 c 0,54,55
 207 220 207 220 201 226.5 c 128,-1,56
 195 233 195 233 186 233 c 256,57,58
 177 233 177 233 171 226.5 c 128,-1,59
 165 220 165 220 165 211 c 0,48,49
EndSplineSet
EndChar
StartChar: uni0E29
Encoding: 3625 3625 310
Width: 364
Flags: W
Fore
360 131 m 1,0,1
 349 124 349 124 346.5 124 c 128,-1,2
 344 124 344 124 337 121 c 1,3,-1
 337 0 l 1,4,-1
 98 0 l 1,5,-1
 98 247 l 1,6,7
 94 246 94 246 91 245.5 c 128,-1,8
 88 245 88 245 84 245 c 0,9,10
 52 245 52 245 31 263.5 c 128,-1,11
 10 282 10 282 10 316 c 0,12,13
 10 353 10 353 32.5 370 c 128,-1,14
 55 387 55 387 88 387 c 0,15,16
 114 387 114 387 128.5 378.5 c 128,-1,17
 143 370 143 370 150 355.5 c 128,-1,18
 157 341 157 341 158.5 323 c 128,-1,19
 160 305 160 305 160 285 c 2,20,-1
 160 223 l 1,21,22
 167 240 167 240 180.5 250 c 128,-1,23
 194 260 194 260 219 260 c 0,24,25
 245 260 245 260 257.5 248 c 128,-1,26
 270 236 270 236 275 219 c 1,27,-1
 275 387 l 1,28,-1
 337 387 l 1,29,-1
 337 178 l 1,30,31
 339 180 339 180 345.5 185 c 128,-1,32
 352 190 352 190 360 197 c 1,33,-1
 360 131 l 1,0,1
270 114 m 1,34,35
 253 114 253 114 235.5 116 c 128,-1,36
 218 118 218 118 202.5 124 c 128,-1,37
 187 130 187 130 175.5 142.5 c 128,-1,38
 164 155 164 155 160 176 c 1,39,-1
 160 53 l 1,40,-1
 275 53 l 1,41,-1
 275 114 l 1,42,-1
 270 114 l 1,43,-1
 270 114 l 1,34,35
275 160 m 1,44,-1
 275 190 l 1,45,46
 275 188 275 188 274 183.5 c 128,-1,47
 273 179 273 179 271 174 c 0,48,49
 267 166 267 166 264 164 c 128,-1,50
 261 162 261 162 261 160 c 1,51,-1
 275 160 l 1,44,-1
199 197 m 0,52,53
 199 186 199 186 204.5 179 c 128,-1,54
 210 172 210 172 218 172 c 256,55,56
 226 172 226 172 231.5 179 c 128,-1,57
 237 186 237 186 237 197 c 256,58,59
 237 208 237 208 231.5 215 c 128,-1,60
 226 222 226 222 218 222 c 1,61,62
 211 223 211 223 205.5 215.5 c 128,-1,63
 200 208 200 208 199 197 c 0,52,53
63 317 m 0,64,65
 63 307 63 307 69.5 300.5 c 128,-1,66
 76 294 76 294 84 294 c 0,67,68
 93 294 93 294 99.5 300.5 c 128,-1,69
 106 307 106 307 106 317 c 0,70,71
 106 326 106 326 99.5 332.5 c 128,-1,72
 93 339 93 339 84 339 c 0,73,74
 76 339 76 339 69.5 332.5 c 128,-1,75
 63 326 63 326 63 317 c 0,64,65
EndSplineSet
EndChar
StartChar: uni0E2A
Encoding: 3626 3626 311
Width: 364
Flags: W
Fore
124 130 m 1,0,1
 157 130 157 130 175.5 110.5 c 128,-1,2
 194 91 194 91 194 58 c 256,3,4
 194 25 194 25 175.5 8 c 128,-1,5
 157 -9 157 -9 125 -9 c 0,6,7
 53 -9 53 -9 53 62 c 2,8,-1
 53 140 l 2,9,10
 53 199 53 199 86.5 226 c 128,-1,11
 120 253 120 253 175 253 c 0,12,13
 198 253 198 253 220.5 242 c 128,-1,14
 243 231 243 231 260 211 c 1,15,-1
 260 224 l 2,16,17
 260 249 260 249 259 269.5 c 128,-1,18
 258 290 258 290 250.5 304.5 c 128,-1,19
 243 319 243 319 227.5 327 c 128,-1,20
 212 335 212 335 183 335 c 0,21,22
 169 335 169 335 154.5 330 c 128,-1,23
 140 325 140 325 128.5 315.5 c 128,-1,24
 117 306 117 306 109 292.5 c 128,-1,25
 101 279 101 279 100 262 c 1,26,-1
 38 262 l 1,27,28
 44 297 44 297 59.5 320.5 c 128,-1,29
 75 344 75 344 98 358 c 128,-1,30
 121 372 121 372 149.5 378 c 128,-1,31
 178 384 178 384 208 384 c 2,32,-1
 224 384 l 2,33,34
 246 384 246 384 254.5 394 c 128,-1,35
 263 404 263 404 271 429 c 1,36,-1
 339 429 l 1,37,38
 332 400 332 400 318 378.5 c 128,-1,39
 304 357 304 357 283 347 c 1,40,41
 304 333 304 333 313 310.5 c 128,-1,42
 322 288 322 288 322 259 c 2,43,-1
 322 -1 l 1,44,-1
 260 -1 l 1,45,-1
 260 99 l 2,46,47
 260 114 260 114 252 131.5 c 128,-1,48
 244 149 244 149 231.5 164 c 128,-1,49
 219 179 219 179 202.5 189 c 128,-1,50
 186 199 186 199 168 199 c 256,51,52
 150 199 150 199 139 194 c 128,-1,53
 128 189 128 189 122.5 180 c 128,-1,54
 117 171 117 171 115 158 c 128,-1,55
 113 145 113 145 112 130 c 1,56,-1
 124 130 l 1,57,-1
 124 130 l 1,0,1
105 56 m 0,58,59
 105 47 105 47 111 40.5 c 128,-1,60
 117 34 117 34 126 34 c 256,61,62
 135 34 135 34 141.5 40.5 c 128,-1,63
 148 47 148 47 148 56 c 0,64,65
 148 66 148 66 141.5 72.5 c 128,-1,66
 135 79 135 79 126 79 c 256,67,68
 117 79 117 79 111 72.5 c 128,-1,69
 105 66 105 66 105 56 c 0,58,59
EndSplineSet
EndChar
StartChar: uni0E2B
Encoding: 3627 3627 312
Width: 364
Flags: W
Fore
338 338 m 0,0,1
 338 302 338 302 314 281 c 1,2,3
 325 273 325 273 333 261.5 c 128,-1,4
 341 250 341 250 341 237 c 2,5,-1
 341 0 l 1,6,-1
 279 0 l 1,7,-1
 279 232 l 2,8,9
 279 234 279 234 278 236 c 128,-1,10
 277 238 277 238 276 241 c 1,11,12
 247 181 247 181 219.5 120 c 128,-1,13
 192 59 192 59 163 0 c 1,14,-1
 101 0 l 1,15,-1
 101 250 l 1,16,17
 95 248 95 248 90 248 c 0,18,19
 61 248 61 248 40 266.5 c 128,-1,20
 19 285 19 285 19 315 c 256,21,22
 19 345 19 345 38.5 367.5 c 128,-1,23
 58 390 58 390 89 390 c 0,24,25
 114 390 114 390 129 383.5 c 128,-1,26
 144 377 144 377 151.5 366 c 128,-1,27
 159 355 159 355 161 340 c 128,-1,28
 163 325 163 325 163 308 c 2,29,-1
 163 110 l 1,30,31
 183 152 183 152 203 195 c 128,-1,32
 223 238 223 238 244 280 c 1,33,34
 232 289 232 289 220.5 300 c 128,-1,35
 209 311 209 311 209 328 c 0,36,37
 209 359 209 359 227.5 376 c 128,-1,38
 246 393 246 393 276 393 c 0,39,40
 302 393 302 393 320 380.5 c 128,-1,41
 338 368 338 368 338 338 c 0,0,1
294 335 m 0,42,43
 294 343 294 343 289.5 350.5 c 128,-1,44
 285 358 285 358 277 358 c 256,45,46
 269 358 269 358 264.5 350 c 128,-1,47
 260 342 260 342 260 334 c 256,48,49
 260 326 260 326 264 319.5 c 128,-1,50
 268 313 268 313 275 313 c 0,51,52
 294 313 294 313 294 335 c 0,42,43
68 319 m 0,53,54
 68 309 68 309 74 302.5 c 128,-1,55
 80 296 80 296 89 296 c 256,56,57
 98 296 98 296 104.5 302.5 c 128,-1,58
 111 309 111 309 111 319 c 0,59,60
 111 328 111 328 104.5 334.5 c 128,-1,61
 98 341 98 341 89 341 c 256,62,63
 80 341 80 341 74 334.5 c 128,-1,64
 68 328 68 328 68 319 c 0,53,54
EndSplineSet
EndChar
StartChar: uni0E2C
Encoding: 3628 3628 313
Width: 364
Flags: W
Fore
374 390 m 1,0,1
 368 370 368 370 358.5 347.5 c 128,-1,2
 349 325 349 325 335 311 c 1,3,-1
 335 0 l 1,4,-1
 261 0 l 1,5,-1
 205 155 l 1,6,7
 194 116 194 116 183.5 77.5 c 128,-1,8
 173 39 173 39 162 0 c 1,9,-1
 84 0 l 1,10,-1
 84 248 l 1,11,12
 82 248 82 248 79.5 247.5 c 128,-1,13
 77 247 77 247 74 247 c 0,14,15
 42 247 42 247 23 263.5 c 128,-1,16
 4 280 4 280 4 314 c 0,17,18
 4 346 4 346 23.5 366.5 c 128,-1,19
 43 387 43 387 75 387 c 0,20,21
 104 387 104 387 125 371 c 128,-1,22
 146 355 146 355 146 323 c 2,23,-1
 146 108 l 1,24,25
 157 140 157 140 166.5 173.5 c 128,-1,26
 176 207 176 207 187 239 c 1,27,-1
 224 239 l 1,28,-1
 273 103 l 1,29,-1
 273 279 l 1,30,31
 265 277 265 277 257 275.5 c 128,-1,32
 249 274 249 274 240 274 c 0,33,34
 209 274 209 274 192 286 c 128,-1,35
 175 298 175 298 175 332 c 0,36,37
 175 348 175 348 181.5 359 c 128,-1,38
 188 370 188 370 198.5 377 c 128,-1,39
 209 384 209 384 221.5 387 c 128,-1,40
 234 390 234 390 247 390 c 0,41,42
 265 390 265 390 280.5 385 c 128,-1,43
 296 380 296 380 310 368 c 1,44,45
 315 377 315 377 315.5 380 c 128,-1,46
 316 383 316 383 318 390 c 1,47,-1
 374 390 l 1,0,1
246 317 m 0,48,49
 268 317 268 317 278 331 c 1,50,51
 267 349 267 349 244 349 c 0,52,53
 237 349 237 349 228 344.5 c 128,-1,54
 219 340 219 340 219 333 c 0,55,56
 219 324 219 324 228.5 320.5 c 128,-1,57
 238 317 238 317 246 317 c 0,48,49
50 319 m 0,58,59
 50 309 50 309 56 302.5 c 128,-1,60
 62 296 62 296 71 296 c 256,61,62
 80 296 80 296 86.5 302.5 c 128,-1,63
 93 309 93 309 93 319 c 0,64,65
 93 328 93 328 86.5 334.5 c 128,-1,66
 80 341 80 341 71 341 c 256,67,68
 62 341 62 341 56 334.5 c 128,-1,69
 50 328 50 328 50 319 c 0,58,59
EndSplineSet
Substitution: 0 65534 'L019' uni0E2C.alt1
Substitution: 0 65534 'L019' uni0E2C.alt1
EndChar
StartChar: uni0E2D
Encoding: 3629 3629 314
Width: 364
Flags: W
Fore
70 206 m 1,0,1
 70 220 70 220 76.5 231.5 c 128,-1,2
 83 243 83 243 93 251.5 c 128,-1,3
 103 260 103 260 116 265 c 128,-1,4
 129 270 129 270 141 270 c 0,5,6
 172 270 172 270 193 251.5 c 128,-1,7
 214 233 214 233 214 201 c 0,8,9
 214 174 214 174 194 153 c 128,-1,10
 174 132 174 132 148 132 c 0,11,12
 143 132 143 132 140 132 c 128,-1,13
 137 132 137 132 132 134 c 1,14,-1
 132 53 l 1,15,-1
 272 53 l 1,16,-1
 272 249 l 2,17,18
 272 298 272 298 247.5 316.5 c 128,-1,19
 223 335 223 335 178 335 c 0,20,21
 138 335 138 335 102 310 c 128,-1,22
 66 285 66 285 31 253 c 1,23,-1
 31 330 l 1,24,25
 62 364 62 364 99.5 378.5 c 128,-1,26
 137 393 137 393 180 393 c 0,27,28
 214 393 214 393 242.5 385.5 c 128,-1,29
 271 378 271 378 291 361 c 128,-1,30
 311 344 311 344 322.5 317.5 c 128,-1,31
 334 291 334 291 334 253 c 2,32,-1
 334 0 l 1,33,-1
 70 0 l 1,34,-1
 70 206 l 1,35,-1
 70 206 l 1,0,1
126 201 m 0,36,37
 126 192 126 192 132 185.5 c 128,-1,38
 138 179 138 179 147 179 c 256,39,40
 156 179 156 179 162.5 185.5 c 128,-1,41
 169 192 169 192 169 201 c 0,42,43
 169 211 169 211 162.5 217.5 c 128,-1,44
 156 224 156 224 147 224 c 256,45,46
 138 224 138 224 132 217.5 c 128,-1,47
 126 211 126 211 126 201 c 0,36,37
EndSplineSet
EndChar
StartChar: uni0E2E
Encoding: 3630 3630 315
Width: 364
Flags: W
Fore
357 391 m 1,0,1
 348 367 348 367 332.5 347 c 128,-1,2
 317 327 317 327 300 312 c 1,3,4
 305 297 305 297 305 280 c 2,5,-1
 305 0 l 1,6,-1
 41 0 l 1,7,-1
 41 167 l 2,8,9
 41 199 41 199 61.5 218 c 128,-1,10
 82 237 82 237 114 237 c 0,11,12
 187 237 187 237 187 173 c 0,13,14
 187 140 187 140 166.5 122.5 c 128,-1,15
 146 105 146 105 113 105 c 0,16,17
 106 105 106 105 103 106 c 1,18,-1
 103 53 l 1,19,-1
 243 53 l 1,20,-1
 243 278 l 1,21,22
 216 264 216 264 193.5 256.5 c 128,-1,23
 171 249 171 249 135 249 c 0,24,25
 119 249 119 249 100 251 c 128,-1,26
 81 253 81 253 64.5 260 c 128,-1,27
 48 267 48 267 37 279.5 c 128,-1,28
 26 292 26 292 26 314 c 0,29,30
 26 339 26 339 39.5 354 c 128,-1,31
 53 369 53 369 73 377.5 c 128,-1,32
 93 386 93 386 115.5 388.5 c 128,-1,33
 138 391 138 391 155 391 c 0,34,35
 187 391 187 391 215 383.5 c 128,-1,36
 243 376 243 376 268 359 c 1,37,38
 276 367 276 367 281 372.5 c 128,-1,39
 286 378 286 378 295 391 c 1,40,-1
 357 391 l 1,0,1
135 298 m 0,41,42
 184 298 184 298 224 324 c 1,43,44
 193 342 193 342 153 342 c 0,45,46
 146 342 146 342 134.5 341 c 128,-1,47
 123 340 123 340 112 337.5 c 128,-1,48
 101 335 101 335 92.5 330 c 128,-1,49
 84 325 84 325 84 316 c 0,50,51
 84 310 84 310 90 306.5 c 128,-1,52
 96 303 96 303 104 301 c 128,-1,53
 112 299 112 299 120.5 298.5 c 128,-1,54
 129 298 129 298 135 298 c 0,41,42
102 170 m 256,55,56
 102 161 102 161 108.5 154.5 c 128,-1,57
 115 148 115 148 124 148 c 0,58,59
 132 148 132 148 138.5 154.5 c 128,-1,60
 145 161 145 161 145 170 c 256,61,62
 145 179 145 179 138.5 185.5 c 128,-1,63
 132 192 132 192 124 192 c 0,64,65
 115 192 115 192 108.5 185.5 c 128,-1,66
 102 179 102 179 102 170 c 256,55,56
EndSplineSet
EndChar
StartChar: uni0E2F
Encoding: 3631 3631 316
Width: 364
Flags: W
Fore
247 0 m 1,0,-1
 247 304 l 1,1,2
 219 281 219 281 190.5 263 c 128,-1,3
 162 245 162 245 122 245 c 256,4,5
 82 245 82 245 57.5 264.5 c 128,-1,6
 33 284 33 284 33 326 c 0,7,8
 33 355 33 355 52.5 373 c 128,-1,9
 72 391 72 391 101 391 c 0,10,11
 131 391 131 391 150.5 372.5 c 128,-1,12
 170 354 170 354 170 324 c 0,13,14
 170 314 170 314 169 310 c 1,15,16
 192 324 192 324 216 347 c 128,-1,17
 240 370 240 370 256 386 c 1,18,-1
 309 386 l 1,19,-1
 309 0 l 1,20,-1
 247 0 l 1,0,-1
83 319 m 256,21,22
 83 310 83 310 89.5 303 c 128,-1,23
 96 296 96 296 104 296 c 0,24,25
 113 296 113 296 119.5 303 c 128,-1,26
 126 310 126 310 126 319 c 256,27,28
 126 328 126 328 119.5 334.5 c 128,-1,29
 113 341 113 341 104 341 c 0,30,31
 96 341 96 341 89.5 334.5 c 128,-1,32
 83 328 83 328 83 319 c 256,21,22
EndSplineSet
EndChar
StartChar: uni0E30
Encoding: 3632 3632 317
Width: 364
Flags: W
Fore
329 137 m 1,0,1
 327 109 327 109 313 85 c 128,-1,2
 299 61 299 61 277.5 43 c 128,-1,3
 256 25 256 25 229.5 15 c 128,-1,4
 203 5 203 5 176 5 c 0,5,6
 156 5 156 5 132 9.5 c 128,-1,7
 108 14 108 14 87 24.5 c 128,-1,8
 66 35 66 35 52 52.5 c 128,-1,9
 38 70 38 70 38 95 c 0,10,11
 38 126 38 126 57.5 143 c 128,-1,12
 77 160 77 160 106 160 c 0,13,14
 133 160 133 160 155.5 143.5 c 128,-1,15
 178 127 178 127 178 98 c 0,16,17
 178 78 178 78 165 60 c 1,18,-1
 171 60 l 2,19,20
 206 60 206 60 230.5 81 c 128,-1,21
 255 102 255 102 267 137 c 1,22,-1
 329 137 l 1,0,1
327 360 m 1,23,24
 323 332 323 332 309.5 308 c 128,-1,25
 296 284 296 284 276 266 c 128,-1,26
 256 248 256 248 230 238 c 128,-1,27
 204 228 204 228 176 228 c 0,28,29
 156 228 156 228 132 232.5 c 128,-1,30
 108 237 108 237 87 247.5 c 128,-1,31
 66 258 66 258 52 275.5 c 128,-1,32
 38 293 38 293 38 318 c 0,33,34
 38 348 38 348 57.5 365.5 c 128,-1,35
 77 383 77 383 106 383 c 0,36,37
 134 383 134 383 156 366.5 c 128,-1,38
 178 350 178 350 178 321 c 0,39,40
 178 299 178 299 165 283 c 1,41,-1
 171 283 l 2,42,43
 205 283 205 283 229.5 304 c 128,-1,44
 254 325 254 325 266 360 c 1,45,-1
 327 360 l 1,23,24
89 97 m 0,46,47
 89 89 89 89 95.5 83 c 128,-1,48
 102 77 102 77 110 77 c 256,49,50
 118 77 118 77 124 83 c 128,-1,51
 130 89 130 89 130 97 c 0,52,53
 130 106 130 106 124 112 c 128,-1,54
 118 118 118 118 110 118 c 256,55,56
 102 118 102 118 95.5 112 c 128,-1,57
 89 106 89 106 89 97 c 0,46,47
87 321 m 0,58,59
 87 312 87 312 93.5 306.5 c 128,-1,60
 100 301 100 301 108 301 c 256,61,62
 116 301 116 301 122 306.5 c 128,-1,63
 128 312 128 312 128 321 c 0,64,65
 128 329 128 329 122 335.5 c 128,-1,66
 116 342 116 342 108 342 c 256,67,68
 100 342 100 342 93.5 335.5 c 128,-1,69
 87 329 87 329 87 321 c 0,58,59
EndSplineSet
EndChar
StartChar: uni0E31
Encoding: 3633 3633 318
Width: 0
Flags: W
Fore
-109 537 m 0,0,1
 -109 519 -109 519 -121 502 c 1,2,-1
 -120 502 l 2,3,4
 -96 502 -96 502 -79 510 c 128,-1,5
 -62 518 -62 518 -49.5 530.5 c 128,-1,6
 -37 543 -37 543 -27 558.5 c 128,-1,7
 -17 574 -17 574 -7 589 c 1,8,-1
 70 589 l 1,9,10
 54 563 54 563 34.5 537.5 c 128,-1,11
 15 512 15 512 -8.5 492 c 128,-1,12
 -32 472 -32 472 -58.5 460 c 128,-1,13
 -85 448 -85 448 -116 448 c 0,14,15
 -136 448 -136 448 -159 452 c 128,-1,16
 -182 456 -182 456 -202.5 466.5 c 128,-1,17
 -223 477 -223 477 -236.5 494 c 128,-1,18
 -250 511 -250 511 -250 536 c 0,19,20
 -250 567 -250 567 -230.5 583 c 128,-1,21
 -211 599 -211 599 -182 599 c 0,22,23
 -169 599 -169 599 -156 595 c 128,-1,24
 -143 591 -143 591 -132.5 583 c 128,-1,25
 -122 575 -122 575 -115.5 563.5 c 128,-1,26
 -109 552 -109 552 -109 537 c 0,0,1
-199 535 m 0,27,28
 -199 526 -199 526 -193 520 c 128,-1,29
 -187 514 -187 514 -179 514 c 256,30,31
 -171 514 -171 514 -164.5 520 c 128,-1,32
 -158 526 -158 526 -158 535 c 0,33,34
 -158 543 -158 543 -164.5 549 c 128,-1,35
 -171 555 -171 555 -179 555 c 256,36,37
 -187 555 -187 555 -193 549 c 128,-1,38
 -199 543 -199 543 -199 535 c 0,27,28
EndSplineSet
Substitution: 0 65534 'L019' uni0E31.alt1
Substitution: 0 65534 'L019' uni0E31.alt1
EndChar
StartChar: uni0E32
Encoding: 3634 3634 319
Width: 364
Flags: W
Fore
187 337 m 0,0,1
 149 337 149 337 113 313 c 128,-1,2
 77 289 77 289 46 252 c 1,3,-1
 46 334 l 1,4,5
 108 394 108 394 186 394 c 0,6,7
 246 394 246 394 283.5 361.5 c 128,-1,8
 321 329 321 329 321 266 c 2,9,-1
 321 0 l 1,10,-1
 257 0 l 1,11,-1
 257 229 l 2,12,13
 257 249 257 249 255.5 268.5 c 128,-1,14
 254 288 254 288 247.5 303 c 128,-1,15
 241 318 241 318 227 327.5 c 128,-1,16
 213 337 213 337 187 337 c 0,0,1
EndSplineSet
EndChar
StartChar: uni0E33
Encoding: 3635 3635 320
Width: 364
Flags: W
Fore
197 337 m 0,0,1
 159 337 159 337 122.5 312.5 c 128,-1,2
 86 288 86 288 56 252 c 1,3,-1
 56 334 l 1,4,5
 118 394 118 394 195 394 c 0,6,7
 255 394 255 394 292.5 361.5 c 128,-1,8
 330 329 330 329 330 266 c 2,9,-1
 330 0 l 1,10,-1
 266 0 l 1,11,-1
 266 229 l 2,12,13
 266 249 266 249 264.5 268.5 c 128,-1,14
 263 288 263 288 256.5 303 c 128,-1,15
 250 318 250 318 236 327.5 c 128,-1,16
 222 337 222 337 197 337 c 0,0,1
145 522 m 0,17,18
 145 490 145 490 125 469 c 128,-1,19
 105 448 105 448 73 448 c 0,20,21
 40 448 40 448 20 467.5 c 128,-1,22
 0 487 0 487 0 520 c 0,23,24
 0 552 0 552 20.5 573 c 128,-1,25
 41 594 41 594 73 594 c 0,26,27
 106 594 106 594 125.5 574.5 c 128,-1,28
 145 555 145 555 145 522 c 0,17,18
53 519 m 0,29,30
 53 511 53 511 59 505 c 128,-1,31
 65 499 65 499 73 499 c 256,32,33
 81 499 81 499 87.5 505 c 128,-1,34
 94 511 94 511 94 519 c 0,35,36
 94 528 94 528 87.5 534 c 128,-1,37
 81 540 81 540 73 540 c 256,38,39
 65 540 65 540 59 534 c 128,-1,40
 53 528 53 528 53 519 c 0,29,30
EndSplineSet
Substitution: 0 65534 'L019' uni0E33.alt1
Substitution: 0 65534 'L019' uni0E33.alt1
EndChar
StartChar: uni0E34
Encoding: 3636 3636 321
Width: 0
Flags: W
Fore
-68 446 m 2,0,1
 -85 448 -85 448 -104 452 c 128,-1,2
 -123 456 -123 456 -141 458 c 0,3,4
 -165 461 -165 461 -184.5 464 c 128,-1,5
 -204 467 -204 467 -223 468.5 c 128,-1,6
 -242 470 -242 470 -262 471.5 c 128,-1,7
 -282 473 -282 473 -306 473 c 1,8,9
 -283 532 -283 532 -248 558.5 c 128,-1,10
 -213 585 -213 585 -162 585 c 0,11,12
 -131 585 -131 585 -108.5 572 c 128,-1,13
 -86 559 -86 559 -70 538 c 128,-1,14
 -54 517 -54 517 -43 491 c 128,-1,15
 -32 465 -32 465 -24 439 c 1,16,-1
 -68 446 l 2,0,1
-181 511 m 0,17,18
 -166 509 -166 509 -156.5 507.5 c 128,-1,19
 -147 506 -147 506 -139 504 c 128,-1,20
 -131 502 -131 502 -121.5 500 c 128,-1,21
 -112 498 -112 498 -97 495 c 1,22,23
 -108 511 -108 511 -123.5 525.5 c 128,-1,24
 -139 540 -139 540 -165 540 c 0,25,26
 -186 540 -186 540 -199 532 c 128,-1,27
 -212 524 -212 524 -222 515 c 1,28,29
 -209 514 -209 514 -198 513 c 128,-1,30
 -187 512 -187 512 -181 511 c 0,17,18
EndSplineSet
Substitution: 0 65534 'L019' uni0E34.alt1
Substitution: 0 65534 'L019' uni0E34.alt1
EndChar
StartChar: uni0E35
Encoding: 3637 3637 322
Width: 0
Flags: W
Fore
-36 439 m 2,0,1
 -73 447 -73 447 -104 454 c 128,-1,2
 -135 461 -135 461 -165.5 466 c 128,-1,3
 -196 471 -196 471 -229 474 c 128,-1,4
 -262 477 -262 477 -304 478 c 1,5,6
 -296 509 -296 509 -282 530 c 128,-1,7
 -268 551 -268 551 -250 563.5 c 128,-1,8
 -232 576 -232 576 -210.5 581.5 c 128,-1,9
 -189 587 -189 587 -166 587 c 0,10,11
 -140 587 -140 587 -120 579 c 128,-1,12
 -100 571 -100 571 -86 558 c 1,13,-1
 -86 604 l 1,14,-1
 -27 604 l 1,15,-1
 -27 437 l 1,16,-1
 -36 439 l 2,0,1
-184 515 m 0,17,18
 -168 513 -168 513 -156.5 511 c 128,-1,19
 -145 509 -145 509 -134.5 507 c 128,-1,20
 -124 505 -124 505 -112.5 503 c 128,-1,21
 -101 501 -101 501 -86 498 c 1,22,23
 -97 514 -97 514 -119.5 528.5 c 128,-1,24
 -142 543 -142 543 -169 543 c 0,25,26
 -211 543 -211 543 -227 519 c 1,27,28
 -215 517 -215 517 -202 516.5 c 128,-1,29
 -189 516 -189 516 -184 515 c 0,17,18
EndSplineSet
Substitution: 0 65534 'L019' uni0E35.alt1
Substitution: 0 65534 'L019' uni0E35.alt1
EndChar
StartChar: uni0E36
Encoding: 3638 3638 323
Width: 0
Flags: W
Fore
-9 561 m 0,0,1
 -9 517 -9 517 -49 507 c 1,2,3
 -38 489 -38 489 -32 472.5 c 128,-1,4
 -26 456 -26 456 -19 439 c 1,5,6
 -57 446 -57 446 -89 451.5 c 128,-1,7
 -121 457 -121 457 -153 462 c 128,-1,8
 -185 467 -185 467 -219.5 471 c 128,-1,9
 -254 475 -254 475 -296 478 c 1,10,11
 -284 522 -284 522 -254 554 c 128,-1,12
 -224 586 -224 586 -174 586 c 0,13,14
 -142 586 -142 586 -119 573 c 1,15,16
 -113 593 -113 593 -100.5 600 c 128,-1,17
 -88 607 -88 607 -67 607 c 0,18,19
 -41 607 -41 607 -25 591 c 128,-1,20
 -9 575 -9 575 -9 561 c 0,0,1
-185 513 m 0,21,22
 -153 508 -153 508 -133.5 504.5 c 128,-1,23
 -114 501 -114 501 -94 495 c 1,24,25
 -105 511 -105 511 -124 525 c 128,-1,26
 -143 539 -143 539 -170 539 c 0,27,28
 -190 539 -190 539 -201.5 534.5 c 128,-1,29
 -213 530 -213 530 -226 516 c 1,30,31
 -213 515 -213 515 -201.5 514.5 c 128,-1,32
 -190 514 -190 514 -185 513 c 0,21,22
-85 553 m 256,33,34
 -85 545 -85 545 -79 540 c 128,-1,35
 -73 535 -73 535 -65 535 c 256,36,37
 -57 535 -57 535 -51.5 540 c 128,-1,38
 -46 545 -46 545 -46 553 c 256,39,40
 -46 561 -46 561 -51.5 566 c 128,-1,41
 -57 571 -57 571 -65 571 c 256,42,43
 -73 571 -73 571 -79 566 c 128,-1,44
 -85 561 -85 561 -85 553 c 256,33,34
EndSplineSet
Substitution: 0 65534 'L019' uni0E36.alt1
Substitution: 0 65534 'L019' uni0E36.alt1
EndChar
StartChar: uni0E37
Encoding: 3639 3639 324
Width: 0
Flags: W
Fore
-26 439 m 1,0,1
 -59 444 -59 444 -89.5 449.5 c 128,-1,2
 -120 455 -120 455 -153 460 c 128,-1,3
 -186 465 -186 465 -222.5 469 c 128,-1,4
 -259 473 -259 473 -302 474 c 1,5,6
 -292 504 -292 504 -275.5 524.5 c 128,-1,7
 -259 545 -259 545 -240 558.5 c 128,-1,8
 -221 572 -221 572 -202.5 578 c 128,-1,9
 -184 584 -184 584 -169 584 c 2,10,-1
 -161 584 l 1,11,-1
 -161 603 l 1,12,-1
 -103 603 l 1,13,-1
 -103 571 l 1,14,15
 -89 565 -89 565 -87 563 c 2,16,-1
 -85 561 l 1,17,-1
 -85 604 l 1,18,-1
 -26 604 l 1,19,-1
 -26 438 l 1,20,-1
 -26 439 l 1,0,1
-172 508 m 0,21,22
 -157 506 -157 506 -145.5 504 c 128,-1,23
 -134 502 -134 502 -124 500.5 c 128,-1,24
 -114 499 -114 499 -102.5 497 c 128,-1,25
 -91 495 -91 495 -76 492 c 1,26,27
 -87 508 -87 508 -107.5 523 c 128,-1,28
 -128 538 -128 538 -154 538 c 0,29,30
 -197 538 -197 538 -216 512 c 1,31,32
 -203 511 -203 511 -190.5 510 c 128,-1,33
 -178 509 -178 509 -172 508 c 0,21,22
EndSplineSet
Substitution: 0 65534 'L019' uni0E37.alt1
Substitution: 0 65534 'L019' uni0E37.alt1
EndChar
StartChar: uni0E38
Encoding: 3640 3640 325
Width: 0
Flags: W
Fore
-82 -215 m 1,0,-1
 -82 -148 l 1,1,-1
 -90 -148 l 2,2,3
 -114 -148 -114 -148 -130.5 -131.5 c 128,-1,4
 -147 -115 -147 -115 -147 -92 c 0,5,6
 -147 -68 -147 -68 -130.5 -51 c 128,-1,7
 -114 -34 -114 -34 -90 -34 c 0,8,9
 -55 -34 -55 -34 -39.5 -54.5 c 128,-1,10
 -24 -75 -24 -75 -24 -107 c 2,11,-1
 -24 -215 l 1,12,-1
 -82 -215 l 1,0,-1
-108 -92 m 0,13,14
 -108 -100 -108 -100 -102 -106 c 128,-1,15
 -96 -112 -96 -112 -87 -112 c 0,16,17
 -79 -112 -79 -112 -73 -106 c 128,-1,18
 -67 -100 -67 -100 -67 -92 c 0,19,20
 -67 -83 -67 -83 -73 -77 c 128,-1,21
 -79 -71 -79 -71 -87 -71 c 0,22,23
 -96 -71 -96 -71 -102 -77 c 128,-1,24
 -108 -83 -108 -83 -108 -92 c 0,13,14
EndSplineSet
Substitution: 0 65534 'L020' a
Substitution: 0 65534 'L019' uni0E38.alt1
Substitution: 0 65534 'L020' a
Substitution: 0 65534 'L019' uni0E38.alt1
EndChar
StartChar: uni0E39
Encoding: 3641 3641 326
Width: 0
Flags: W
Fore
-182 -212 m 1,0,-1
 -182 -141 l 1,1,2
 -203 -141 -203 -141 -220.5 -126 c 128,-1,3
 -238 -111 -238 -111 -238 -88 c 0,4,5
 -238 -68 -238 -68 -223.5 -51 c 128,-1,6
 -209 -34 -209 -34 -188 -34 c 0,7,8
 -148 -34 -148 -34 -136 -54.5 c 128,-1,9
 -124 -75 -124 -75 -124 -110 c 2,10,-1
 -124 -160 l 1,11,-1
 -93 -160 l 1,12,-1
 -93 -37 l 1,13,-1
 -34 -37 l 1,14,-1
 -34 -212 l 1,15,-1
 -182 -212 l 1,0,-1
-201 -88 m 0,16,17
 -201 -96 -201 -96 -194.5 -102 c 128,-1,18
 -188 -108 -188 -108 -180 -108 c 256,19,20
 -172 -108 -172 -108 -166 -102 c 128,-1,21
 -160 -96 -160 -96 -160 -88 c 0,22,23
 -160 -79 -160 -79 -166 -73 c 128,-1,24
 -172 -67 -172 -67 -180 -67 c 256,25,26
 -188 -67 -188 -67 -194.5 -73 c 128,-1,27
 -201 -79 -201 -79 -201 -88 c 0,16,17
EndSplineSet
Substitution: 0 65534 'L020' b
Substitution: 0 65534 'L019' uni0E39.alt1
Substitution: 0 65534 'L020' b
Substitution: 0 65534 'L019' uni0E39.alt1
EndChar
StartChar: uni0E3A
Encoding: 3642 3642 327
Width: 0
Flags: W
Fore
-18 -76 m 0,0,1
 -18 -93 -18 -93 -28 -103.5 c 128,-1,2
 -38 -114 -38 -114 -55 -114 c 0,3,4
 -73 -114 -73 -114 -84 -103 c 128,-1,5
 -95 -92 -95 -92 -95 -74 c 0,6,7
 -95 -37 -95 -37 -57 -37 c 0,8,9
 -40 -37 -40 -37 -29 -47.5 c 128,-1,10
 -18 -58 -18 -58 -18 -76 c 0,0,1
EndSplineSet
Substitution: 0 65534 'L020' c
Substitution: 0 65534 'L019' uni0E3A.alt1
Substitution: 0 65534 'L020' c
Substitution: 0 65534 'L019' uni0E3A.alt1
EndChar
StartChar: uni0E3F
Encoding: 3647 3647 328
Width: 364
Flags: W
Fore
336 123 m 0,0,1
 336 92 336 92 325 69 c 128,-1,2
 314 46 314 46 295.5 31 c 128,-1,3
 277 16 277 16 252 8.5 c 128,-1,4
 227 1 227 1 200 0 c 1,5,-1
 200 -73 l 1,6,-1
 131 -73 l 1,7,-1
 131 0 l 1,8,-1
 28 0 l 1,9,-1
 28 427 l 1,10,-1
 131 427 l 1,11,-1
 131 475 l 1,12,-1
 200 475 l 1,13,-1
 200 427 l 1,14,15
 224 425 224 425 245 417.5 c 128,-1,16
 266 410 266 410 282.5 396.5 c 128,-1,17
 299 383 299 383 308.5 363 c 128,-1,18
 318 343 318 343 318 316 c 0,19,20
 318 286 318 286 307 263 c 128,-1,21
 296 240 296 240 271 229 c 1,22,23
 336 202 336 202 336 123 c 0,0,1
259 130 m 0,24,25
 259 160 259 160 243 175.5 c 128,-1,26
 227 191 227 191 200 194 c 1,27,-1
 200 64 l 1,28,29
 227 68 227 68 243 83.5 c 128,-1,30
 259 99 259 99 259 130 c 0,24,25
101 63 m 1,31,-1
 131 63 l 1,32,-1
 131 195 l 1,33,-1
 101 195 l 1,34,-1
 101 63 l 1,31,-1
246 310 m 0,35,36
 246 334 246 334 233.5 346.5 c 128,-1,37
 221 359 221 359 200 362 c 1,38,-1
 200 260 l 1,39,40
 220 263 220 263 233 275 c 128,-1,41
 246 287 246 287 246 310 c 0,35,36
101 258 m 1,42,-1
 131 258 l 1,43,-1
 131 364 l 1,44,-1
 101 364 l 1,45,-1
 101 258 l 1,42,-1
EndSplineSet
EndChar
StartChar: uni0E40
Encoding: 3648 3648 329
Width: 364
Flags: W
Fore
181 137 m 1,0,1
 193 143 193 143 209 143 c 0,2,3
 241 143 241 143 260.5 122.5 c 128,-1,4
 280 102 280 102 280 70 c 0,5,6
 280 31 280 31 259.5 11 c 128,-1,7
 239 -9 239 -9 201 -9 c 0,8,9
 171 -9 171 -9 145 9.5 c 128,-1,10
 119 28 119 28 119 62 c 2,11,-1
 119 390 l 1,12,-1
 181 390 l 1,13,-1
 181 137 l 1,0,1
227 64 m 256,14,15
 227 75 227 75 221.5 83.5 c 128,-1,16
 216 92 216 92 205 92 c 256,17,18
 194 92 194 92 188.5 83 c 128,-1,19
 183 74 183 74 183 64 c 0,20,21
 183 56 183 56 188.5 47.5 c 128,-1,22
 194 39 194 39 203 39 c 0,23,24
 213 39 213 39 220 46 c 128,-1,25
 227 53 227 53 227 64 c 256,14,15
EndSplineSet
EndChar
StartChar: uni0E41
Encoding: 3649 3649 330
Width: 364
Flags: W
Fore
263 137 m 1,0,1
 275 143 275 143 291 143 c 0,2,3
 323 143 323 143 341.5 122.5 c 128,-1,4
 360 102 360 102 360 70 c 0,5,6
 360 -9 360 -9 283 -9 c 0,7,8
 268 -9 268 -9 254 -4 c 128,-1,9
 240 1 240 1 229 10 c 128,-1,10
 218 19 218 19 211 32.5 c 128,-1,11
 204 46 204 46 204 62 c 2,12,-1
 204 390 l 1,13,-1
 263 390 l 1,14,-1
 263 137 l 1,0,1
89 135 m 1,15,16
 102 140 102 140 117 140 c 0,17,18
 149 140 149 140 168 120 c 128,-1,19
 187 100 187 100 187 68 c 0,20,21
 187 27 187 27 165 9 c 128,-1,22
 143 -9 143 -9 105 -9 c 0,23,24
 92 -9 92 -9 78.5 -4 c 128,-1,25
 65 1 65 1 54 10 c 128,-1,26
 43 19 43 19 36.5 32 c 128,-1,27
 30 45 30 45 30 60 c 2,28,-1
 30 388 l 1,29,-1
 89 388 l 1,30,-1
 89 135 l 1,15,16
307 64 m 256,31,32
 307 75 307 75 302.5 83.5 c 128,-1,33
 298 92 298 92 287 92 c 0,34,35
 277 92 277 92 271.5 83.5 c 128,-1,36
 266 75 266 75 266 64 c 0,37,38
 266 56 266 56 271 47.5 c 128,-1,39
 276 39 276 39 285 39 c 0,40,41
 296 39 296 39 301.5 46 c 128,-1,42
 307 53 307 53 307 64 c 256,31,32
134 62 m 0,43,44
 134 73 134 73 129.5 81.5 c 128,-1,45
 125 90 125 90 114 90 c 256,46,47
 103 90 103 90 97.5 81.5 c 128,-1,48
 92 73 92 73 92 63 c 0,49,50
 92 55 92 55 97.5 46 c 128,-1,51
 103 37 103 37 112 37 c 0,52,53
 122 37 122 37 128 44.5 c 128,-1,54
 134 52 134 52 134 62 c 0,43,44
EndSplineSet
EndChar
